<?xml version="1.0" encoding="UTF-8" standalone="no"?>
<!-- Creator: CorelDRAW X6 -->

<svg
   xmlns:dc="http://purl.org/dc/elements/1.1/"
   xmlns:cc="http://creativecommons.org/ns#"
   xmlns:rdf="http://www.w3.org/1999/02/22-rdf-syntax-ns#"
   xmlns:svg="http://www.w3.org/2000/svg"
   xmlns="http://www.w3.org/2000/svg"
   xmlns:sodipodi="http://sodipodi.sourceforge.net/DTD/sodipodi-0.dtd"
   xmlns:inkscape="http://www.inkscape.org/namespaces/inkscape"
   xml:space="preserve"
   width="150px"
   height="150px"
   version="1.1"
   style="shape-rendering:geometricPrecision; text-rendering:geometricPrecision; image-rendering:optimizeQuality; fill-rule:evenodd; clip-rule:evenodd"
   viewBox="0 0 15000 15000"
   id="svg2"
   inkscape:version="0.91 r13725"
   sodipodi:docname="dataflow_run.svg"><metadata
     id="metadata29"><rdf:RDF><cc:Work
         rdf:about=""><dc:format>image/svg+xml</dc:format><dc:type
           rdf:resource="http://purl.org/dc/dcmitype/StillImage" /></cc:Work></rdf:RDF></metadata><sodipodi:namedview
     pagecolor="#ffffff"
     bordercolor="#666666"
     borderopacity="1"
     objecttolerance="10"
     gridtolerance="10"
     guidetolerance="10"
     inkscape:pageopacity="0"
     inkscape:pageshadow="2"
     inkscape:window-width="1194"
     inkscape:window-height="725"
     id="namedview27"
     showgrid="false"
     inkscape:zoom="2.2250293"
     inkscape:cx="83.575237"
     inkscape:cy="86.86762"
     inkscape:window-x="465"
     inkscape:window-y="203"
     inkscape:window-maximized="0"
     inkscape:current-layer="svg2" /><defs
     id="defs4"><style
       type="text/css"
       id="style6"><![CDATA[
    .str1 {stroke:#2F74AE;stroke-width:422.91}
    .str0 {stroke:#E8F5FF;stroke-width:422.91}
    .fil0 {fill:#387DB4}
    .fil2 {fill:url(#id0)}
    .fil1 {fill:url(#id1)}
   ]]></style><linearGradient
       id="id0"
       gradientUnits="userSpaceOnUse"
       x1="8288.82"
       y1="3985.47"
       x2="8288.82"
       y2="10899.9"><stop
         offset="0"
         style="stop-color:#3085BF"
         id="stop9" /><stop
         offset="1"
         style="stop-color:#69B4E7"
         id="stop11" /></linearGradient><linearGradient
       id="id1"
       gradientUnits="userSpaceOnUse"
       x1="7502.15"
       y1="686.455"
       x2="7502.15"
       y2="14293.9"><stop
         offset="0"
         style="stop-color:#ABD5F4"
         id="stop14" /><stop
         offset="1"
         style="stop-color:#DDF5FF"
         id="stop16" /></linearGradient></defs><g
     id="Layer_x0020_1"><metadata
       id="CorelCorpID_0Corel-Layer" /><g
       id="_123222384"><circle
         class="fil0"
         cx="7502"
         cy="7490"
         r="7355"
         id="circle21" /><circle
         class="fil1 str0"
         cx="7502"
         cy="7490"
         r="6804"
         id="circle23" /></g><polygon
       class="fil2 str1"
       points="10123,7549 6454,3985 6454,10900 "
       id="polygon25" /></g><path
     style="fill:#aaffee"
     d="M 62.605932,139.42476 C 46.093804,136.00556 32.249593,127.50298 22.442509,114.75794 13.307841,102.88675 8.2797576,86.701443 9.0786346,71.739866 9.4271548,65.212691 11.354602,54.681035 11.907691,56.28178 c 0.213363,0.617512 5.855241,0.794491 25.327478,0.794491 l 25.052967,0 0,28.283898 c 0,15.556141 0.153186,28.283901 0.340413,28.283901 0.525788,0 41.608741,-37.533277 41.608741,-38.013637 0,-0.233118 -4.07204,-4.503171 -9.048987,-9.489007 l -9.048979,-9.065155 25.892196,0 c 24.2089,0 25.89675,-0.07231 25.96209,-1.112288 0.20121,-3.202952 2.56962,9.423374 2.90049,15.462898 0.65527,11.961165 -1.63944,22.59734 -7.21607,33.446979 -9.26199,18.01972 -26.81244,31.09841 -46.289047,34.49485 -6.588705,1.14897 -19.365531,1.17787 -24.783051,0.056 z"
     id="path3363"
     inkscape:connector-curvature="0"
     transform="scale(100,100)" /><path
     style="fill:#aaffee"
     d="m 74.2325,45.95339 -11.626568,-11.440678 -0.173564,11.28178 -0.173564,11.281779 -23.105037,0 c -12.707771,0 -24.019821,-0.182957 -25.13789,-0.40657 -2.391135,-0.478227 -2.351642,-0.964893 0.667538,-8.225898 5.646147,-13.578755 18.562872,-26.809269 32.574967,-33.36632 l 4.008985,-1.876031 23.70862,-0.02131 23.708625,-0.02131 4.645668,2.206221 c 14.67068,6.967072 27.68623,21.03477 33.03819,35.708927 0.95516,2.618872 1.52936,4.96924 1.27602,5.223041 -0.25334,0.253802 -12.0087,0.604466 -26.12302,0.779254 L 85.859066,57.394068 74.2325,45.95339 Z"
     id="path3365"
     inkscape:connector-curvature="0"
     transform="scale(100,100)" /><path
     style="fill:#aaffee"
     d="M 64.989697,139.66135 C 51.666369,137.9291 36.024978,129.72334 26.623717,119.53386 13.970864,105.82018 7.4527609,86.328966 9.5098849,68.358051 10.315649,61.318947 11.340316,56.440678 12.013098,56.440678 c 0.231831,0 0.475812,-0.656106 0.54218,-1.458014 0.230336,-2.783097 3.991049,-10.825837 7.59408,-16.240858 6.444304,-9.685191 17.910532,-19.569079 27.750144,-23.920622 l 3.619795,-1.600845 23.480703,0 23.480701,0 3.493449,1.544969 c 14.6022,6.457786 28.544,21.075459 33.98947,35.637234 0.78435,2.097458 1.67238,4.283171 1.97338,4.85714 0.77104,1.470267 2.33516,10.142977 2.85104,15.808376 1.82705,20.064881 -8.82996,43.100242 -25.88546,55.951932 -14.09141,10.6182 -31.521069,15.03258 -49.912883,12.64136 z M 78.140206,99.666623 C 85.635331,92.846803 94.57336,84.71004 98.002494,81.58493 c 3.429136,-3.125116 6.234796,-5.855041 6.234796,-6.066503 0,-0.211463 -4.21875,-4.512577 -9.375002,-9.558031 C 80.021428,51.438432 65.938553,37.817479 64.036017,36.145234 l -1.747881,-1.536311 0,39.595398 c 0,37.616349 0.05559,39.552079 1.112288,38.728679 0.611758,-0.47668 7.244661,-6.44656 14.739782,-13.266377 z M 134.90466,56.627712 c -0.78655,-0.151495 -2.07362,-0.151495 -2.86017,0 -0.78655,0.151496 -0.14301,0.275446 1.43009,0.275446 1.57309,0 2.21663,-0.12395 1.43008,-0.275446 z"
     id="path3367"
     inkscape:connector-curvature="0"
     transform="scale(100,100)" /><path
     style="fill:#aaffee"
     d="M 55.29661,12.20302 C 66.764248,8.4651064 83.198587,8.4513988 94.70339,12.170152 97.320659,13.016145 95.647349,13.096384 75,13.11498 54.311043,13.133614 52.674066,13.057847 55.29661,12.20302 Z"
     id="path3369"
     inkscape:connector-curvature="0"
     transform="scale(100,100)" /><path
     style="fill:#aaffee"
     d="M 64.040927,139.64936 C 59.62026,139.00182 50.189059,135.90493 45.612017,133.59793 31.456257,126.46289 20.321102,114.67126 14.347121,100.4898 11.059348,92.685051 8.9343531,82.664612 8.9146422,74.872881 8.8927353,66.213067 11.981812,53.446398 16.065913,45.317797 20.407538,36.676647 28.906584,26.995075 37.5,20.901449 c 5.346262,-3.791056 12.932674,-7.68111 14.979756,-7.68111 0.742701,0 2.188225,-0.41798 3.212277,-0.928844 3.676263,-1.833961 13.41627,-3.0439425 21.85034,-2.7144226 7.93683,0.3100927 17.161017,1.9541256 17.161017,3.0586186 0,0.321556 1.038006,0.584648 2.306682,0.584648 3.142668,0 12.277918,4.891632 18.636968,9.979503 23.43125,18.747315 31.59667,49.826698 20.19223,76.856038 -6.07318,14.39387 -17.34183,26.44192 -31.28419,33.44798 -11.621684,5.83992 -26.840455,8.14842 -40.514153,6.1455 z M 82.831462,95.211864 C 92.228975,86.647246 100.96122,78.723801 102.23647,77.60421 L 104.55508,75.568583 88.029661,59.488557 C 78.940678,50.644543 69.430614,41.431552 66.896186,39.015243 l -4.60805,-4.393288 0,38.76953 c 0,21.323244 0.191302,38.960835 0.425115,39.194655 0.526453,0.52644 -0.423102,1.34649 20.118211,-17.374276 z"
     id="path3371"
     inkscape:connector-curvature="0"
     transform="scale(100,100)" /><path
     style="fill:#aaffee"
     d="M 20.083675,111.38444 C 14.516079,102.97363 10.80454,92.885747 9.4874435,82.584127 8.6607217,76.117956 8.7709163,71.82767 9.9669904,63.913576 c 0.6810556,-4.506357 1.2949346,-7.166614 1.7614056,-7.633085 0.134489,-0.134488 0.456094,-0.974711 0.714679,-1.86716 0.710308,-2.451478 2.387513,-6.555674 3.878777,-9.491542 4.83803,-9.524686 13.214826,-18.780901 22.787836,-25.180168 3.120468,-2.085938 5.834286,-3.599273 9.454449,-5.272184 2.484894,-1.148293 2.974975,-1.321853 3.735159,-1.32279 1.020542,-0.0013 1.807886,-0.198332 2.146935,-0.53738 0.495159,-0.49516 4.796061,-1.641773 8.355466,-2.227552 8.82447,-1.4522629 18.22306,-1.3146899 26.55569,0.388712 2.486377,0.508279 5.316308,1.295185 5.991532,1.666038 l 0.408015,0.224093 -0.388737,0.110302 c -0.360637,0.102329 -0.36638,0.119051 -0.07945,0.231337 0.170108,0.06657 0.981915,0.12606 1.804017,0.132203 l 1.49473,0.01117 2.636625,1.209734 c 7.93769,3.641966 13.98475,7.830008 20.04346,13.881599 7.45021,7.441457 12.32061,15.01598 15.69615,24.410865 0.43645,1.214733 0.98031,2.567612 1.20858,3.006395 0.45966,0.883558 1.26425,4.556354 1.91382,8.73611 1.91744,12.338209 0.71603,23.45884 -3.74228,34.639831 -0.85138,2.135148 -3.02619,6.587718 -4.22437,8.648708 -0.48628,0.83643 -1.53661,2.50397 -2.33408,3.70563 l -1.44994,2.18486 -53.402755,0 -53.402753,0 -1.446277,-2.18486 z m 45.024106,-0.094 c 0.951313,-0.8164 7.163983,-6.43934 13.805932,-12.49542 14.630563,-13.340037 14.093191,-12.851171 18.511653,-16.840737 1.966366,-1.775493 4.310644,-3.936079 5.209514,-4.801304 l 1.6343,-1.573138 -1.3165,-1.425187 C 102.2286,73.37079 97.276068,68.493499 91.947054,63.316219 86.618039,58.138939 80.608519,52.294138 78.592564,50.327771 74.24994,46.091967 64.28662,36.515344 63.248474,35.579215 l -0.728798,-0.65718 -0.105418,8.841318 c -0.235323,19.736477 -0.03402,67.980467 0.286793,68.733377 0.218145,0.51196 0.666238,0.28737 2.40673,-1.2063 z"
     id="path3373"
     inkscape:connector-curvature="0"
     transform="scale(100,100)" /><path
     style="fill:#aaffee"
     d="m 95.28907,13.030086 c -0.287794,-0.07323 -0.283076,-0.09247 0.06885,-0.28082 0.359188,-0.192231 0.320898,-0.220534 -0.776488,-0.573971 -0.634869,-0.204473 -1.077057,-0.39752 -0.98264,-0.428992 0.178351,-0.05945 4.144367,1.216162 4.144367,1.332976 0,0.09028 -2.068947,0.04881 -2.454092,-0.04919 z"
     id="path3379"
     inkscape:connector-curvature="0"
     transform="scale(100,100)" /><path
     style="fill:#aaffee"
     d="m 20.078117,111.38444 c -1.886902,-2.88025 -2.839581,-4.54808 -4.243219,-7.42849 C 12.418621,96.945404 10.261032,89.439733 9.2893402,81.185719 8.9516334,78.317077 8.9100823,72.053932 9.2111217,69.395568 9.8840489,63.453203 10.926002,57.849609 11.619133,56.445356 11.877956,55.920991 12.278036,54.88418 12.5082,54.14133 14.59853,47.394839 18.185422,40.671707 22.808319,34.835186 29.804241,26.002667 38.304974,19.238317 48.218236,14.615573 c 2.583324,-1.204654 3.027651,-1.361608 4.208364,-1.486562 0.927812,-0.09819 1.518445,-0.255948 1.987588,-0.530884 1.430498,-0.838327 6.499028,-2.054781 10.91372,-2.6193081 7.435241,-0.9507779 14.896899,-0.8163567 22.166314,0.3993241 3.050769,0.510188 9.579174,2.223023 10.002648,2.624362 0.08302,0.07868 0.37755,0.143063 0.654502,0.143063 0.595047,0 5.046198,2.028304 7.979768,3.636227 6.71824,3.682341 12.86837,8.620382 18.13094,14.557629 5.88703,6.641752 9.58769,12.833299 12.72638,21.292373 0.45397,1.223517 1.00351,2.601077 1.22119,3.061245 0.60814,1.28561 1.76044,7.164545 2.38988,12.192992 0.43619,3.484684 0.39762,11.838726 -0.0704,15.254237 -1.06485,7.770548 -2.94335,13.821097 -6.51193,20.974579 -1.56995,3.14707 -1.93633,3.78142 -4.06103,7.03125 l -1.58425,2.4232 -53.431222,0 -53.431221,0 -1.43133,-2.18486 z m 43.756141,0.93951 C 64.741,111.66426 67.393403,109.27427 82.727272,95.300099 101.60036,78.100544 102.81021,76.992316 103.58442,76.194915 l 0.67706,-0.697346 -5.205664,-5.160996 C 91.881801,63.224115 69.434171,41.434268 64.569614,36.86092 c -1.072518,-1.008313 -1.988298,-1.795031 -2.035067,-1.748262 -0.04677,0.04677 -0.122741,11.050873 -0.168829,24.453569 -0.07979,23.204121 0.109413,52.085933 0.346227,52.851053 0.145476,0.47003 0.3741,0.45102 1.122313,-0.0933 z"
     id="path3381"
     inkscape:connector-curvature="0"
     transform="scale(100,100)" /><path
     style="fill:#decd87"
     d="m 61.836087,10.396638 c 0.124286,-0.138071 3.416901,-0.6877853 6.03578,-1.0076949 2.838324,-0.346716 10.696044,-0.3986883 13.50477,-0.089323 2.392892,0.2635637 7.118824,1.0227948 6.874161,1.1043488 -0.105173,0.03506 -0.920685,-0.05223 -1.812249,-0.193977 -7.420266,-1.1797036 -16.085302,-1.1162372 -24.05026,0.176155 -0.349576,0.05672 -0.598067,0.06144 -0.552202,0.01049 z"
     id="path3383"
     inkscape:connector-curvature="0"
     transform="scale(100,100)" /><path
     style="fill:#decd87"
     d="m 66.685496,83.255275 c -0.05345,-8.304133 0.03468,-17.253454 0.195838,-19.887378 l 0.293015,-4.788954 6.666155,0 6.666154,0 6.411441,6.129457 c 3.526292,3.371202 7.479752,7.172012 8.785465,8.446245 l 2.374023,2.316787 -6.532907,5.970714 -6.532907,5.970713 -8.973045,-0.05162 -8.973046,-0.05162 -0.141504,5.522041 c -0.07783,3.037122 -0.185234,-1.272251 -0.238682,-9.576384 z"
     id="path3385"
     inkscape:connector-curvature="0"
     transform="scale(100,100)" /><path
     style="fill:#decd87"
     d="m 66.750746,95.906691 c 0.171144,-4.558744 0.377618,-8.355073 0.458831,-8.436286 0.08121,-0.08121 4.043892,-0.09263 8.805953,-0.02537 l 8.658293,0.12229 -7.357381,6.777412 c -4.046559,3.727578 -8.149265,7.468873 -9.117124,8.313993 l -1.759743,1.53659 0.311171,-8.288629 z"
     id="path3387"
     inkscape:connector-curvature="0"
     transform="scale(100,100)" /><path
     style="fill:#decd87"
     d="m 66.660245,53.247047 -0.07193,-8.253205 5.730262,5.401545 c 3.151644,2.970849 6.324272,6.027497 7.050285,6.792551 l 1.320023,1.391005 -6.797093,0 -6.797094,0 -0.181265,1.460655 c -0.0997,0.80336 -0.213633,-2.253288 -0.253192,-6.792551 z"
     id="path3389"
     inkscape:connector-curvature="0"
     transform="scale(100,100)" /><path
     style="fill:#decd87"
     d="m 66.588296,102.64149 c 0.0023,-1.70029 0.440344,-12.393137 0.570073,-13.916843 l 0.104846,-1.231462 6.375139,0.01939 c 3.506326,0.01066 7.366174,0.06429 8.577439,0.119173 l 2.202301,0.09979 -5.459716,5.020133 c -7.601728,6.989685 -12.046006,11.019214 -12.222147,11.081564 -0.08546,0.0302 -0.148911,-0.48094 -0.147935,-1.19174 z"
     id="path3391"
     inkscape:connector-curvature="0"
     transform="scale(100,100)" /><path
     style="fill:#decd87"
     d="m 66.588239,102.3899 c 0.0021,-1.90583 0.437356,-12.430683 0.571642,-13.824151 l 0.103361,-1.072564 6.85182,0.02022 c 3.768502,0.01112 7.63328,0.06475 8.588397,0.119173 l 1.736574,0.09896 -5.550134,5.101638 C 70.628725,100.42677 66.838985,103.8559 66.70576,103.85791 c -0.06555,9.9e-4 -0.11843,-0.65961 -0.117521,-1.46801 z"
     id="path3393"
     inkscape:connector-curvature="0"
     transform="scale(100,100)" /><path
     style="fill:#decd87"
     d="m 66.588247,102.24424 c 0.0022,-2.1307 0.440521,-12.821653 0.572268,-13.956563 0.0558,-0.480668 0.04494,-0.820427 -0.02412,-0.755021 -0.06906,0.0654 -0.174499,0.780448 -0.2343,1.588983 -0.0598,0.808535 -0.117748,-3.463729 -0.128772,-9.49392 -0.01801,-9.851754 0.09613,-15.845866 0.376726,-19.782839 0.0661,-0.927458 0.04612,-1.278554 -0.06378,-1.120575 -0.129706,0.186447 -0.176341,0.156324 -0.246001,-0.158899 -0.09364,-0.423726 -0.209067,-13.339289 -0.119216,-13.339215 0.175906,1.44e-4 9.232248,8.702501 13.133548,12.620196 2.534428,2.545079 7.629105,7.520773 11.321504,11.0571 3.692399,3.536326 6.713453,6.479722 6.713453,6.54088 0,0.06116 -2.894782,2.761411 -6.432848,6.000559 l -6.432849,5.889361 -4.094164,0.02452 -4.094164,0.02452 3.490527,0.12785 c 1.91979,0.07032 3.635482,0.148664 3.812649,0.174105 0.242762,0.03486 -1.165232,1.413535 -5.715104,5.596098 -7.164182,6.585821 -11.475215,10.478816 -11.684927,10.551856 -0.09052,0.0315 -0.151414,-0.6117 -0.150425,-1.58899 z"
     id="path3395"
     inkscape:connector-curvature="0"
     transform="scale(100,100)" /><path
     style="fill:#decd87"
     d="m 66.590152,101.99266 c 0.002,-1.02688 0.107351,-4.298204 0.2342,-7.269602 0.236218,-5.533381 0.261823,-7.211012 0.08003,-5.243644 -0.05653,0.611759 -0.114187,-3.928761 -0.12813,-10.090042 -0.02304,-10.180386 0.102428,-16.664026 0.379374,-19.604841 0.07436,-0.789654 0.05347,-1.062606 -0.07527,-0.983043 -0.09802,0.06058 -0.208729,0.01623 -0.24602,-0.09855 -0.120159,-0.36985 -0.193381,-13.485247 -0.07504,-13.440477 0.283355,0.107196 8.13083,7.626546 12.31457,11.799665 2.541999,2.535546 7.815437,7.680471 11.71875,11.433164 3.903313,3.752695 7.096932,6.87845 7.096932,6.946124 0,0.139922 -12.819729,11.929682 -13.104629,12.05177 -0.101971,0.0437 -2.003804,1.763487 -4.226297,3.821757 -8.198396,7.592603 -13.673902,12.544768 -13.870488,12.544768 -0.05585,0 -0.09995,-0.84017 -0.09799,-1.86705 z m 0.583244,-14.297828 c -0.04029,-0.154603 -0.0759,-0.06658 -0.07914,0.195599 -0.0032,0.262182 0.02972,0.388675 0.07325,0.281096 0.04353,-0.107579 0.04618,-0.322092 0.0059,-0.476695 z m 16.613932,-0.157696 c -0.284031,-0.03525 -0.748808,-0.03525 -1.032839,0 -0.284031,0.03525 -0.05164,0.06409 0.516419,0.06409 0.568062,0 0.800451,-0.02884 0.51642,-0.06409 z"
     id="path3397"
     inkscape:connector-curvature="0"
     transform="scale(100,100)" /><path
     style="fill:#decd87"
     d="m 66.662379,99.132486 c 0.06759,-2.599973 0.113918,-12.427575 0.102954,-21.839113 -0.01312,-11.261166 0.03441,-17.145475 0.139008,-17.210119 0.08742,-0.05403 0.15894,-0.241239 0.15894,-0.416028 0,-0.174788 -0.0715,-0.273604 -0.158898,-0.219592 -0.104579,0.06463 -0.158898,-1.525945 -0.158898,-4.652858 0,-2.613085 -0.04734,-5.844817 -0.105203,-7.181628 -0.07629,-1.762513 -0.05638,-2.413647 0.07242,-2.369013 0.330681,0.114591 7.217785,6.702058 13.935864,13.329559 3.676423,3.626853 9.061202,8.877718 11.966177,11.668587 2.904975,2.790869 5.257075,5.150509 5.226889,5.243644 -0.07612,0.234873 -10.694632,9.993397 -13.299534,12.222415 -0.131091,0.112176 -2.848252,2.601386 -6.038136,5.531579 -7.960361,7.312301 -11.640414,10.619791 -11.816039,10.619791 -0.0914,0 -0.101214,-1.81626 -0.02554,-4.727224 z m 0.354144,-9.772246 c -0.03787,-0.196636 -0.06886,-0.03575 -0.06886,0.357522 0,0.393273 0.03099,0.554157 0.06886,0.357521 0.03787,-0.196637 0.03787,-0.518406 0,-0.715043 z m 0.155304,-1.579052 c -0.05072,-0.126758 -0.08838,-0.08911 -0.096,0.096 -0.0069,0.167504 0.03066,0.261354 0.08346,0.208554 0.0528,-0.0528 0.05845,-0.189852 0.01254,-0.304556 z m 16.456603,-0.23434 c -0.109243,-0.04408 -0.288004,-0.04408 -0.397246,0 -0.109243,0.04408 -0.01986,0.08015 0.198623,0.08015 0.218485,0 0.307865,-0.03607 0.198623,-0.08015 z M 67.018405,60.999078 c -0.03652,-0.241536 -0.06738,-0.08163 -0.06857,0.355336 -0.0012,0.43697 0.02869,0.634591 0.06641,0.439155 0.03772,-0.195435 0.03869,-0.552956 0.0022,-0.794491 z"
     id="path3401"
     inkscape:connector-curvature="0"
     transform="scale(100,100)" /><path
     style="fill:#55ff55"
     d="m 66.660759,74.541191 c -0.0029,-16.12516 0.04861,-29.299805 0.114468,-29.276989 0.272075,0.09426 7.283224,6.808967 13.23342,12.673898 3.502252,3.452066 8.96018,8.773176 12.12873,11.82469 3.168549,3.051513 5.736149,5.625665 5.705779,5.720339 -0.06204,0.193388 -7.231745,6.836566 -11.221554,10.397467 -1.434398,1.280198 -5.224122,4.726246 -8.421611,7.657886 -7.08156,6.492778 -11.32701,10.321238 -11.445381,10.321208 -0.04872,-2e-5 -0.09095,-13.193341 -0.09385,-29.318499 z M 66.88339,60.885664 c -0.07846,-0.08588 -0.126898,0.804602 -0.112371,2.065678 l 0.02554,2.216631 0.112371,-2.065678 c 0.0618,-1.136123 0.05031,-2.133607 -0.02553,-2.216631 z m 0.168723,-1.089886 c -0.0061,-0.191479 -0.07262,-0.491152 -0.14773,-0.66594 -0.102435,-0.23838 -0.139353,-0.126838 -0.14773,0.446348 -0.0069,0.471468 0.04969,0.726531 0.14773,0.66594 0.08739,-0.05401 0.153873,-0.254869 0.14773,-0.446348 z"
     id="path3403"
     inkscape:connector-curvature="0"
     transform="scale(100,100)" /></svg>