<?xml version="1.0" encoding="UTF-8" standalone="no"?>
<!-- Created with Inkscape (http://www.inkscape.org/) -->

<svg
   xmlns:dc="http://purl.org/dc/elements/1.1/"
   xmlns:cc="http://creativecommons.org/ns#"
   xmlns:rdf="http://www.w3.org/1999/02/22-rdf-syntax-ns#"
   xmlns:svg="http://www.w3.org/2000/svg"
   xmlns="http://www.w3.org/2000/svg"
   xmlns:sodipodi="http://sodipodi.sourceforge.net/DTD/sodipodi-0.dtd"
   xmlns:inkscape="http://www.inkscape.org/namespaces/inkscape"
   id="svg2"
   version="1.1"
   inkscape:version="0.91 r13725"
   width="125"
   height="144"
   viewBox="0 0 125 144"
   sodipodi:docname="cameraOn.svg">
  <metadata
     id="metadata8">
    <rdf:RDF>
      <cc:Work
         rdf:about="">
        <dc:format>image/svg+xml</dc:format>
        <dc:type
           rdf:resource="http://purl.org/dc/dcmitype/StillImage" />
        <dc:title></dc:title>
      </cc:Work>
    </rdf:RDF>
  </metadata>
  <defs
     id="defs6" />
  <sodipodi:namedview
     pagecolor="#ffffff"
     bordercolor="#666666"
     borderopacity="1"
     objecttolerance="10"
     gridtolerance="10"
     guidetolerance="10"
     inkscape:pageopacity="0"
     inkscape:pageshadow="2"
     inkscape:window-width="640"
     inkscape:window-height="480"
     id="namedview4"
     showgrid="false"
     inkscape:zoom="4.6354778"
     inkscape:cx="56.242818"
     inkscape:cy="42.014424"
     inkscape:window-x="1852"
     inkscape:window-y="312"
     inkscape:window-maximized="0"
     inkscape:current-layer="svg2" />
  <path
     style="fill:#090909"
     d="M 0.49531362,137.75 C 0.13858415,134.8625 -0.0062962,107.65964 0.17335729,77.299192 0.43151455,33.672047 0.77267444,21.82599 1.800526,20.799192 c 1.9121348,-1.910173 119.489784,-1.909581 121.399794,6.12e-4 1.58723,1.58738 2.43537,67.477525 1.29944,100.950196 L 123.77861,143 62.461262,143 1.1439126,143 Z M 113.73553,139.10813 c 2.87954,-0.41022 5.57954,-1.08987 6,-1.51033 C 120.15599,137.17734 120.5,112.14333 120.5,81.966667 120.5,38.284559 120.23503,26.834995 119.20015,25.8 118.16546,24.765186 106.80038,24.5 63.486037,24.5 12.581738,24.5 8.9565727,24.615187 7.2858852,26.285714 5.6156206,27.955819 5.5,31.555199 5.5,81.88202 c 0,43.2618 0.2603126,54.12425 1.3278841,55.41059 0.7303363,0.88 3.2053359,1.77055 5.4999999,1.97899 7.94319,0.72154 96.193956,0.57928 101.407646,-0.16347 z M 86.401069,130.09457 C 81.306973,127.78111 77.878908,123.10529 77.261594,117.6285 76.635415,112.07306 79.115053,106 82.009525,106 c 2.011984,0 2.079266,0.32792 1.426507,6.9524 -0.670856,6.80813 -0.621827,7.01565 2.362525,10 4.162904,4.16291 9.192813,4.21008 13.278366,0.12452 2.337907,-2.3379 2.920007,-3.78928 2.907767,-7.25 -0.008,-2.3798 -0.42703,-4.97767 -0.93023,-5.77304 C 99.897608,108.22535 101.51667,105 103.59141,105 c 0.84617,0 2.42434,2.04204 3.5569,4.60238 3.49919,7.9105 0.31307,16.54358 -7.501743,20.32667 -5.242847,2.53802 -7.94699,2.57181 -13.245498,0.16552 z m 4.018419,-14.44378 c -0.284758,-0.74207 -0.383135,-4.45457 -0.218615,-8.25 0.290413,-6.69977 0.379235,-6.91001 3.049127,-7.21721 3.988403,-0.1786 2.75,4.82437 2.75,8.25 C 96,116.93275 95.98013,117 93.468615,117 c -1.392261,0 -2.764369,-0.60715 -3.049127,-1.34921 z M 24.345393,102.00413 c -1.88822,-0.76165 -2.245143,-1.95597 -2.886881,-9.659949 -1.083516,-13.007478 -0.01088,-55.191816 1.440286,-56.642979 0.754427,-0.754427 6.367126,-1.309897 15.66509,-1.550322 16.312905,-0.421816 24.776377,0.332242 26.835015,2.39088 0.768733,0.768733 1.705657,4.051101 2.082052,7.294151 l 0.684357,5.896455 6.064035,0.633817 C 77.564566,50.714782 87.202371,51 95.646691,51 112.65064,51.547946 111,52.248908 111,68.355395 c -1.33471,13.365477 0.61756,17.542763 -6.75,17.992891 -3.7125,0.350623 -13.316552,0.640695 -21.342338,0.644605 L 68.315323,87 67.407662,93.729205 C 66.637029,99.442511 66.122578,100.64803 64,101.71446 c -2.914868,1.46449 -36.140381,1.7072 -39.654607,0.28967 z M 104.8266,67.460786 C 105.24754,54.85039 106.9033,55 89.12072,55 69.905875,55.274254 73.323591,53.989673 73,68.645263 72.546357,84.115357 70.585806,80.657923 88.055019,81.756911 106.38811,80.98622 104.27165,83.390651 104.8266,67.460786 Z M 51.230948,72.95268 c 4.826094,-1.340313 8.501642,-6.174363 9.951942,-13.088715 0.998819,-4.7619 0.891765,-5.906768 -0.939427,-10.046481 -5.875589,-13.282743 -25.622787,-14.001781 -31.767458,-1.156722 -2.387781,4.99151 -2.354467,11.866976 0.08169,16.859098 3.415878,6.999751 12.963086,10.129548 22.673253,7.43282 z M 19.023941,14.303307 C 17.578079,12.465191 16.997803,10.499917 17.201361,8.1306063 17.639111,3.0354212 20,2.8071103 20,7.8599627 20,10.887349 20.551534,12.272902 22.222506,13.443296 25.082663,15.446628 25.59249,15.40751 28,13 c 1.238095,-1.238095 2,-3.3333333 2,-5.5 0,-3.9268845 1.363771,-4.5573222 3.048556,-1.4092724 0.83659,1.5631834 0.810693,2.8348612 -0.102633,5.0398274 -2.603763,6.286037 -10.124827,8.000052 -13.921982,3.172752 z m 71.430604,0.242148 c -2.67124,-2.671241 -3.027119,-4.6070739 -1.404372,-7.6392046 1.390283,-2.5977665 3.274016,-1.334058 2.515624,1.6876144 -0.409401,1.6311852 0.03528,3.0072102 1.418973,4.3909052 2.622038,2.622038 4.171362,2.542389 6.892702,-0.354345 1.654888,-1.761548 2.056698,-3.0445367 1.565908,-5.0000004 -0.79374,-3.1625037 0.98282,-3.571098 2.57684,-0.5926519 1.42431,2.6613498 0.47947,5.4240123 -2.71419,7.9361423 -3.51125,2.761951 -7.83166,2.591364 -10.851485,-0.42846 z M 22.158866,10.319395 C 21.510569,9.160951 21.650479,8.2066639 22.609176,7.2479665 23.374129,6.4830135 24,4.5392857 24,2.9285714 24,1.3178571 24.45,0 25,0 c 0.55,0 1,1.3178571 1,2.9285714 0,1.6107143 0.625871,3.5544421 1.390824,4.3193951 C 29.166349,9.0234918 27.66882,12 25,12 23.954659,12 22.676149,11.243728 22.158866,10.319395 Z M 95.534474,8.5 C 95.160216,7.4 94.397436,5.6554888 93.839408,4.6233084 93.081536,3.2214771 93.226522,2.344907 94.412406,1.1590227 95.83115,-0.2597218 96.161259,-0.2673125 97.516223,1.0876518 98.844437,2.4158659 98.857764,3.093428 97.623695,6.5519375 96.434251,9.8853846 96.109011,10.18865 95.534474,8.5 Z"
     id="path3512"
     inkscape:connector-curvature="0"
     sodipodi:nodetypes="ssssscccssssssssssssssssscsssssssccsssssssscscccscssscccccssssssssssssssssssssssssssssssssssssss" />
</svg>
