<?xml version="1.0" encoding="UTF-8" standalone="no"?>
<!-- Created with Inkscape (http://www.inkscape.org/) -->

<svg
   xmlns:dc="http://purl.org/dc/elements/1.1/"
   xmlns:cc="http://creativecommons.org/ns#"
   xmlns:rdf="http://www.w3.org/1999/02/22-rdf-syntax-ns#"
   xmlns:svg="http://www.w3.org/2000/svg"
   xmlns="http://www.w3.org/2000/svg"
   xmlns:sodipodi="http://sodipodi.sourceforge.net/DTD/sodipodi-0.dtd"
   xmlns:inkscape="http://www.inkscape.org/namespaces/inkscape"
   id="svg12"
   version="1.1"
   inkscape:version="0.91 r13725"
   width="125"
   height="144"
   viewBox="0 0 125 144"
   sodipodi:docname="clearScreen.svg">
  <metadata
     id="metadata18">
    <rdf:RDF>
      <cc:Work
         rdf:about="">
        <dc:format>image/svg+xml</dc:format>
        <dc:type
           rdf:resource="http://purl.org/dc/dcmitype/StillImage" />
        <dc:title></dc:title>
      </cc:Work>
    </rdf:RDF>
  </metadata>
  <defs
     id="defs16" />
  <sodipodi:namedview
     pagecolor="#ffffff"
     bordercolor="#666666"
     borderopacity="1"
     objecttolerance="10"
     gridtolerance="10"
     guidetolerance="10"
     inkscape:pageopacity="0"
     inkscape:pageshadow="2"
     inkscape:window-width="640"
     inkscape:window-height="480"
     id="namedview14"
     showgrid="false"
     inkscape:zoom="18.541911"
     inkscape:cx="90.078573"
     inkscape:cy="92.079906"
     inkscape:window-x="1792"
     inkscape:window-y="246"
     inkscape:window-maximized="0"
     inkscape:current-layer="svg12" />
  <path
     style="fill:#0c0c0c"
     d="M 0.49198453,136.75 C -0.4439451,129.21293 0.33615787,21.328752 1.3337909,20.332575 1.7923758,19.874659 29.107524,19.5 62.034119,19.5 c 47.775351,0 60.129031,0.262453 61.166211,1.299472 1.57656,1.576324 2.4374,68.652869 1.29556,100.950528 L 123.77998,142 62.461948,142 1.1439126,142 0.49198453,136.75 Z M 118.7361,136.69247 C 120.37768,135.05089 120.5,131.18978 120.5,81.014286 120.5,38.127042 120.23427,26.834112 119.20077,25.8 118.17772,24.776343 107.2303,24.434143 67.70077,24.190187 40.090347,24.01979 15.137961,24.164613 12.251024,24.512015 7.6507789,25.065591 6.9092281,25.474657 6.2510243,27.821828 5.8379609,29.294823 5.5,53.990139 5.5,82.70031 c 0,41.40983 0.2678674,52.46897 1.2958429,53.5 2.095728,2.10195 14.9029621,2.5859 63.9402541,2.41614 42.713833,-0.14788 46.370473,-0.29445 48.000003,-1.92398 z M 47.155989,105.50007 C 36.493512,103.12554 30.345551,101.1004 27.977083,99.182526 25.813302,97.430403 25.770942,97.118556 26.991358,91.925863 27.692727,88.941638 29.386366,83.670221 30.755,80.211601 33.062429,74.380589 34.016472,73.30725 43.871712,65.454728 49.717271,60.797067 57.475904,54.933375 61.113121,52.424302 l 6.61312,-4.561951 6.38688,1.123353 c 12.984189,2.283719 21.93435,5.157113 23.498284,7.543977 1.328402,2.027397 1.316552,2.959652 -0.107468,8.455125 C 94.070661,78.234252 92.377602,80.622883 78.882243,91.256999 57.692502,107.95416 57.852728,107.88223 47.155989,105.50007 Z m 8.896309,-6.59779 C 57.746711,95.736241 61.06454,85.731207 60.580539,85.247205 59.540287,84.206953 37.430801,79.169199 36.776631,79.823369 35.721561,80.878439 32,91.9904 32,94.085592 c 0,1.282044 1.480783,2.202966 5.351602,3.328244 13.969288,4.060984 17.186857,4.317074 18.700696,1.488444 z M 73.774599,88.789958 c 5.184334,-3.965523 10.718357,-8.77782 12.29783,-10.693994 2.796865,-3.393083 6.495914,-12.12002 5.116873,-12.071924 -0.379116,0.01322 -5.736708,4.051563 -11.90576,8.97409 C 71.967639,80.835775 67.404535,85.261263 66.161853,87.72409 63.724718,92.554159 62.660905,96 63.606881,96 c 0.40791,0 4.983383,-3.244519 10.167718,-7.210042 z M 70.644907,74.384613 C 79.985632,67.70719 89,60.16748 89,59.032227 89,58.044248 74.381109,54 70.809826,54 66.907439,54 41.498828,72.832161 43.159974,74.493307 c 0.675179,0.675179 16.428278,5.307281 18.484933,5.435382 0.629699,0.03922 4.679699,-2.455613 9,-5.544076 z M 19.395019,14.485928 C 17.450336,12.541245 16.951049,11.143248 17.190474,8.3132278 17.624765,3.1798647 20,2.6755189 20,7.7166667 20,12.307514 21.391201,14 25.164816,14 28.353653,14 30,11.638932 30,7.0657415 30,3.5238401 31.430026,3.0664775 33.048556,6.0907276 35.357565,10.40515 30.183601,17 24.489729,17 23.06653,17 20.781507,15.872416 19.395019,14.485928 Z m 72.846855,1.479904 C 88.967522,14.650081 87.377331,10.662025 88.843738,7.4436118 90.246982,4.3638268 92.405307,5.2489914 91.57351,8.563136 90.960647,11.004977 94.090244,15 96.615981,15 c 2.248181,0 5.408389,-5.0547201 4.764399,-7.6205993 -0.7979,-3.179076 1.32583,-3.1183037 2.78291,0.079635 1.37771,3.0237463 -0.8971,7.1090623 -4.780689,8.5855993 -2.991216,1.137258 -4.146181,1.124512 -7.140727,-0.0788 z M 22,10 C 21.286515,8.6668419 21.270844,8 21.952999,8 22.51585,8 23.264196,6.2 23.615991,4 24.357573,-0.6376004 26,-1.3757449 26,2.9285714 c 0,1.6107143 0.625871,3.5544421 1.390824,4.3193951 0.958697,0.9586974 1.098607,1.9129845 0.45031,3.0714285 C 26.556874,12.614239 23.303903,12.436365 22,10 Z M 95.534474,8.5 C 95.160216,7.4 94.397436,5.6554888 93.839408,4.6233084 93.081536,3.2214771 93.226522,2.344907 94.412406,1.1590227 95.83115,-0.2597218 96.161259,-0.2673125 97.516223,1.0876518 98.844437,2.4158659 98.857764,3.093428 97.623695,6.5519375 96.434251,9.8853846 96.109011,10.18865 95.534474,8.5 Z"
     id="path3491"
     inkscape:connector-curvature="0" />
</svg>
