<?xml version="1.0" encoding="UTF-8" standalone="no"?>
<!-- Created with Inkscape (http://www.inkscape.org/) -->

<svg
   xmlns:dc="http://purl.org/dc/elements/1.1/"
   xmlns:cc="http://creativecommons.org/ns#"
   xmlns:rdf="http://www.w3.org/1999/02/22-rdf-syntax-ns#"
   xmlns:svg="http://www.w3.org/2000/svg"
   xmlns="http://www.w3.org/2000/svg"
   xmlns:sodipodi="http://sodipodi.sourceforge.net/DTD/sodipodi-0.dtd"
   xmlns:inkscape="http://www.inkscape.org/namespaces/inkscape"
   id="svg32"
   version="1.1"
   inkscape:version="0.91 r13725"
   width="125"
   height="144"
   viewBox="0 0 125 144"
   sodipodi:docname="code and ev.svg">
  <metadata
     id="metadata38">
    <rdf:RDF>
      <cc:Work
         rdf:about="">
        <dc:format>image/svg+xml</dc:format>
        <dc:type
           rdf:resource="http://purl.org/dc/dcmitype/StillImage" />
        <dc:title></dc:title>
      </cc:Work>
    </rdf:RDF>
  </metadata>
  <defs
     id="defs36" />
  <sodipodi:namedview
     pagecolor="#ffffff"
     bordercolor="#666666"
     borderopacity="1"
     objecttolerance="10"
     gridtolerance="10"
     guidetolerance="10"
     inkscape:pageopacity="0"
     inkscape:pageshadow="2"
     inkscape:window-width="640"
     inkscape:window-height="469"
     id="namedview34"
     showgrid="false"
     inkscape:zoom="1.6388889"
     inkscape:cx="62.5"
     inkscape:cy="72"
     inkscape:window-x="1648"
     inkscape:window-y="266"
     inkscape:window-maximized="0"
     inkscape:current-layer="svg32" />
  <path
     style="fill:#0e0e0e"
     d="M 1.2274689,83.082874 C 1.377361,49.578455 1.8746392,21.790955 2.3325315,21.332874 3.3465979,20.31839 105.18031,19.594826 116.75,20.519897 L 125,21.179538 125,82.589769 125,144 62.977469,144 0.95493772,144 1.2274689,83.082874 Z M 119.2228,140.54811 c 0.94754,-0.40767 1.98027,-2.16026 2.29496,-3.89466 0.3147,-1.7344 0.43944,-26.86872 0.2772,-55.854042 -0.23284,-41.60094 -0.5688,-52.974271 -1.59515,-54 C 118.29027,24.891014 9.7088051,24.89104 7.79983,26.799435 5.9061305,28.692559 5.4083693,134.33522 7.2758814,138 c 1.1625042,2.28128 2.015421,2.55457 9.7490386,3.12372 11.53368,0.84882 100.04581,0.35029 102.19788,-0.57561 z M 86.246168,53.75 c 0.253079,-0.6875 1.891755,-5.572732 3.641502,-10.856071 3.24152,-9.78773 5.406161,-13.933431 6.634075,-12.705518 0.789095,0.789096 -5.051189,19.193723 -7.1594,22.561589 -1.481267,2.366324 -3.905522,3.144282 -3.116177,1 z M 76.448727,50.05538 C 69.776375,47.679712 65,45.166369 65,44.031024 c 0,-0.504689 0.990966,-1.611716 2.202147,-2.46006 2.803082,-1.963355 14.737639,-5.964511 15.504232,-5.197918 1.166099,1.166099 -1.986589,3.559292 -6.791096,5.155092 -5.542414,1.840895 -5.574303,2.791179 -0.151355,4.510357 C 80.325403,47.484569 84,49.708474 84,51.023053 c 0,1.343811 -1.654767,1.131758 -7.551273,-0.967673 z m 25.027263,0.905775 c -0.6638,-1.074055 2.77236,-3.307903 7.77401,-5.05388 2.0625,-0.719979 3.75,-1.594977 3.75,-1.94444 0,-0.349464 -2.7,-1.800379 -6,-3.224255 -6.57231,-2.835806 -8.217049,-5.431278 -2.75,-4.339624 4.41578,0.881737 15.75,6.261632 15.75,7.475884 0,2.175708 -17.43647,8.845988 -18.52401,7.086315 z M 93.364551,16.83062 c -3.347855,-1.621088 -4.922194,-5.311312 -3.550397,-8.3220768 1.525386,-3.3478584 3.269627,-3.1911412 3.005892,0.2700744 -0.248312,3.2587954 0.560805,4.8196564 3.242338,6.2547694 2.860803,1.531055 7.244566,-2.962222 6.353556,-6.5122816 -0.82898,-3.3029192 1.24933,-3.3498733 2.74735,-0.062069 1.37771,3.0237456 -0.8971,7.1090616 -4.78069,8.5855986 -3.055947,1.161869 -4.251903,1.125399 -7.018049,-0.214015 z M 96.69461,10.361277 C 96.312575,9.9792412 96,8.7066667 96,7.5333333 96,6.36 95.530928,4.9309283 94.957618,4.3576184 93.546199,2.9461989 96.434669,0.56908457 98.566902,1.387299 c 1.220982,0.468535 1.430415,1.3692401 0.897967,3.8618756 -0.885538,4.1456136 -1.887597,5.9947644 -2.770259,5.1121024 z"
     id="path3465"
     inkscape:connector-curvature="0" />
</svg>
