<?xml version="1.0" encoding="UTF-8" standalone="no"?>
<!-- Created with Inkscape (http://www.inkscape.org/) -->

<svg
   xmlns:dc="http://purl.org/dc/elements/1.1/"
   xmlns:cc="http://creativecommons.org/ns#"
   xmlns:rdf="http://www.w3.org/1999/02/22-rdf-syntax-ns#"
   xmlns:svg="http://www.w3.org/2000/svg"
   xmlns="http://www.w3.org/2000/svg"
   xmlns:sodipodi="http://sodipodi.sourceforge.net/DTD/sodipodi-0.dtd"
   xmlns:inkscape="http://www.inkscape.org/namespaces/inkscape"
   id="svg52"
   version="1.1"
   inkscape:version="0.91 r13725"
   width="125"
   height="144"
   viewBox="0 0 125 144"
   sodipodi:docname="const data1.svg">
  <metadata
     id="metadata58">
    <rdf:RDF>
      <cc:Work
         rdf:about="">
        <dc:format>image/svg+xml</dc:format>
        <dc:type
           rdf:resource="http://purl.org/dc/dcmitype/StillImage" />
        <dc:title></dc:title>
      </cc:Work>
    </rdf:RDF>
  </metadata>
  <defs
     id="defs56" />
  <sodipodi:namedview
     pagecolor="#ffffff"
     bordercolor="#666666"
     borderopacity="1"
     objecttolerance="10"
     gridtolerance="10"
     guidetolerance="10"
     inkscape:pageopacity="0"
     inkscape:pageshadow="2"
     inkscape:window-width="640"
     inkscape:window-height="480"
     id="namedview54"
     showgrid="false"
     inkscape:zoom="1.6388889"
     inkscape:cx="61.655799"
     inkscape:cy="72.194342"
     inkscape:window-x="1985"
     inkscape:window-y="294"
     inkscape:window-maximized="0"
     inkscape:current-layer="svg52" />
  <path
     style="fill:#101010"
     d="M 0.47167564,120.885 C -0.54169689,90.152788 0.48316867,22.918836 1.9880069,21.409561 3.3396396,20.053943 122.92614,19.768487 124.27051,21.11767 c 0.46031,0.461956 0.9635,28.261326 1.1182,61.776379 l 0.28128,60.936461 -62.220852,0 -62.2208506,0 L 0.47167564,120.885 Z M 121.79218,141.00645 c 1.03987,-1.0444 1.30549,-12.88816 1.30549,-58.210284 0,-53.27835 -0.11418,-57.013716 -1.79442,-58.700167 -1.68026,-1.686451 -5.40187,-1.80106 -58.484116,-1.80106 -45.153812,0 -56.9555069,0.266624 -57.9960227,1.310249 -1.0266014,1.029668 -1.378399,11.828826 -1.6428175,50.429697 -0.1850594,27.015695 -0.031611,53.293605 0.3409975,58.395355 l 0.6774691,9.27591 4.18097,0.40935 c 2.2995326,0.22513 28.4643176,0.36272 58.1439646,0.30573 42.829315,-0.0822 54.232345,-0.37414 55.268485,-1.41478 z M 45.937097,100.84517 c -0.394761,-0.39622 -0.717746,-1.987263 -0.717746,-3.535656 0,-2.813765 -0.0041,-2.815409 -7.787832,-3.109828 l -7.787833,-0.29458 0.01693,-5.620324 c 0.01471,-4.882186 0.571099,-6.474029 4.236423,-12.120569 2.320717,-3.575133 5.765559,-8.194396 7.655204,-10.265028 3.010059,-3.29836 4.006453,-3.764786 8.042446,-3.764786 l 4.60673,0 0.282149,12.311366 c 0.279708,12.204796 0.303896,12.316456 2.794354,12.899458 1.800585,0.421508 2.602588,1.365751 2.831285,3.333433 0.27285,2.347571 -0.119553,2.833391 -2.708303,3.353059 -2.49928,0.501695 -3.080823,1.159459 -3.333726,3.770628 -0.273368,2.822477 -0.688767,3.195227 -3.859343,3.463067 -1.954151,0.16509 -3.875987,-0.024 -4.270746,-0.42024 z M 45.219351,79.725269 c 0,-4.850371 -0.367351,-7.396105 -1.009759,-6.997608 -0.859237,0.533 -7.094182,9.370878 -9.425807,13.360844 -0.552861,0.946079 0.657481,1.260743 4.849412,1.260743 l 5.586154,0 0,-7.623979 z M 67.326746,97.96394 c 0,-2.779554 0.772871,-4.189578 3.731649,-6.808006 C 84.518625,79.244062 85.526392,78.045003 85.21259,74.315043 84.735056,68.638915 79.327984,67.792478 69.021052,71.780378 67.406149,72.405207 67.234249,71.983712 67.51373,68.084465 l 0.315457,-4.401171 6.029289,-1.346513 c 8.053812,-1.798647 13.759402,-0.855787 18.130271,2.996064 2.92072,2.5739 3.474683,3.733239 3.474683,7.271855 0,4.918867 -1.320698,7.142643 -8.906518,14.996696 l -5.601352,5.799413 7.253934,0 7.253936,0 0,4.034376 0,4.034375 -14.068342,0 -14.068342,0 0,-3.50562 z M 18.484496,14.211994 C 16.530319,12.250599 16.028595,10.840587 16.269189,7.9862465 16.684481,3.0593186 19.09243,2.2266224 19.09243,7.0099377 c 0,4.1187173 2.149429,6.7119523 5.56327,6.7119523 2.797979,0 4.485546,-2.608855 4.485546,-6.9343261 0,-4.0098659 1.756164,-4.9610053 3.016526,-1.6337538 1.427152,3.7675624 1.347546,4.0696483 -2.115743,8.0286879 -3.851744,4.403101 -7.842202,4.758554 -11.557533,1.029496 z m 4.054817,-3.96686 C 20.889942,9.0177254 20.787685,8.492829 21.855854,6.7368457 22.54671,5.6011347 23.111956,3.758023 23.111956,2.6410426 c 0,-1.1169805 0.452197,-2.03087308 1.004882,-2.03087308 0.552685,0 1.004881,0.80674628 1.004881,1.79276928 0,0.9860236 0.663945,2.7441844 1.475432,3.9070246 1.319292,1.8905115 1.285276,2.2869767 -0.321423,3.7463916 -1.572492,1.428342 -2.039033,1.451914 -3.736415,0.188779 z"
     id="path3388"
     inkscape:connector-curvature="0" />
</svg>
