<?xml version="1.0" encoding="UTF-8" standalone="no"?>
<!-- Created with Inkscape (http://www.inkscape.org/) -->

<svg
   xmlns:dc="http://purl.org/dc/elements/1.1/"
   xmlns:cc="http://creativecommons.org/ns#"
   xmlns:rdf="http://www.w3.org/1999/02/22-rdf-syntax-ns#"
   xmlns:svg="http://www.w3.org/2000/svg"
   xmlns="http://www.w3.org/2000/svg"
   xmlns:sodipodi="http://sodipodi.sourceforge.net/DTD/sodipodi-0.dtd"
   xmlns:inkscape="http://www.inkscape.org/namespaces/inkscape"
   id="svg32"
   version="1.1"
   inkscape:version="0.91 r13725"
   width="125"
   height="127"
   viewBox="0 0 125 127"
   sodipodi:docname="detectByCamera.svg">
  <metadata
     id="metadata38">
    <rdf:RDF>
      <cc:Work
         rdf:about="">
        <dc:format>image/svg+xml</dc:format>
        <dc:type
           rdf:resource="http://purl.org/dc/dcmitype/StillImage" />
        <dc:title></dc:title>
      </cc:Work>
    </rdf:RDF>
  </metadata>
  <defs
     id="defs36" />
  <sodipodi:namedview
     pagecolor="#ffffff"
     bordercolor="#666666"
     borderopacity="1"
     objecttolerance="10"
     gridtolerance="10"
     guidetolerance="10"
     inkscape:pageopacity="0"
     inkscape:pageshadow="2"
     inkscape:window-width="640"
     inkscape:window-height="480"
     id="namedview34"
     showgrid="false"
     inkscape:zoom="3.7165354"
     inkscape:cx="63.236589"
     inkscape:cy="69.676329"
     inkscape:window-x="1857"
     inkscape:window-y="308"
     inkscape:window-maximized="0"
     inkscape:current-layer="svg32" />
  <g
     id="g3368"
     transform="matrix(0.99784746,0,0,0.99364407,0.53813516,0.53813563)">
    <path
       style="fill:#fafafa"
       d="M 0,63.5 0,0 62.5,0 125,0 125,63.5 125,127 62.5,127 0,127 0,63.5 Z"
       id="path3372"
       inkscape:connector-curvature="0" />
    <path
       style="fill:#070707"
       d="M 4.3146426,124.34807 C 1.3082716,123.90906 1.0930478,123.59122 0.48438239,118.69146 0.12968587,115.83616 -0.01190329,88.884658 0.16973981,58.799241 0.43059508,15.593969 0.77323827,3.8254437 1.800192,2.7992411 c 1.0365359,-1.0357778 13.000702,-1.2978943 59,-1.2925995 31.734894,0.00365 58.892748,0.3385437 60.350798,0.7442018 2.61798,0.7283763 2.66017,0.8839402 3.38873,12.4933586 0.84694,13.495661 0.0578,107.991588 -0.90989,108.959298 -0.73595,0.73596 -114.4813239,1.35043 -119.3151874,0.64457 z M 119.58115,118.55887 C 120.51943,117.27521 121,113.97285 121,108.80887 L 121,101 l -3,0 -3,0 0,-39.475 0,-39.475 3.04876,0.609752 3.04876,0.609753 -0.29876,-6.875258 C 120.34052,5.8489576 124.2236,6.5 61.785495,6.5 12.51793,6.5 8.9542379,6.6167365 7.2854947,8.285266 5.6170925,9.9534544 5.5,13.494767 5.5,62.285266 c 0,28.718104 0.3385981,53.422454 0.7524402,54.898544 0.5323211,1.89869 1.5562119,2.81049 3.5,3.11684 1.5111578,0.23817 26.5215778,0.38045 55.5787108,0.31619 51.071669,-0.11295 52.878399,-0.18149 54.249999,-2.05797 z M 7.3626089,80.777696 C 6.302293,79.062069 5.6074954,52.297068 6.4485325,45.565635 6.9467788,41.577806 7.6878397,39.702247 9.0541649,38.971012 11.137298,37.856153 65.529739,37.498578 68.350995,38.581195 c 0.905892,0.347623 2.013438,2.045876 2.461212,3.773894 C 71.658982,45.622902 75,47.392608 75,44.573324 75,43.291562 76.301587,43 82.023614,43 L 89.047228,43 88.773614,60.25 88.5,77.5 82.507747,77.171393 C 79.212009,76.990659 75.955239,76.377815 75.270482,75.809517 73.478027,74.321911 71,75.58913 71,77.993366 71,79.28036 70.040469,80.414315 68.4349,81.024751 64.46395,82.534504 8.3079788,82.307337 7.3626089,80.777696 Z M 91.5,61 c 0.339919,-0.55 1.491476,-1 2.559017,-1 C 95.126558,60 96,60.45 96,61 96,61.55 94.848442,62 93.440983,62 91.989616,62 91.149477,61.567158 91.5,61 Z m 7.5,0 c 0,-0.55 0.873442,-1 1.94098,-1 1.06754,0 2.2191,0.45 2.55902,1 0.35052,0.567158 -0.48962,1 -1.94098,1 C 100.15156,62 99,61.55 99,61 Z m 9,0 c 0,-0.55 0.9,-1 2,-1 1.1,0 2,0.45 2,1 0,0.55 -0.9,1 -2,1 -1.1,0 -2,-0.45 -2,-1 z"
       id="path3370"
       inkscape:connector-curvature="0" />
  </g>
</svg>
