<?xml version="1.0" encoding="UTF-8" standalone="no"?>
<!-- Created with Inkscape (http://www.inkscape.org/) -->

<svg
   xmlns:dc="http://purl.org/dc/elements/1.1/"
   xmlns:cc="http://creativecommons.org/ns#"
   xmlns:rdf="http://www.w3.org/1999/02/22-rdf-syntax-ns#"
   xmlns:svg="http://www.w3.org/2000/svg"
   xmlns="http://www.w3.org/2000/svg"
   xmlns:sodipodi="http://sodipodi.sourceforge.net/DTD/sodipodi-0.dtd"
   xmlns:inkscape="http://www.inkscape.org/namespaces/inkscape"
   id="svg12"
   version="1.1"
   inkscape:version="0.91 r13725"
   width="125"
   height="144"
   viewBox="0 0 125 144"
   sodipodi:docname="diod.svg">
  <metadata
     id="metadata18">
    <rdf:RDF>
      <cc:Work
         rdf:about="">
        <dc:format>image/svg+xml</dc:format>
        <dc:type
           rdf:resource="http://purl.org/dc/dcmitype/StillImage" />
        <dc:title></dc:title>
      </cc:Work>
    </rdf:RDF>
  </metadata>
  <defs
     id="defs16" />
  <sodipodi:namedview
     pagecolor="#ffffff"
     bordercolor="#666666"
     borderopacity="1"
     objecttolerance="10"
     gridtolerance="10"
     guidetolerance="10"
     inkscape:pageopacity="0"
     inkscape:pageshadow="2"
     inkscape:window-width="640"
     inkscape:window-height="480"
     id="namedview14"
     showgrid="false"
     inkscape:zoom="1.1588694"
     inkscape:cx="-52.456373"
     inkscape:cy="121.05319"
     inkscape:window-x="1784"
     inkscape:window-y="188"
     inkscape:window-maximized="0"
     inkscape:current-layer="svg12" />
  <path
     style="fill:#0c0c0c"
     d="M 1.1042074,139.71056 C 0.16370699,132.04387 0.94761947,22.304305 1.9501242,21.290996 2.4109486,20.825205 29.859488,20.444102 62.946869,20.444102 c 48.007531,0 60.422681,0.266982 61.464911,1.321774 1.57481,1.593816 2.45956,72.094312 1.30142,103.703914 l -0.71743,19.58106 -61.618218,0 -61.618233,0 z m 118.8215426,-0.0585 c 1.64959,-1.66981 1.77251,-5.59732 1.77251,-56.635733 0,-43.624816 -0.26703,-55.111961 -1.30557,-56.163857 C 119.36464,25.811218 108.36376,25.463133 68.641191,25.214981 40.89594,25.041654 15.821704,25.188972 12.920669,25.542344 8.29796,26.10544 7.5527878,26.521542 6.8913706,28.909079 6.4762895,30.407406 6.1366781,55.527431 6.1366781,84.731357 c 0,42.121993 0.2691761,53.371323 1.302171,54.420093 2.1059621,2.1381 14.9757399,2.63037 64.2524939,2.45769 42.922417,-0.15042 46.596917,-0.29952 48.234407,-1.95707 z M 56.488353,123.0979 c -0.33547,-0.88495 -0.609954,-9.35312 -0.609954,-18.81817 l 0,-17.209164 -4.051067,0 c -4.828635,0 -6.261076,-2.212992 -3.262735,-5.040611 1.542285,-1.454465 2.111149,-3.688611 2.535712,-9.958841 0.64201,-9.481481 2.495879,-13.716902 6.792509,-15.518436 3.548534,-1.487862 9.846932,-0.146934 12.07514,2.570795 0.69547,0.848259 1.667021,5.974784 2.158992,11.392278 0.592951,6.529433 1.433607,10.452994 2.493688,11.63872 2.53098,2.830984 1.000934,4.916095 -3.60742,4.916095 l -4.021051,0 -0.281247,12.886071 c -0.187008,8.568213 -0.667885,13.016013 -1.435114,13.273843 -0.800932,0.26917 -1.359456,-3.28347 -1.825993,-11.61457 -0.742097,-13.252039 -1.053098,-14.971337 -2.539893,-14.041185 -0.601584,0.376356 -1.01647,6.487055 -1.023042,15.068145 -0.01136,14.82149 -0.675301,22.06402 -2.022679,22.06402 -0.421237,0 -1.040366,-0.72404 -1.375846,-1.60899 z m 6.856379,-43.020974 c -0.680346,-0.278634 -2.845917,-0.241663 -3.823628,0.01624 -0.977721,0.2579 0.226096,1.672375 1.884153,1.693104 1.658058,0.02073 2.619811,-1.430715 1.939475,-1.709346 z M 60.339046,63.743613 c 0.966617,-1.081188 2.3933,-1.718824 3.170397,-1.416968 0.848402,0.329551 1.412906,-0.09652 1.412906,-1.066417 0,-0.888385 -1.13378,-1.903296 -2.519524,-2.255357 -4.382055,-1.113305 -10.16135,4.442738 -6.273205,6.030868 2.075054,0.847563 2.380227,0.753888 4.209426,-1.292126 z M 24.224575,65.70941 c -0.397593,-0.651201 2.856501,-1.017198 9.043949,-1.017198 6.187449,0 9.441542,0.365997 9.04395,1.017198 -0.34158,0.559459 -4.411357,1.017198 -9.04395,1.017198 -4.632592,0 -8.702369,-0.457739 -9.043949,-1.017198 z m 56.775907,0 c -1.033,-0.675761 1.436309,-0.990947 7.847153,-1.001622 5.984091,-0.01 9.130712,0.350916 8.733421,1.001622 -0.795686,1.303223 -14.588393,1.303223 -16.580574,0 z M 42.760431,52.639758 c -4.925918,-3.195014 -8.626491,-6.963591 -7.729522,-7.871555 1.28606,-1.301823 15.201312,8.301602 14.260862,9.84194 -0.864783,1.416387 -1.696726,1.165403 -6.53134,-1.970385 z m 31.205867,1.580896 c 0,-1.309723 7.492039,-7.512483 11.807379,-9.775492 1.866983,-0.979065 2.260988,-0.916152 2.260988,0.361028 0,1.693714 -10.788749,10.72957 -12.812262,10.730601 -0.690858,3.52e-4 -1.256105,-0.59191 -1.256105,-1.316137 z M 59.897932,42.907223 c 0,-6.032528 0.315111,-7.713751 1.445756,-7.713751 3.091734,0 2.864369,13.973187 -0.244438,15.022155 -0.861426,0.290662 -1.201318,-1.777112 -1.201318,-7.308404 z M 93.302143,16.849154 c -3.29034,-1.338379 -4.888306,-5.395022 -3.414735,-8.6687852 1.410103,-3.1327509 3.578963,-2.2323633 2.743101,1.1387777 -0.615853,2.4838355 2.52903,6.5475655 5.067094,6.5475655 2.259168,0 5.434807,-5.141652 4.787667,-7.7516586 -0.80179,-3.2337495 1.33231,-3.1719321 2.7965,0.081004 1.38444,3.0757476 -0.90148,7.2313236 -4.80404,8.7332536 -3.005814,1.156817 -4.166424,1.143852 -7.175587,-0.08016 z M 96.610821,9.2549247 C 96.234734,8.136007 95.468229,6.3614938 94.907474,5.311562 94.145903,3.8856221 94.291601,2.9939769 95.483272,1.7876978 c 1.425668,-1.44314399 1.75739,-1.45086523 3.118977,-0.072598 1.334696,1.3510566 1.348091,2.0402714 0.107995,5.55826 -1.195259,3.3907752 -1.522087,3.6992552 -2.099423,1.9815649 z"
     id="path3472"
     inkscape:connector-curvature="0"
     sodipodi:nodetypes="ssssscccscssssssssccsscsssssssscscsssssssssssssssssssssssssssssssssssssssssssssssssss" />
</svg>
