<?xml version="1.0" encoding="UTF-8" standalone="no"?>
<!-- Created with Inkscape (http://www.inkscape.org/) -->

<svg
   xmlns:dc="http://purl.org/dc/elements/1.1/"
   xmlns:cc="http://creativecommons.org/ns#"
   xmlns:rdf="http://www.w3.org/1999/02/22-rdf-syntax-ns#"
   xmlns:svg="http://www.w3.org/2000/svg"
   xmlns="http://www.w3.org/2000/svg"
   xmlns:sodipodi="http://sodipodi.sourceforge.net/DTD/sodipodi-0.dtd"
   xmlns:inkscape="http://www.inkscape.org/namespaces/inkscape"
   id="svg32"
   version="1.1"
   inkscape:version="0.91 r13725"
   width="125"
   height="128"
   viewBox="0 0 125 128"
   sodipodi:docname="div.svg">
  <metadata
     id="metadata38">
    <rdf:RDF>
      <cc:Work
         rdf:about="">
        <dc:format>image/svg+xml</dc:format>
        <dc:type
           rdf:resource="http://purl.org/dc/dcmitype/StillImage" />
        <dc:title></dc:title>
      </cc:Work>
    </rdf:RDF>
  </metadata>
  <defs
     id="defs36" />
  <sodipodi:namedview
     pagecolor="#ffffff"
     bordercolor="#666666"
     borderopacity="1"
     objecttolerance="10"
     gridtolerance="10"
     guidetolerance="10"
     inkscape:pageopacity="0"
     inkscape:pageshadow="2"
     inkscape:window-width="640"
     inkscape:window-height="480"
     id="namedview34"
     showgrid="false"
     inkscape:zoom="2.6074563"
     inkscape:cx="72.47078"
     inkscape:cy="90.392095"
     inkscape:window-x="1814"
     inkscape:window-y="208"
     inkscape:window-maximized="0"
     inkscape:current-layer="svg32" />
  <path
     style="fill:#0e0e0e"
     d="M 0.12660111,122.20347 C -0.77132663,114.76447 -0.05518425,2.9898864 0.89653372,2.0333663 1.97402,0.95044347 87.811175,0.18657252 105.94404,1.0985412 c 12.03004,0.6050352 15.239,1.089872 17.06743,2.5787015 l 2.25181,1.8335697 0.33508,42.4814866 c 0.1843,23.364818 0.0216,50.820049 -0.36172,61.011621 l -0.69681,18.53014 -61.884899,0 -61.88489915,0 -0.64343074,-5.33059 z M 119.26738,122.03148 c 1.89747,-1.39589 1.95903,-3.16896 1.95903,-56.433769 0,-53.587209 -0.051,-55.030071 -1.99305,-56.4588053 C 116.43808,7.0825251 8.5398989,7.4753359 6.4776983,9.5494004 5.4486819,10.584336 5.0948334,21.188806 4.8345155,58.793877 4.4526366,113.95946 4.8141688,121.15357 8.033982,122.46005 c 1.1981124,0.48614 26.274983,0.91286 55.726379,0.94825 44.727269,0.0538 53.870689,-0.17304 55.507019,-1.37682 z M 83.698325,101.67954 C 81.930269,100.90589 79.782904,98.909519 78.926403,97.243169 77.684382,94.826771 76.49641,94.080844 73.058086,93.55845 63.845112,92.158698 63.078792,91.815973 60.189459,87.803132 58.603382,85.600312 56.98882,81.873249 56.601546,79.52077 c -1.311909,-7.969116 -2.996958,-9.822615 -8.951281,-9.846111 -3.337987,-0.01317 -4.453141,0.58751 -7.297721,3.930953 -3.876947,4.556857 -7.411121,5.801418 -11.228734,3.954199 -7.082489,-3.426987 -9.72539,-15.156448 -5.003466,-22.205881 4.41802,-6.59573 10.837331,-6.487451 17.054316,0.287668 3.41759,3.724407 4.096919,4.044491 7.300523,3.43984 4.425424,-0.835258 7.355472,-4.477218 8.209,-10.203535 1.32285,-8.874994 6.716616,-13.721237 15.310403,-13.756242 4.421549,-0.01801 5.350503,-0.552239 7.177639,-4.127773 0.736451,-1.441164 2.622393,-3.383021 4.19098,-4.315238 7.857053,-4.669473 15.155781,1.359896 15.155781,12.519959 0,8.239444 -4.235328,14.219778 -10.064437,14.211105 -3.456398,-0.0052 -8.895085,-3.485924 -10.302507,-6.593647 -0.988178,-2.18199 -1.804589,-2.536149 -5.782426,-2.508416 -6.423786,0.04479 -8.11583,1.710571 -9.96143,9.80685 -1.891244,8.296508 -1.93615,11.120683 -0.303665,19.098335 1.617705,7.905419 3.308958,10.41618 7.556361,11.217839 4.507143,0.850682 7.539917,-0.185987 8.821252,-3.015298 2.123193,-4.68821 10.271999,-7.189565 15.046661,-4.618717 4.695114,2.528015 6.490565,12.668029 3.512685,19.83838 -1.004253,2.418115 -2.610165,4.03378 -5.013678,5.04414 -4.23388,1.77978 -4.262901,1.77978 -8.329477,3.6e-4 z M 92.27273,89.239438 c 0.267142,-2.780777 -0.0716,-3.362333 -2.283847,-3.920946 -3.14995,-0.79539 -5.598955,0.995798 -5.598955,4.095043 0,3.059762 0.912508,3.74698 4.505211,3.392909 2.636251,-0.259809 3.10771,-0.757708 3.377591,-3.567006 z M 34.320158,68.345106 c 2.308094,-1.697973 1.853523,-7.679467 -0.702569,-9.244774 -1.457255,-0.892398 -2.118527,-0.720389 -3.27996,0.853179 -1.787649,2.421996 -1.914103,8.334532 -0.193196,9.033152 1.975707,0.802059 2.276125,0.755903 4.175725,-0.641557 z M 91.817243,42.044401 c 1.428242,-2.29268 -0.312612,-7.279566 -2.702865,-7.742683 -3.930904,-0.761622 -5.958525,3.725845 -3.646947,8.071308 1.273514,2.394041 4.766315,2.213277 6.349812,-0.328625 z"
     id="path3430"
     inkscape:connector-curvature="0" />
</svg>
