<?xml version="1.0" encoding="UTF-8" standalone="no"?>
<!-- Created with Inkscape (http://www.inkscape.org/) -->

<svg
   xmlns:dc="http://purl.org/dc/elements/1.1/"
   xmlns:cc="http://creativecommons.org/ns#"
   xmlns:rdf="http://www.w3.org/1999/02/22-rdf-syntax-ns#"
   xmlns:svg="http://www.w3.org/2000/svg"
   xmlns="http://www.w3.org/2000/svg"
   xmlns:sodipodi="http://sodipodi.sourceforge.net/DTD/sodipodi-0.dtd"
   xmlns:inkscape="http://www.inkscape.org/namespaces/inkscape"
   id="svg52"
   version="1.1"
   inkscape:version="0.91 r13725"
   width="125.065"
   height="144.70308"
   viewBox="0 0 125.065 144.70308"
   sodipodi:docname="encoders.svg">
  <metadata
     id="metadata58">
    <rdf:RDF>
      <cc:Work
         rdf:about="">
        <dc:format>image/svg+xml</dc:format>
        <dc:type
           rdf:resource="http://purl.org/dc/dcmitype/StillImage" />
        <dc:title></dc:title>
      </cc:Work>
    </rdf:RDF>
  </metadata>
  <defs
     id="defs56" />
  <sodipodi:namedview
     pagecolor="#ffffff"
     bordercolor="#666666"
     borderopacity="1"
     objecttolerance="10"
     gridtolerance="10"
     guidetolerance="10"
     inkscape:pageopacity="0"
     inkscape:pageshadow="2"
     inkscape:window-width="1366"
     inkscape:window-height="744"
     id="namedview54"
     showgrid="false"
     inkscape:zoom="3.776"
     inkscape:cx="11.95027"
     inkscape:cy="99.537322"
     inkscape:window-x="0"
     inkscape:window-y="0"
     inkscape:window-maximized="1"
     inkscape:current-layer="svg52"
     fit-margin-bottom="0"
     fit-margin-top="0"
     fit-margin-left="0"
     fit-margin-right="0" />
  <g
     id="g3388"
     transform="translate(-0.87180208,19.849272)">
    <path
       sodipodi:nodetypes="ssssscccssssssssssssssssssssssssssssscsssssscsscsssscssssssssssssssssssssssssssssssssssss"
       inkscape:connector-curvature="0"
       id="path3421"
       d="M 1.0279915,116.41175 C 0.65232467,111.76863 0.4991832,84.16284 0.6876627,55.065549 0.95766607,13.382768 1.3066391,1.879361 2.3328944,0.83179 4.1443589,-1.0172895 122.00795,-1.1338921 123.81409,0.71160899 125.46202,2.3954536 126.20164,48.985654 125.25285,91.341446 l -0.75071,33.512364 -61.39556,0 -61.3955669,0 z m 118.8984585,3.53032 c 1.91144,-1.95403 1.91076,-112.0402239 -7e-4,-113.9932123 C 118.88937,4.8899547 107.5056,4.6185956 64.120014,4.6185956 13.131998,4.6185956 9.5008547,4.736464 7.8274168,6.4458782 6.1548002,8.1544404 6.0385793,11.817451 6.0385793,62.824741 c 0,59.539359 -0.2114272,57.428339 5.8340507,58.249919 1.749413,0.23775 26.48441,0.37948 54.96666,0.31497 41.03496,-0.0929 52.05604,-0.39346 53.08716,-1.44756 z M 62.264628,88.561321 C 46.928024,82.139645 37.868177,71.700236 32.628363,54.412263 c -1.622905,-5.354544 -2.721359,-10.1147 -2.440998,-10.578129 0.28036,-0.463428 3.840466,-0.842596 7.911361,-0.842596 6.506764,0 7.72828,-0.309284 10.10359,-2.558196 1.486091,-1.407009 3.086909,-2.558196 3.557362,-2.558196 1.579524,0 0.874767,-2.214113 -1.269315,-3.987786 -1.996097,-1.651249 -2.02208,-1.862475 -0.429275,-3.489679 0.932482,-0.952622 2.489589,-1.732041 3.460223,-1.732041 2.756616,0 3.259722,-1.193842 1.391745,-3.302513 -2.432845,-2.746327 -0.573242,-5.395355 3.787499,-5.395355 3.035345,0 3.345704,-0.281386 3.385891,-3.069834 0.04277,-2.966383 0.187707,-3.060591 4.301233,-2.79545 3.96531,0.255586 4.25699,0.09564 4.25699,-2.334492 0,-3.2606287 2.647657,-4.4582466 4.410682,-1.9950896 1.500855,2.0968746 4.604121,1.4032556 4.604121,-1.0290813 0,-2.3715943 3.559074,-1.8756992 5.277626,0.7353441 1.472798,2.2376828 1.598344,2.2531728 4.468037,0.5512688 3.222902,-1.9113826 5.279009,-0.9745404 5.279009,2.405317 0,1.442107 0.807745,1.743057 4.25699,1.586083 l 4.256996,-0.193736 -0.33349,3.470537 c -0.32287,3.360238 -0.2381,3.451052 2.66716,2.857448 3.8577,-0.788204 5.82872,1.263524 4.2002,4.372176 -1.3305,2.539768 -0.59044,4.137377 1.91657,4.137377 1.00184,0 2.36876,0.673604 3.03759,1.496899 0.98901,1.217437 0.71021,1.975824 -1.49342,4.06218 l -2.70946,2.565279 2.56261,1.192816 c 4.58708,2.135155 4.53401,5.359736 -0.11791,7.166597 l -2.59611,1.008357 2.6934,2.55141 c 3.49623,3.311903 3.50976,4.903341 -0.56193,5.336213 -3.52583,0.374839 -5.20892,0.748351 -2.71521,4.962288 1.27122,2.148154 1.16954,4.744844 -3.01918,4.060575 l -4.29522,-0.701668 0.60362,3.083302 c 0.68389,3.493334 -1.78061,5.784542 -4.400596,4.091159 -2.32006,-1.499526 -2.990951,-1.15575 -4.102697,2.102287 -1.113839,3.264166 -2.736964,3.801429 -5.725051,1.895038 -1.500975,-0.957619 -2.239147,-0.76845 -3.992997,1.023277 -2.818378,2.879255 -3.990522,2.772966 -5.197925,-0.471338 -1.409685,-3.787816 -3.229503,-1.899042 -6.439885,6.683891 -4.015554,10.735532 -3.962457,10.697651 -10.913571,7.787119 z m 8.146006,-11.719905 c 0.582907,-6.197438 -0.874355,-8.8292 -3.955986,-7.14434 -2.934929,1.604647 -4.824783,0.375493 -4.824783,-3.138019 0,-2.735094 -0.340879,-3.10195 -2.882283,-3.10195 -3.769679,0 -5.644047,-2.224796 -4.198734,-4.98371 1.529031,-2.918727 1.409985,-3.18831 -1.933785,-4.37913 -3.517838,-1.25281 -3.797616,-2.791577 -0.959026,-5.274548 1.125248,-0.984279 1.811505,-2.177063 1.525014,-2.65063 -0.430235,-0.711171 -14.484094,-0.357278 -15.361023,0.38681 -0.149155,0.126557 0.237901,2.714796 0.860122,5.75164 2.53289,12.362261 10.437549,22.624125 22.563612,29.292174 7.08256,3.894658 8.418223,3.201357 9.166872,-4.758297 z M 90.730832,49.07679 c 1.455119,-1.486545 1.950022,-3.407283 1.950022,-7.568094 0,-5.120589 -0.273569,-5.789127 -3.349891,-8.186228 -2.38727,-1.860182 -4.583987,-2.610271 -7.644473,-2.610271 -3.629019,0 -4.818833,0.56787 -7.677286,3.664173 -1.860486,2.015296 -3.162644,4.027927 -2.893683,4.472512 0.268963,0.444586 2.778654,1.033094 5.577089,1.307796 6.75361,0.662952 7.418442,1.48046 6.148977,7.561102 -0.565729,2.709849 -0.811452,5.285945 -0.546047,5.724657 0.603732,0.997954 5.835543,-1.70975 8.435292,-4.365647 z m -12.318238,0.821877 c 0.550935,-0.703504 1.312605,-2.315167 1.692609,-3.581475 0.653474,-2.177608 0.415853,-2.302376 -4.38481,-2.302376 -2.791643,0 -5.075724,0.320161 -5.075724,0.711466 0,0.94137 5.18824,6.451483 6.074625,6.451483 0.380374,0 1.142366,-0.575593 1.6933,-1.279098 z"
       style="fill:#000000" />
    <path
       sodipodi:nodetypes="sssssssssssssssssssssssssssss"
       inkscape:connector-curvature="0"
       id="path3395-3"
       d="m 21.998055,-5.4402265 c -1.944683,-1.944683 -2.44397,-3.34268 -2.204545,-6.1726995 0.434291,-5.133363 2.809526,-5.637709 2.809526,-0.596561 0,4.5908465 1.391201,6.2833325 5.164816,6.2833325 3.188837,0 4.835184,-2.361068 4.835184,-6.9342575 0,-3.541902 1.430026,-3.999264 3.048556,-0.975014 2.309009,4.3144215 -2.864955,10.9092715 -8.558827,10.9092715 -1.423199,0 -3.708222,-1.127584 -5.09471,-2.514072 z m 72.846855,1.479904 c -3.274352,-1.315751 -4.864543,-5.303807 -3.398136,-8.5222195 1.403244,-3.079785 3.561569,-2.19462 2.729772,1.119524 -0.612863,2.4418405 2.516735,6.4368635 5.042475,6.4368635 2.248179,0 5.408379,-5.05472 4.764389,-7.6205985 -0.7979,-3.179076 1.32583,-3.118304 2.78291,0.07964 1.37771,3.0237455 -0.8971,7.1090615 -4.78068,8.5855985 -2.991219,1.137258 -4.146189,1.124512 -7.14073,-0.078808 z m -70.241874,-5.965832 c -0.713485,-1.3331575 -0.729156,-1.9999995 -0.047,-1.9999995 0.562851,0 1.311197,-1.8 1.662992,-4 0.741582,-4.6376 2.384009,-5.375745 2.384009,-1.071428 0,1.610714 0.625871,3.554442 1.390824,4.319395 0.958697,0.958697 1.098607,1.912984 0.45031,3.0714275 -1.28426,2.294844 -4.537231,2.11697 -5.841135,-0.319395 z m 73.534475,-1.4999995 c -0.37426,-1.1 -1.13704,-2.844511 -1.69507,-3.876691 -0.75787,-1.401832 -0.61288,-2.278402 0.573,-3.464286 1.41874,-1.418744 1.74885,-1.426335 3.103819,-0.07137 1.32821,1.328214 1.34154,2.005776 0.10747,5.464286 -1.189439,3.333447 -1.514679,3.6367115 -2.089219,1.948061 z"
       style="fill:#0c0c0c" />
  </g>
</svg>
