<?xml version="1.0" encoding="UTF-8" standalone="no"?>
<!-- Created with Inkscape (http://www.inkscape.org/) -->

<svg
   xmlns:dc="http://purl.org/dc/elements/1.1/"
   xmlns:cc="http://creativecommons.org/ns#"
   xmlns:rdf="http://www.w3.org/1999/02/22-rdf-syntax-ns#"
   xmlns:svg="http://www.w3.org/2000/svg"
   xmlns="http://www.w3.org/2000/svg"
   xmlns:sodipodi="http://sodipodi.sourceforge.net/DTD/sodipodi-0.dtd"
   xmlns:inkscape="http://www.inkscape.org/namespaces/inkscape"
   id="svg52"
   version="1.1"
   inkscape:version="0.91 r13725"
   width="125"
   height="125"
   viewBox="0 0 125 125"
   sodipodi:docname="encoders.svg">
  <metadata
     id="metadata58">
    <rdf:RDF>
      <cc:Work
         rdf:about="">
        <dc:format>image/svg+xml</dc:format>
        <dc:type
           rdf:resource="http://purl.org/dc/dcmitype/StillImage" />
        <dc:title></dc:title>
      </cc:Work>
    </rdf:RDF>
  </metadata>
  <defs
     id="defs56" />
  <sodipodi:namedview
     pagecolor="#ffffff"
     bordercolor="#666666"
     borderopacity="1"
     objecttolerance="10"
     gridtolerance="10"
     guidetolerance="10"
     inkscape:pageopacity="0"
     inkscape:pageshadow="2"
     inkscape:window-width="640"
     inkscape:window-height="480"
     id="namedview54"
     showgrid="false"
     inkscape:zoom="2.6700352"
     inkscape:cx="77.452905"
     inkscape:cy="94.617503"
     inkscape:window-x="1859"
     inkscape:window-y="331"
     inkscape:window-maximized="0"
     inkscape:current-layer="svg52" />
  <path
     style="fill:#000000"
     d="M 0.76246912,114.48517 C 0.38742442,109.94767 0.23452832,82.969871 0.42270002,54.53451 0.69226192,13.799967 1.0406554,2.5582497 2.0652296,1.5345097 3.8737174,-0.27250532 121.54377,-0.38645532 123.34694,1.4170627 c 1.64523,1.645539 2.38364,47.1758633 1.4364,88.5681083 l -0.74948,32.749999 -61.294743,0 -61.2947483,0 z m 118.70322088,3.45 c 1.9083,-1.90957 1.90762,-109.4914403 -7e-4,-111.4000003 -1.03468,-1.034814 -12.39975,-1.3 -55.714101,-1.3 -50.904294,0 -54.5294647,0.115187 -56.2001627,1.785714 -1.669864,1.669694 -1.785896,5.2493763 -1.785896,55.0963063 0,58.18491 -0.211083,56.12191 5.8244717,56.9248 1.746541,0.23234 26.440918,0.37085 54.876394,0.30781 40.967584,-0.0908 51.970564,-0.38451 52.999994,-1.41463 z M 61.898549,87.268291 C 46.58713,80.992701 37.54216,70.790777 32.31095,53.896086 30.690706,48.663353 29.59406,44.011484 29.873958,43.558598 c 0.279899,-0.452885 3.834164,-0.823428 7.898368,-0.823428 6.49608,0 7.715593,-0.302248 10.087006,-2.5 1.483649,-1.375 3.081834,-2.5 3.551522,-2.5 1.576928,0 0.87333,-2.163744 -1.267234,-3.897068 -1.992817,-1.613685 -2.018758,-1.820106 -0.428572,-3.410292 0.930952,-0.930952 2.485497,-1.69264 3.454545,-1.69264 2.752085,0 3.254367,-1.166683 1.389458,-3.227384 -2.42885,-2.68385 -0.572304,-5.272616 3.781282,-5.272616 3.030356,0 3.340203,-0.274986 3.380326,-3 0.04268,-2.898901 0.187396,-2.990964 4.294172,-2.731856 3.958799,0.249771 4.25,0.09346 4.25,-2.281385 0,-3.1864533 2.643306,-4.3568263 4.403437,-1.949704 1.498393,2.049175 4.596563,1.371334 4.596563,-1.0056703 0,-2.317643 3.553231,-1.833029 5.268954,0.718615 1.470388,2.1867793 1.595726,2.2019163 4.460701,0.5387293 3.21761,-1.8679013 5.270345,-0.9523713 5.270345,2.350599 0,1.4093 0.806419,1.703404 4.249999,1.55 l 4.25,-0.189328 -0.33293,3.391586 c -0.32235,3.283796 -0.23772,3.372545 2.66278,2.792444 3.85137,-0.770273 5.81915,1.23478 4.1933,4.272714 -1.32832,2.481991 -0.58947,4.043256 1.91342,4.043256 1.0002,0 2.36487,0.658281 3.0326,1.462847 0.98739,1.189742 0.70904,1.930875 -1.49096,3.969769 l -2.70502,2.506922 2.5584,1.165681 c 4.57955,2.086583 4.52658,5.237807 -0.11771,7.003565 l -2.59185,0.985418 2.68898,2.493368 c 3.49049,3.236561 3.504,4.791795 -0.56101,5.21482 -3.52004,0.366313 -5.20037,0.731328 -2.71075,4.849401 1.26914,2.099287 1.16762,4.636905 -3.01422,3.968202 l -4.28817,-0.685706 0.60263,3.01316 c 0.68277,3.413865 -1.77769,5.65295 -4.39337,3.99809 -2.31625,-1.465414 -2.98604,-1.129458 -4.095964,2.054463 -1.112008,3.18991 -2.732469,3.714951 -5.71565,1.851927 -1.498508,-0.935834 -2.235464,-0.750968 -3.986432,1 -2.813754,2.813754 -3.983975,2.709884 -5.189397,-0.460617 -1.407364,-3.701648 -3.224198,-1.855841 -6.429309,6.531841 -4.008954,10.49131 -3.955953,10.45429 -10.895649,7.60997 z m 8.132633,-11.45329 c 0.581949,-6.056453 -0.872927,-8.628345 -3.949497,-6.981814 -2.930102,1.568143 -4.816854,0.36695 -4.816854,-3.066632 0,-2.672874 -0.340318,-3.031385 -2.877555,-3.031385 -3.763483,0 -5.634776,-2.174184 -4.191839,-4.870336 1.52652,-2.852329 1.40767,-3.115779 -1.930606,-4.279509 -3.512059,-1.22431 -3.791381,-2.728072 -0.95745,-5.154559 1.123402,-0.961887 1.80853,-2.127536 1.522507,-2.590331 -0.429528,-0.694992 -14.46031,-0.349149 -15.335797,0.378011 -0.148907,0.123678 0.23751,2.653037 0.858705,5.620797 2.528732,12.081033 10.420413,22.109451 22.526562,28.625808 7.070936,3.80606 8.404401,3.12853 9.151824,-4.65005 z m 20.28683,-27.133012 c 1.452728,-1.452728 1.946819,-3.32977 1.946819,-7.395928 0,-5.004101 -0.273123,-5.65743 -3.344391,-8 -2.383346,-1.817866 -4.576457,-2.550891 -7.631923,-2.550891 -3.623054,0 -4.810919,0.554952 -7.664678,3.580818 -1.85743,1.96945 -3.157449,3.936295 -2.88893,4.370767 0.268518,0.434472 2.774088,1.009592 5.567932,1.278045 6.742517,0.647871 7.406254,1.446781 6.138881,7.389096 -0.564806,2.648203 -0.810126,5.165695 -0.545155,5.594427 0.602738,0.975251 5.825966,-1.670855 8.421445,-4.266334 z M 78.019997,49.48517 c 0.550031,-0.6875 1.310456,-2.2625 1.689833,-3.5 0.652397,-2.12807 0.415169,-2.25 -4.377611,-2.25 -2.787064,0 -5.067388,0.312877 -5.067388,0.695281 0,0.919955 5.179722,6.304719 6.064646,6.304719 0.379756,0 1.14049,-0.5625 1.69052,-1.25 z"
     id="path3421"
     inkscape:connector-curvature="0"
     sodipodi:nodetypes="ssssscccssssssssssssssssssssssssssssscsssssscsscsssscssssssssssssssssssssssssssssssssssss" />
</svg>
