<?xml version="1.0" encoding="UTF-8" standalone="no"?>
<!-- Created with Inkscape (http://www.inkscape.org/) -->

<svg
   xmlns:dc="http://purl.org/dc/elements/1.1/"
   xmlns:cc="http://creativecommons.org/ns#"
   xmlns:rdf="http://www.w3.org/1999/02/22-rdf-syntax-ns#"
   xmlns:svg="http://www.w3.org/2000/svg"
   xmlns="http://www.w3.org/2000/svg"
   xmlns:sodipodi="http://sodipodi.sourceforge.net/DTD/sodipodi-0.dtd"
   xmlns:inkscape="http://www.inkscape.org/namespaces/inkscape"
   id="svg412"
   version="1.1"
   inkscape:version="0.91 r13725"
   width="125"
   height="124"
   viewBox="0 0 125 124"
   sodipodi:docname="exit1.svg">
  <metadata
     id="metadata418">
    <rdf:RDF>
      <cc:Work
         rdf:about="">
        <dc:format>image/svg+xml</dc:format>
        <dc:type
           rdf:resource="http://purl.org/dc/dcmitype/StillImage" />
        <dc:title></dc:title>
      </cc:Work>
    </rdf:RDF>
  </metadata>
  <defs
     id="defs416" />
  <sodipodi:namedview
     pagecolor="#ffffff"
     bordercolor="#666666"
     borderopacity="1"
     objecttolerance="10"
     gridtolerance="10"
     guidetolerance="10"
     inkscape:pageopacity="0"
     inkscape:pageshadow="2"
     inkscape:window-width="640"
     inkscape:window-height="480"
     id="namedview414"
     showgrid="false"
     inkscape:zoom="1.3457839"
     inkscape:cx="-1.9763716"
     inkscape:cy="79.33709"
     inkscape:window-x="1766"
     inkscape:window-y="176"
     inkscape:window-maximized="0"
     inkscape:current-layer="svg412" />
  <path
     style="fill:#0f0f0f"
     d="m 6.1161194,123.3281 c -3.777695,-0.30358 -4.756874,-0.78811 -5.23634497,-2.59113 -0.797927,-3.00054 -0.7687,-64.867414 0.04523,-95.739098 L 1.5829614,0.04203521 l 61.2200126,0 61.220016,0 0.74258,60.89924179 c 0.40841,33.494584 0.43579,61.399753 0.0608,62.011483 -0.48611,0.7931 -16.94828,1.06009 -57.372714,0.93048 C 36.273625,123.78332 8.6717174,123.53347 6.1160914,123.3281 Z M 115.00057,118.42499 c 1.93509,-0.29684 3.74567,-1.39204 4.5,-2.72199 0.9704,-1.71095 1.26215,-13.99545 1.26215,-53.145331 0,-28.005997 -0.33641,-52.128969 -0.74758,-53.6066045 -0.69821,-2.509186 -1.25956,-2.7422523 -8.5,-3.5291084 C 102.21252,4.410992 16.312676,4.4226499 11.109262,5.4355785 9.0809194,5.8304292 7.1471794,6.9194828 6.7619634,7.8839114 6.3803454,8.8393318 5.8511414,24.367671 5.5859554,42.391331 c -0.552889,37.577682 0.641775,72.966859 2.527392,74.868159 0.816483,0.82327 6.6395966,1.42165 17.4376016,1.7919 18.001864,0.61724 84.372071,0.15245 89.449621,-0.62641 z M 50.884444,102.31141 C 47.158813,101.1092 44.18226,98.898172 38.286866,92.953745 31.662079,86.273862 30.269766,84.246216 28.467354,78.653456 24.283655,65.671715 24.700486,56.287395 29.941275,45.470367 c 4.854071,-10.01884 15.049332,-18.67729 19.8192,-16.831697 2.788843,1.07908 1.528795,4.524797 -4.362,11.928292 -8.547941,10.74297 -10.140137,14.397021 -10.113802,23.210933 0.02804,9.38593 2.206252,14.351641 9.403093,21.436441 11.76478,11.581626 27.64966,11.313313 39.4123,-0.665715 6.11494,-6.227435 8.51804,-12.007368 8.51427,-20.478477 -0.004,-8.472138 -1.3381,-11.868221 -8.21239,-20.901967 -6.946565,-9.128734 -7.961992,-11.470861 -5.882317,-13.567832 5.768597,-5.816568 22.003721,15.0863 23.396281,30.122922 0.65862,7.111655 -1.19338,16.162541 -4.742564,23.17737 -3.06706,6.061926 -11.59748,14.752264 -17.408596,17.734953 -6.422753,3.2966 -21.200182,4.15409 -28.880306,1.67582 z M 61.363599,65.684345 c -2.393461,-2.413366 -3.634491,-16.804232 -2.809301,-32.576401 0.622239,-11.893103 2.046927,-16.258957 5.466168,-16.75068 3.657079,-0.525927 4.319562,3.417938 4.33329,25.796739 0.01047,17.061834 -0.257741,21.014166 -1.562258,23.021669 -1.900418,2.924526 -2.935747,3.021552 -5.427899,0.508673 z"
     id="path3762"
     inkscape:connector-curvature="0" />
</svg>
