<?xml version="1.0" encoding="UTF-8" standalone="no"?>
<!-- Created with Inkscape (http://www.inkscape.org/) -->

<svg
   xmlns:dc="http://purl.org/dc/elements/1.1/"
   xmlns:cc="http://creativecommons.org/ns#"
   xmlns:rdf="http://www.w3.org/1999/02/22-rdf-syntax-ns#"
   xmlns:svg="http://www.w3.org/2000/svg"
   xmlns="http://www.w3.org/2000/svg"
   xmlns:sodipodi="http://sodipodi.sourceforge.net/DTD/sodipodi-0.dtd"
   xmlns:inkscape="http://www.inkscape.org/namespaces/inkscape"
   id="svg32"
   version="1.1"
   inkscape:version="0.91 r13725"
   width="125"
   height="144"
   viewBox="0 0 125 144"
   sodipodi:docname="fork.svg">
  <metadata
     id="metadata38">
    <rdf:RDF>
      <cc:Work
         rdf:about="">
        <dc:format>image/svg+xml</dc:format>
        <dc:type
           rdf:resource="http://purl.org/dc/dcmitype/StillImage" />
        <dc:title></dc:title>
      </cc:Work>
    </rdf:RDF>
  </metadata>
  <defs
     id="defs36" />
  <sodipodi:namedview
     pagecolor="#ffffff"
     bordercolor="#666666"
     borderopacity="1"
     objecttolerance="10"
     gridtolerance="10"
     guidetolerance="10"
     inkscape:pageopacity="0"
     inkscape:pageshadow="2"
     inkscape:window-width="640"
     inkscape:window-height="480"
     id="namedview34"
     showgrid="false"
     inkscape:zoom="1.6388889"
     inkscape:cx="-21.310192"
     inkscape:cy="71.99194"
     inkscape:window-x="1944"
     inkscape:window-y="330"
     inkscape:window-maximized="0"
     inkscape:current-layer="svg32" />
  <path
     style="fill:#000000"
     d="M 1.1078081,134.36016 C 0.73276332,129.82266 0.57986722,102.84486 0.76803902,74.40951 1.0376575,33.666412 1.3858643,22.433465 2.4109701,21.40951 4.2412152,19.58132 121.89187,19.490753 123.71658,21.31613 c 1.65633,1.656949 2.36907,46.439636 1.40922,88.54403 l -0.7466,32.75 -61.294744,0 -61.2947483,0 -0.6818996,-8.25 z M 121.27345,140.28102 C 123.99123,137.5606 123.87221,27.718366 121.14744,23.992026 120.03735,22.473893 115.97702,22.257221 80.512144,21.823599 58.841058,21.558632 33.112386,21.676014 23.337317,22.084448 6.5935229,22.784059 5.4967367,22.951054 4.3947629,24.968613 3.0606977,27.411099 2.6357151,130.37272 3.9331723,136.79933 c 0.6459108,3.19935 1.1718093,3.74551 3.9608985,4.11348 6.0227432,0.7946 112.5473892,0.20101 113.3793792,-0.63179 z m -70.25634,-27.0265 0.629521,-3.35564 -6.183727,-0.64632 C 35.014901,108.16052 29.091475,103.56462 24.58644,93.054814 c -1.128125,-2.63181 -3.609291,-6.5098 -5.513703,-8.61776 -3.91269,-4.330878 -4.099399,-5.047195 -1.891138,-7.255455 1.193525,-1.193526 3.715141,-1.571429 10.485604,-1.571429 l 8.914177,0 3.141053,-6.25 c 5.953277,-11.8457 7.976887,-13.586376 19.350668,-16.645136 5.680758,-1.52773 6.055564,-1.814819 6.350427,-4.864209 0.172348,-1.78236 0.67711,-3.240655 1.121695,-3.240655 0.693987,0 15.654119,9.383973 17.064947,10.70425 0.719892,0.673688 -3.474304,3.89184 -10.240477,7.857386 -7.013282,4.110372 -7.759523,4.197597 -7.759523,0.906979 0,-3.235868 -2.158707,-4.037248 -6.982326,-2.592057 -7.465235,2.236639 -13.199309,12.304058 -7.767674,13.637847 1.2375,0.303879 11.25,0.424953 22.25,0.269052 l 20,-0.283457 0.313358,-3.25 c 0.172348,-1.7875 0.513959,-3.25 0.759137,-3.25 1.58097,0 17.416735,11.208409 16.935615,11.986873 -0.32787,0.53051 -4.28883,3.240741 -8.80212,6.022741 l -8.20599,5.05817 -0.310365,-3.53389 -0.310366,-3.5339 -29.248505,0 c -34.672639,0 -34.240953,-0.11106 -30.241799,7.78089 2.911923,5.7464 4.704956,7.01609 12.478797,8.836486 l 5.367762,1.25697 -0.62958,-3.937166 c -0.346268,-2.16545 -0.314562,-3.93718 0.07046,-3.93718 1.506561,0 17.323596,10.532756 17.323596,11.535996 0,1.23578 -14.890251,10.464 -16.884257,10.464 -0.976948,0 -1.16834,-0.90609 -0.708803,-3.35564 z M 19.005189,14.096098 c -1.944683,-1.944683 -2.44397,-3.34268 -2.204545,-6.1726998 0.434291,-5.133364 2.809526,-5.637709 2.809526,-0.596562 0,4.6099048 1.391499,6.2833338 5.224751,6.2833338 2.141542,0 3.070501,-0.646372 3.840814,-2.672449 0.558835,-1.4698468 0.814331,-3.1981538 0.567769,-3.8406838 -0.649796,-1.69334 0.950459,-3.862131 2.254863,-3.055966 0.611491,0.377923 1.111803,2.195573 1.111803,4.039222 0,2.5154898 -0.767875,3.9982138 -3.076725,5.9409828 -3.88056,3.265276 -7.313405,3.289673 -10.528256,0.07482 z m 2.912345,-4.5785648 c -0.790182,-0.790182 -0.708844,-1.828225 0.293839,-3.75 0.762561,-1.46155 1.389248,-3.294863 1.392636,-4.07403 0.0034,-0.77916696 0.314563,-1.10826396 0.691499,-0.73132896 1.154338,1.15433796 3.237072,7.96452096 2.70102,8.83187196 -0.724711,1.1726078 -3.797145,1.0053368 -5.078994,-0.276513 z"
     id="path3465"
     inkscape:connector-curvature="0" />
</svg>
