<?xml version="1.0" encoding="UTF-8" standalone="no"?>
<!-- Created with Inkscape (http://www.inkscape.org/) -->

<svg
   xmlns:dc="http://purl.org/dc/elements/1.1/"
   xmlns:cc="http://creativecommons.org/ns#"
   xmlns:rdf="http://www.w3.org/1999/02/22-rdf-syntax-ns#"
   xmlns:svg="http://www.w3.org/2000/svg"
   xmlns="http://www.w3.org/2000/svg"
   xmlns:sodipodi="http://sodipodi.sourceforge.net/DTD/sodipodi-0.dtd"
   xmlns:inkscape="http://www.inkscape.org/namespaces/inkscape"
   id="svg22"
   version="1.1"
   inkscape:version="0.91 r13725"
   width="125"
   height="144"
   viewBox="0 0 125 144"
   sodipodi:docname="getsetvar.svg">
  <metadata
     id="metadata28">
    <rdf:RDF>
      <cc:Work
         rdf:about="">
        <dc:format>image/svg+xml</dc:format>
        <dc:type
           rdf:resource="http://purl.org/dc/dcmitype/StillImage" />
        <dc:title></dc:title>
      </cc:Work>
    </rdf:RDF>
  </metadata>
  <defs
     id="defs26" />
  <sodipodi:namedview
     pagecolor="#ffffff"
     bordercolor="#666666"
     borderopacity="1"
     objecttolerance="10"
     gridtolerance="10"
     guidetolerance="10"
     inkscape:pageopacity="0"
     inkscape:pageshadow="2"
     inkscape:window-width="640"
     inkscape:window-height="408"
     id="namedview24"
     showgrid="false"
     inkscape:zoom="1.1588694"
     inkscape:cx="78.6167"
     inkscape:cy="85.098175"
     inkscape:window-x="1758"
     inkscape:window-y="321"
     inkscape:window-maximized="0"
     inkscape:current-layer="svg22" />
  <path
     style="fill:#000000"
     d="M 1.1078081,133.75 C 0.73276336,129.2125 0.57986726,102.2347 0.76803902,73.79934 1.0376575,33.056242 1.3858643,21.823295 2.4109701,20.79934 4.2412152,18.97115 121.89187,18.880583 123.71658,20.70596 c 1.65633,1.656949 2.36907,46.439636 1.40922,88.54404 l -0.7466,32.75 -61.294745,0 -61.2947473,0 -0.6818996,-8.25 z m 118.2172619,2.96408 c 1.66931,-1.67008 1.7851,-5.28308 1.7851,-55.700188 0,-42.904107 -0.26548,-54.179707 -1.3,-55.214078 C 117.90064,23.890557 9.319433,23.890736 7.4101695,25.8 5.472487,27.737682 5.5058128,133.96441 7.4448365,136.30079 c 1.8646716,2.24679 6.4462175,2.41712 61.8802335,2.30058 44.87675,-0.0943 48.33849,-0.22502 50,-1.88729 z M 35.184562,72.75 C 31.492385,67.105287 30.305341,62.42204 30.305341,53.5 c 0,-10.107651 1.798611,-15.88717 5.288899,-16.994944 3.098483,-0.983421 3.423586,-0.181087 2.083332,5.141542 -1.850654,7.349612 -1.453214,18.959155 0.88052,25.720729 1.113798,3.227029 1.779602,6.264529 1.479565,6.75 C 39.05333,75.710002 36.684058,75.042476 35.184562,72.75 Z m 47.425607,0.946669 c 0,-0.793338 0.972508,-3.637136 2.161128,-6.319551 2.73379,-6.169472 2.970087,-19.572568 0.463371,-26.283107 -0.90522,-2.423294 -1.469148,-4.582695 -1.253175,-4.798668 1.245586,-1.245586 5.908505,1.345106 7.314424,4.063854 3.644844,7.048351 2.526035,24.054482 -2.028203,30.829125 -2.328814,3.46422 -6.657545,5.095145 -6.657545,2.508347 z M 46.166873,67.777494 C 45.310686,66.555115 44.610169,65.005632 44.610169,64.334198 44.610169,62.397078 48.770577,60 52.132675,60 57.602283,60 59.016719,56.302112 56.161196,49.467881 54.893472,46.433792 54.26803,46 51.161196,46 c -4.132684,0 -4.550637,-1.298924 -1.13754,-3.535271 1.580181,-1.035375 4.07223,-1.474922 7.217667,-1.273053 4.189635,0.268884 5.000193,0.69208 6.336513,3.308324 0.842783,1.65 1.617507,3.160174 1.721608,3.355942 0.104102,0.195768 1.946925,-1.491732 4.095164,-3.75 4.301564,-4.521883 5.319314,-4.859332 7.644132,-2.534513 1.998528,1.998527 1.995702,4.377824 -0.0086,7.239363 -1.23488,1.763038 -2.381709,2.193919 -5.25,1.972506 -3.567821,-0.275413 -3.678512,-0.180593 -3.976753,3.406562 -0.382626,4.602119 2.108427,9.594128 5.41485,10.851228 2.895376,1.10082 2.349746,2.644253 -1.444804,4.086938 -4.422965,1.681608 -8.773274,0.239063 -11.220532,-3.720685 L 58.374478,61.882579 56.0419,65.315276 c -3.543278,5.214402 -7.292542,6.149235 -9.875029,2.462218 z M 26.064714,14.545455 c -2.55593,-2.555931 -3.204368,-6.8565783 -1.439232,-9.5454553 0.818246,-1.246455 1.132999,-1.270002 1.862119,-0.139302 0.482588,0.748384 0.667134,2.16488 0.410103,3.147768 -0.63431,2.4256063 1.217148,5.6287433 3.616105,6.2560843 3.403341,0.889994 6.09636,-1.902371 6.09636,-6.3212543 0,-4.774392 2.500734,-5.492923 3.487118,-1.001947 1.720875,7.8350923 -8.346292,13.2903863 -14.032573,7.6041063 z m 65.787329,1.420377 C 88.412992,14.583899 86.971797,10.629454 88.675564,7.2499997 l 1.386425,-2.75 0.335479,3.767171 c 0.236877,2.6599523 1.052217,4.2367953 2.77409,5.3650103 2.238326,1.466607 2.643937,1.463304 4.938611,-0.04022 2.558531,-1.676415 2.856721,-2.421193 2.539131,-6.3419573 -0.20833,-2.571839 1.44346,-3.040742 2.35388,-0.668212 1.43954,3.7513743 0.59108,6.4573113 -2.64301,8.4291723 -3.545578,2.161781 -5.076938,2.333646 -8.508127,0.954872 z M 30.051299,10.567321 C 28.49548,9.4190257 28.358292,8.8830807 29.360169,7.8673207 c 0.6875,-0.697026 1.25,-2.500763 1.25,-4.008304 0,-1.50754 0.45,-3.01909797 1,-3.35901697 0.55,-0.339918 1.002772,0.196024 1.006161,1.19098297 0.0034,0.99496 0.649838,3.042925 1.436555,4.551034 1.251308,2.398715 1.241594,2.930816 -0.07759,4.2499993 -1.826886,1.826887 -1.557784,1.821722 -3.923996,0.07531 z m 64.55887,-2.8673213 c 0,-1.265 -0.543214,-2.843214 -1.207143,-3.507143 -0.942857,-0.942857 -0.83339,-1.580896 0.5,-2.914285 1.609524,-1.60952397 1.804762,-1.60952397 3.414286,0 1.33339,1.333389 1.442857,1.971428 0.5,2.914285 -0.663929,0.663929 -1.207143,2.242143 -1.207143,3.507143 0,1.265 -0.45,2.3 -1,2.3 -0.55,0 -1,-1.035 -1,-2.3 z"
     id="path3507"
     inkscape:connector-curvature="0" />
</svg>
