<?xml version="1.0" encoding="UTF-8" standalone="no"?>
<!-- Created with Inkscape (http://www.inkscape.org/) -->

<svg
   xmlns:dc="http://purl.org/dc/elements/1.1/"
   xmlns:cc="http://creativecommons.org/ns#"
   xmlns:rdf="http://www.w3.org/1999/02/22-rdf-syntax-ns#"
   xmlns:svg="http://www.w3.org/2000/svg"
   xmlns="http://www.w3.org/2000/svg"
   xmlns:sodipodi="http://sodipodi.sourceforge.net/DTD/sodipodi-0.dtd"
   xmlns:inkscape="http://www.inkscape.org/namespaces/inkscape"
   id="svg12"
   version="1.1"
   inkscape:version="0.91 r13725"
   width="125"
   height="125"
   viewBox="0 0 125 125"
   sodipodi:docname="inhibition.svg">
  <metadata
     id="metadata18">
    <rdf:RDF>
      <cc:Work
         rdf:about="">
        <dc:format>image/svg+xml</dc:format>
        <dc:type
           rdf:resource="http://purl.org/dc/dcmitype/StillImage" />
        <dc:title></dc:title>
      </cc:Work>
    </rdf:RDF>
  </metadata>
  <defs
     id="defs16" />
  <sodipodi:namedview
     pagecolor="#ffffff"
     bordercolor="#666666"
     borderopacity="1"
     objecttolerance="10"
     gridtolerance="10"
     guidetolerance="10"
     inkscape:pageopacity="0"
     inkscape:pageshadow="2"
     inkscape:window-width="640"
     inkscape:window-height="480"
     id="namedview14"
     showgrid="false"
     inkscape:zoom="1.888"
     inkscape:cx="37.853374"
     inkscape:cy="66.69762"
     inkscape:window-x="1823"
     inkscape:window-y="238"
     inkscape:window-maximized="0"
     inkscape:current-layer="svg12" />
  <path
     style="fill:#000000"
     d="M 0.49763862,114.75 C 0.12259392,110.2125 -0.03030218,83.234708 0.15786952,54.79934 0.42743142,14.064797 0.77582492,2.82308 1.8003991,1.79934 3.6088869,-0.00767503 121.27894,-0.12162403 123.08211,1.681893 c 1.64523,1.645539 2.38364,47.175863 1.4364,88.568105 L 123.76903,123 62.474286,123 1.1795382,123 0.49763862,114.75 Z M 119.20086,118.2 c 1.9083,-1.90957 1.90762,-109.49144 -7e-4,-111.4 C 118.16548,5.765186 106.80041,5.5 63.486058,5.5 12.581764,5.5 8.9565939,5.615187 7.2858962,7.285714 5.6160321,8.955408 5.5,12.53509 5.5,62.38202 c 0,58.18491 -0.2110833,56.12191 5.824471,56.9248 1.746541,0.23234 26.440918,0.37085 54.876394,0.30781 40.967585,-0.0908 51.970565,-0.38451 52.999995,-1.41463 z M 49.233326,82.386898 C 43.232702,80.186348 34.943856,72.228618 30.917377,64.802631 27.644684,58.76684 27.5,58.055453 27.5,48 c 0,-9.795581 0.201262,-10.863606 3,-15.919884 C 34.5254,24.807716 41.305784,18.22063 47.997648,15.081299 52.764284,12.845144 54.837093,12.5 63.5,12.5 c 9.237163,0 10.414431,0.228851 15.432764,3 7.178387,3.963942 14.085482,10.824788 17.114596,17 2.106675,4.294714 2.452645,6.410573 2.452645,15 0,8.73866 -0.33557,10.715829 -2.660412,15.675146 -3.558937,7.591882 -9.830916,14.184252 -16.685546,17.537912 -4.836895,2.36648 -7.037866,2.78809 -15.641507,2.99625 -7.114045,0.17213 -11.247685,-0.21069 -14.279214,-1.32241 z M 60,75.106968 C 60,70.863588 56.684464,57.381555 55.239687,55.75 53.071637,53.301668 48.782772,53.569648 42.966756,56.516846 36.469952,59.809026 36.428805,62.033616 42.75,68.235618 49.928391,75.278638 60,79.290558 60,75.106968 Z m 17.625821,-2.06566 C 83.186471,69.851988 89.507752,62.765563 88.6909,60.636882 88.080528,59.046277 78.566909,57 71.782192,57 c -4.62816,0 -4.960216,0.181824 -6.333219,3.467881 -1.715491,4.105749 -1.803311,6.716046 -0.396392,11.782117 0.927386,3.33936 1.39217,3.74897 4.244423,3.74062 1.761648,-0.005 5.509615,-1.33235 8.328817,-2.94931 z M 43.415831,49.917117 C 50.972583,45.841057 55,42.108583 55,39.181303 55,37.250671 45.530509,28 43.554209,28 41.655392,28 37.123687,33.992851 35.426753,38.747969 33.490767,44.172955 33.595873,54 35.589882,54 c 0.141102,0 3.662779,-1.837297 7.825949,-4.082883 z M 67,52 c 3.836433,-3.836433 1.821419,-9 -3.512131,-9 -4.415678,0 -7.040636,3.415912 -5.579061,7.260146 C 59.471351,54.369947 63.801381,55.198619 67,52 Z m 24.565673,0.893738 C 93.98306,48.982325 90.230596,35.083422 85.109006,28.978625 L 82.19063,25.5 78.095315,33.947103 c -4.318925,8.908327 -5.115936,13.960968 -2.539511,16.09921 1.712299,1.421082 9.685048,3.779912 13.135179,3.886193 1.205041,0.03712 2.498651,-0.430324 2.87469,-1.038768 z M 68.800431,35.919726 C 72.299718,34.699867 76.373775,27.659029 75.823738,23.781953 75.077481,18.521762 57.319766,17.275137 50,21.969079 c -2.323697,1.490115 10.817791,14.515649 15.100777,14.967535 0.330427,0.03486 1.995271,-0.422737 3.699654,-1.016888 z"
     id="path3486"
     inkscape:connector-curvature="0" />
</svg>
