<?xml version="1.0" encoding="UTF-8" standalone="no"?>
<!-- Created with Inkscape (http://www.inkscape.org/) -->

<svg
   xmlns:dc="http://purl.org/dc/elements/1.1/"
   xmlns:cc="http://creativecommons.org/ns#"
   xmlns:rdf="http://www.w3.org/1999/02/22-rdf-syntax-ns#"
   xmlns:svg="http://www.w3.org/2000/svg"
   xmlns="http://www.w3.org/2000/svg"
   xmlns:sodipodi="http://sodipodi.sourceforge.net/DTD/sodipodi-0.dtd"
   xmlns:inkscape="http://www.inkscape.org/namespaces/inkscape"
   id="svg52"
   version="1.1"
   inkscape:version="0.91 r13725"
   width="125"
   height="128"
   viewBox="0 0 125 128"
   sodipodi:docname="intersect.svg">
  <metadata
     id="metadata58">
    <rdf:RDF>
      <cc:Work
         rdf:about="">
        <dc:format>image/svg+xml</dc:format>
        <dc:type
           rdf:resource="http://purl.org/dc/dcmitype/StillImage" />
        <dc:title></dc:title>
      </cc:Work>
    </rdf:RDF>
  </metadata>
  <defs
     id="defs56" />
  <sodipodi:namedview
     pagecolor="#ffffff"
     bordercolor="#666666"
     borderopacity="1"
     objecttolerance="10"
     gridtolerance="10"
     guidetolerance="10"
     inkscape:pageopacity="0"
     inkscape:pageshadow="2"
     inkscape:window-width="640"
     inkscape:window-height="480"
     id="namedview54"
     showgrid="false"
     inkscape:zoom="1.84375"
     inkscape:cx="62.5"
     inkscape:cy="64"
     inkscape:window-x="1621"
     inkscape:window-y="240"
     inkscape:window-maximized="0"
     inkscape:current-layer="svg52" />
  <path
     style="fill:#0d0d0d"
     d="M 0.65020809,124.32147 C 0.30485756,122.20506 0.01728097,94.279092 0.01114901,62.263751 L 0,4.0540497 2.7422883,2.2346519 C 5.2888922,0.54508312 9.7285573,0.41525403 64.958963,0.41525403 c 32.710911,0 59.854247,0.38442943 60.318517,0.85428797 1.12489,1.1384267 1.74408,79.868274 0.83461,106.120638 l -0.71988,20.77931 -62.057042,0 -62.0570498,0 -0.62791011,-3.84802 z M 120.1031,122.60844 c 1.90463,-1.41072 1.96641,-3.20264 1.96641,-57.033394 0,-54.15659 -0.0512,-55.6147824 -2.00056,-57.0586978 C 117.26312,6.4381182 8.9579849,6.8351025 6.8880063,8.9312047 5.8551087,9.9771374 5.4999256,20.694283 5.2386259,58.69892 c -0.3833193,55.75172 -0.020424,63.02228 3.2115339,64.34264 1.2026313,0.49131 26.3740862,0.92256 55.9365642,0.95833 44.895976,0.0543 54.073876,-0.17488 55.716376,-1.39145 z M 33.748639,102.03182 c -4.169453,-1.826 -6.396964,-6.302487 -6.396964,-12.855592 0,-6.527211 2.231197,-11.042508 6.316323,-12.78241 4.429536,-1.886589 8.586073,-0.415048 13.257829,4.693676 3.619801,3.958373 4.147506,4.197063 8.093848,3.660895 5.382356,-0.731277 7.227827,-3.068195 8.839146,-11.193008 1.672878,-8.435215 1.636014,-11.210695 -0.260145,-19.585557 -1.852562,-8.182305 -3.550987,-9.865791 -9.999002,-9.911051 -3.992841,-0.02802 -4.812331,0.329895 -5.804236,2.535068 -1.412731,3.140744 -6.87193,6.65851 -10.341365,6.663708 -5.851095,0.0087 -10.102398,-6.035113 -10.102398,-14.362103 0,-11.278643 7.326257,-17.372076 15.212945,-12.652988 1.574504,0.942122 3.467558,2.904612 4.206787,4.361088 1.834028,3.613525 2.766485,4.153431 7.204711,4.171633 8.658652,0.03551 14.040051,4.931365 15.381688,13.993852 0.854061,5.769012 4.049891,9.523174 8.751934,10.280949 3.242274,0.52252 3.90532,0.228829 5.904759,-2.615473 4.648802,-6.613153 11.314294,-7.96179 16.436721,-3.325658 2.80757,2.541044 3.29049,3.734097 3.67157,9.070718 0.68201,9.55073 -3.64944,16.119596 -10.629127,16.119596 -3.019636,0 -4.313135,-0.750126 -7.431684,-4.309782 C 82.80219,70.268508 81.72665,69.6796 78.1909,69.6796 c -4.584947,0 -6.967947,1.807133 -7.875123,5.97205 -1.389954,6.381386 -2.834832,10.124417 -5.089224,13.18388 -2.346062,3.183882 -3.486385,3.645593 -12.360005,5.004549 -3.698114,0.566346 -4.624109,1.210258 -6.027573,4.191457 -1.056373,2.243914 -2.595739,3.731534 -4.241348,4.098774 -1.420727,0.31706 -3.266932,0.74256 -4.102677,0.94557 -0.835746,0.203 -2.971585,-0.26683 -4.746311,-1.04406 z m 7.266728,-10.764547 c 1.295439,-4.134405 -1.937286,-7.145382 -5.983152,-5.572743 -1.591853,0.618762 -2.255103,5.556909 -0.92704,6.902166 1.546493,1.566514 6.288665,0.654184 6.910192,-1.329423 z m 55.826974,-25.21118 c 0.81706,-3.297568 0.19839,-5.715496 -1.786333,-6.981458 -3.893667,-2.483586 -6.845361,5.406156 -3.34793,8.948861 1.976649,2.002235 4.378749,1.081773 5.134263,-1.967403 z M 40.705324,41.460792 c 2.402725,-5.34167 -3.541528,-10.793711 -6.226832,-5.711221 -2.196662,4.157632 -0.590329,8.276567 3.227756,8.276567 1.014839,0 2.364424,-1.154406 2.999076,-2.565346 z"
     id="path3388"
     inkscape:connector-curvature="0" />
</svg>
