<?xml version="1.0" encoding="UTF-8" standalone="no"?>
<!-- Created with Inkscape (http://www.inkscape.org/) -->

<svg
   xmlns:dc="http://purl.org/dc/elements/1.1/"
   xmlns:cc="http://creativecommons.org/ns#"
   xmlns:rdf="http://www.w3.org/1999/02/22-rdf-syntax-ns#"
   xmlns:svg="http://www.w3.org/2000/svg"
   xmlns="http://www.w3.org/2000/svg"
   xmlns:sodipodi="http://sodipodi.sourceforge.net/DTD/sodipodi-0.dtd"
   xmlns:inkscape="http://www.inkscape.org/namespaces/inkscape"
   id="svg2"
   version="1.1"
   inkscape:version="0.91 r13725"
   width="125"
   height="127"
   viewBox="0 0 125 127"
   sodipodi:docname="io_1.svg">
  <metadata
     id="metadata8">
    <rdf:RDF>
      <cc:Work
         rdf:about="">
        <dc:format>image/svg+xml</dc:format>
        <dc:type
           rdf:resource="http://purl.org/dc/dcmitype/StillImage" />
        <dc:title></dc:title>
      </cc:Work>
    </rdf:RDF>
  </metadata>
  <defs
     id="defs6" />
  <sodipodi:namedview
     pagecolor="#ffffff"
     bordercolor="#666666"
     borderopacity="1"
     objecttolerance="10"
     gridtolerance="10"
     guidetolerance="10"
     inkscape:pageopacity="0"
     inkscape:pageshadow="2"
     inkscape:window-width="640"
     inkscape:window-height="480"
     id="namedview4"
     showgrid="false"
     inkscape:zoom="1.8582677"
     inkscape:cx="76.344677"
     inkscape:cy="47.867002"
     inkscape:window-x="2051"
     inkscape:window-y="246"
     inkscape:window-maximized="0"
     inkscape:current-layer="svg2"
     showguides="false" />
  <path
     style="fill:#000000"
     d="M 6.9098634,126.27291 1.2793922,125.90686 0.63966131,119.64635 C -0.19178302,111.5097 -0.18138412,21.307187 0.65226101,10.354072 1.135046,4.010846 1.6888716,1.7791971 2.9035207,1.2825871 8.0639741,-0.82726865 121.8607,-0.07874096 123.97016,2.078935 c 1.17866,1.2055905 1.74365,54.876014 0.95077,90.315103 l -0.75191,33.606802 -10.66888,-0.21102 -10.6689,-0.211 8.76378,-0.3418 c 7.8297,-0.30538 8.89235,-0.58365 9.9701,-2.61093 C 122.92989,120.0589 123.3905,14.559215 122.06643,7.8053374 121.34928,4.1473265 121.15884,4.0062549 116.09139,3.3794249 108.4578,2.4351702 5.3329111,3.2196792 4.3464661,4.2295108 1.5923304,7.048938 1.7168073,119.69549 4.4783271,123.55842 c 1.1143346,1.55877 5.4248788,1.80311 42.7734419,2.4246 l 41.534222,0.69115 -38.122828,-0.0176 C 29.695607,126.64757 10.006622,126.47423 6.9098634,126.2729 Z M 55.769831,113.83356 53.327088,109.87555 41.724181,109.35182 C 34.685263,109.0341 29.531234,108.3272 28.621226,107.5547 27.796199,106.85434 26.384598,103.67617 25.484335,100.49211 22.629877,90.396418 22.52826,90.245266 18.359393,89.893651 14.743812,89.588706 14.530709,89.373243 14.235431,85.723985 l -0.311369,-3.848107 4.606593,0 c 4.882383,0 4.994389,-0.11769 5.994729,-6.298839 0.332315,-2.05338 1.625597,-5.285791 2.87396,-7.183134 2.250235,-3.420033 2.355699,-3.456195 12.265169,-4.205657 13.354447,-1.010001 13.991768,-1.222664 16.599883,-5.539137 2.318226,-5.633951 6.887969,-3.472043 12.259424,-3.169294 11.042721,0.622395 11.694842,1.020563 11.719334,7.155523 l 0.01536,3.848109 14.546869,0 14.546877,0 0,4.617729 0,4.617729 -14.546877,0 -14.546869,0 0,10.261619 0,10.26162 14.546869,0 14.546877,0 0,4.617734 0,4.61773 -14.546877,0 -14.546869,0 -0.0137,3.8481 c -0.03026,8.50344 0.02137,8.46584 -11.627896,8.46584 -7.894071,-0.25446 -8.911346,2.41912 -12.847087,-3.95799 z"
     id="path3528"
     inkscape:connector-curvature="0"
     sodipodi:nodetypes="ccssssscccsssssssccccccssssscssssccscccccccccccccccscc" />
</svg>
