<?xml version="1.0" encoding="UTF-8" standalone="no"?>
<!-- Created with Inkscape (http://www.inkscape.org/) -->

<svg
   xmlns:dc="http://purl.org/dc/elements/1.1/"
   xmlns:cc="http://creativecommons.org/ns#"
   xmlns:rdf="http://www.w3.org/1999/02/22-rdf-syntax-ns#"
   xmlns:svg="http://www.w3.org/2000/svg"
   xmlns="http://www.w3.org/2000/svg"
   xmlns:sodipodi="http://sodipodi.sourceforge.net/DTD/sodipodi-0.dtd"
   xmlns:inkscape="http://www.inkscape.org/namespaces/inkscape"
   id="svg62"
   version="1.1"
   inkscape:version="0.91 r13725"
   width="125"
   height="144"
   viewBox="0 0 125 144"
   sodipodi:docname="join.svg">
  <metadata
     id="metadata68">
    <rdf:RDF>
      <cc:Work
         rdf:about="">
        <dc:format>image/svg+xml</dc:format>
        <dc:type
           rdf:resource="http://purl.org/dc/dcmitype/StillImage" />
        <dc:title></dc:title>
      </cc:Work>
    </rdf:RDF>
  </metadata>
  <defs
     id="defs66" />
  <sodipodi:namedview
     pagecolor="#ffffff"
     bordercolor="#666666"
     borderopacity="1"
     objecttolerance="10"
     gridtolerance="10"
     guidetolerance="10"
     inkscape:pageopacity="0"
     inkscape:pageshadow="2"
     inkscape:window-width="640"
     inkscape:window-height="480"
     id="namedview64"
     showgrid="false"
     inkscape:zoom="1.6388889"
     inkscape:cx="-7.0144631"
     inkscape:cy="87.927382"
     inkscape:window-x="1969"
     inkscape:window-y="262"
     inkscape:window-maximized="0"
     inkscape:current-layer="svg62" />
  <path
     style="fill:#000000"
     d="M 0.28336347,135.56616 C -0.09297719,130.95969 -0.24640158,103.57183 -0.0575796,74.704257 0.21297049,33.341875 0.56238042,21.93819 1.5910282,20.898672 3.4275972,19.042694 121.48476,18.95075 123.31577,20.803872 c 1.66206,1.682134 2.37726,47.145506 1.41409,89.889888 l -0.74918,33.24779 -61.506526,0 -61.50653481,0 -0.68425572,-8.37539 z M 120.8642,141.57701 c 2.72717,-2.76177 2.60774,-114.27359 -0.12644,-118.056569 -1.11393,-1.541208 -5.18829,-1.761174 -40.775701,-2.201386 C 58.216094,21.05006 32.398524,21.169226 22.58968,21.583868 5.7880327,22.294113 4.6874568,22.463647 3.5816755,24.511872 2.2430008,26.991483 1.8165498,131.51811 3.11849,138.0424 c 0.6481425,3.24798 1.1758581,3.80244 3.9745842,4.17601 6.0435528,0.80667 112.9362658,0.20406 113.7711258,-0.6414 z M 41.126361,111.25212 c -1.570346,-1.58872 -1.53677,-4.34506 0.06936,-5.69363 0.700427,-0.58811 4.343462,-1.84945 8.095633,-2.803 7.50096,-1.90624 8.533402,-2.918073 11.769508,-11.534489 L 62.993505,86.075167 45.186264,86.064 c -20.607169,-0.01289 -25.018681,-0.543031 -26.4102,-3.173545 -1.03835,-1.962878 0.24744,-5.696293 2.481587,-7.205533 0.607254,-0.410219 6.071201,-0.759845 12.142105,-0.776945 12.352511,-0.03479 14.121827,-0.603862 13.02065,-4.187855 -1.938114,-6.307966 -8.086669,-11.040141 -14.344551,-11.040141 -4.943343,0 -6.202013,-0.927135 -6.202013,-4.568399 0,-3.679629 1.249461,-4.568398 6.4224,-4.568398 11.114787,0 21.957698,7.994992 25.272815,18.634841 l 1.785313,5.729952 14.843489,0 14.843489,0 -0.602074,-3.045599 c -0.832095,-4.20917 0.77391,-3.961594 8.762019,1.35072 3.632517,2.415729 7.357847,4.684672 8.278507,5.042094 3.27247,1.270464 1.57144,3.530868 -6.110876,8.120393 -11.044167,6.597945 -11.280859,6.656847 -11.280859,2.807423 l 0,-3.2006 -6.577924,0.300184 -6.577925,0.300185 -2.389259,5.957141 c -3.049409,7.603102 -8.937813,14.730582 -14.578543,17.646252 -4.916099,2.54112 -14.763758,3.16453 -16.838053,1.06596 z m 50.21478,-95.260424 c -3.450934,-1.402938 -4.897109,-5.41749 -3.187455,-8.848311 l 1.391216,-2.7917992 0.336638,3.8244299 c 0.237695,2.7003843 1.055852,4.3011943 2.783675,5.4465583 2.24606,1.488899 2.653072,1.485545 4.955675,-0.04083 2.56737,-1.701896 2.86659,-2.457994 2.5479,-6.4383529 -0.209052,-2.6109313 1.44845,-3.0869615 2.36201,-0.6783697 1.44452,3.8083956 0.59313,6.5554616 -2.652141,8.5572946 -3.557823,2.194639 -5.094474,2.369117 -8.537518,0.969386 z m 2.767655,-8.3914711 c 0,-1.2842277 -0.54509,-2.8864301 -1.211313,-3.5604506 -0.946115,-0.9571882 -0.83627,-1.6049252 0.501727,-2.9585824 1.615085,-1.63398833 1.810998,-1.63398833 3.426083,0 1.337997,1.3536572 1.447843,2.0013942 0.501728,2.9585824 -0.666223,0.6740205 -1.211314,2.2762229 -1.211314,3.5604506 0,1.2842276 -0.451555,2.3349593 -1.003455,2.3349593 -0.551901,0 -1.003456,-1.0507317 -1.003456,-2.3349593 z"
     id="path3398"
     inkscape:connector-curvature="0" />
</svg>
