<?xml version="1.0" encoding="UTF-8" standalone="no"?>
<!-- Created with Inkscape (http://www.inkscape.org/) -->

<svg
   xmlns:dc="http://purl.org/dc/elements/1.1/"
   xmlns:cc="http://creativecommons.org/ns#"
   xmlns:rdf="http://www.w3.org/1999/02/22-rdf-syntax-ns#"
   xmlns:svg="http://www.w3.org/2000/svg"
   xmlns="http://www.w3.org/2000/svg"
   xmlns:sodipodi="http://sodipodi.sourceforge.net/DTD/sodipodi-0.dtd"
   xmlns:inkscape="http://www.inkscape.org/namespaces/inkscape"
   id="svg52"
   version="1.1"
   inkscape:version="0.91 r13725"
   width="125"
   height="144"
   viewBox="0 0 125 144"
   sodipodi:docname="loop.svg">
  <metadata
     id="metadata58">
    <rdf:RDF>
      <cc:Work
         rdf:about="">
        <dc:format>image/svg+xml</dc:format>
        <dc:type
           rdf:resource="http://purl.org/dc/dcmitype/StillImage" />
        <dc:title></dc:title>
      </cc:Work>
    </rdf:RDF>
  </metadata>
  <defs
     id="defs56" />
  <sodipodi:namedview
     pagecolor="#ffffff"
     bordercolor="#666666"
     borderopacity="1"
     objecttolerance="10"
     gridtolerance="10"
     guidetolerance="10"
     inkscape:pageopacity="0"
     inkscape:pageshadow="2"
     inkscape:window-width="640"
     inkscape:window-height="480"
     id="namedview54"
     showgrid="false"
     inkscape:zoom="3.2777778"
     inkscape:cx="92.286826"
     inkscape:cy="37.769183"
     inkscape:window-x="1877"
     inkscape:window-y="244"
     inkscape:window-maximized="0"
     inkscape:current-layer="svg52" />
  <path
     style="fill:#000000"
     d="M -0.11047695,136.06654 C -0.48735435,131.46077 -0.64099756,104.07703 -0.45190632,75.213806 -0.18097033,33.857648 0.16893786,22.455679 1.1990528,21.416317 3.0382412,19.560618 121.26379,19.468689 123.09741,21.321532 c 1.66443,1.681881 2.38065,47.138412 1.41611,89.876358 l -0.75025,33.24279 -61.594255,0 -61.59426044,0 -0.68523151,-8.37414 z M 120.64234,142.0765 C 123.3734,139.31514 123.2538,27.820102 120.51572,24.037692 119.4002,22.496716 115.32003,22.276783 79.681862,21.836637 57.904882,21.567683 32.050489,21.686831 22.227655,22.101411 5.4020433,22.811548 4.2998977,22.981056 3.1925392,25.028974 1.8519552,27.508212 1.424896,132.01911 2.7286931,138.54242 c 0.649067,3.24749 1.1775353,3.80187 3.9802531,4.17537 6.0521728,0.80656 113.0973438,0.20404 113.9333938,-0.64129 z M 84.048791,80.665214 c -5.339054,-1.914127 -7.485512,-3.396364 -12.545786,-8.663521 -2.139288,-2.226749 -3.107991,-2.645076 -4.13378,-1.785138 -1.883319,1.57882 -2.662155,0.397589 -2.662155,-4.037588 0,-8.577667 2.763954,-10.76061 9.345102,-7.380667 4.462981,2.292096 4.478123,2.328481 1.813755,4.358539 l -2.377083,1.811166 3.772391,4.217804 c 12.559827,14.042792 36.027315,4.958487 36.010155,-13.939594 -0.003,-3.241729 -0.69918,-7.062483 -1.60976,-8.83385 C 109.23059,41.68317 102.51644,36.07987 97.71627,34.77425 86.897793,31.831681 74.828106,38.696721 72.213113,49.280026 c -0.50609,2.048227 -1.313752,2.791379 -3.033686,2.791379 -3.2517,0 -3.756657,-1.327106 -2.332237,-6.129469 5.045815,-17.011716 29.717127,-23.242209 43.50164,-10.985906 6.29441,5.596578 8.98563,12.530144 8.40032,21.642264 -0.52088,8.108991 -2.23992,12.102698 -7.49382,17.409723 -7.21706,7.290027 -18.04867,9.940423 -27.206539,6.657197 z m 7.028382,-64.155135 c -3.455856,-1.402726 -4.904093,-5.416674 -3.192,-8.8469786 l 1.393199,-2.7913796 0.337118,3.8238556 c 0.238035,2.6999766 1.057359,4.3005466 2.787646,5.4457376 2.249263,1.488675 2.656856,1.485322 4.962743,-0.04082 2.571027,-1.70164 2.870681,-2.457624 2.551537,-6.4373846 -0.20935,-2.6105376 1.450514,-3.0864965 2.365384,-0.6782667 1.44657,3.8078213 0.59397,6.5544743 -2.655934,8.5560063 -3.562895,2.194309 -5.101738,2.36876 -8.549693,0.969239 z M 17.874358,13.992861 c -1.954186,-1.973945 -2.455912,-3.392978 -2.215317,-6.2655818 0.436413,-5.210604 2.823254,-5.7225392 2.823254,-0.6055367 0,4.6792685 1.398299,6.3778785 5.250281,6.3778785 2.152007,0 3.085505,-0.656098 3.859582,-2.712662 0.561566,-1.4919629 0.81831,-3.2462761 0.570544,-3.8984744 -0.652972,-1.7188199 0.955103,-3.9202438 2.265881,-3.101948 0.614479,0.3836088 1.117236,2.2286091 1.117236,4.0999992 0,2.5533402 -0.771628,4.0583752 -3.09176,6.0303772 -3.899522,3.314408 -7.349141,3.339172 -10.579701,0.07594 z M 20.800934,9.3454026 C 20.006891,8.5433305 20.088626,7.4896669 21.096209,5.5389759 21.862496,4.0554345 22.492245,2.1945348 22.49565,1.4036441 22.49905,0.61275337 22.81175,0.27870354 23.190528,0.66131103 24.350506,1.8330177 26.443417,8.7456746 25.904746,9.6260754 25.176494,10.816328 22.089047,10.64654 20.800934,9.3454026 Z M 93.848776,8.119872 c 0,-1.2840344 -0.545868,-2.8859963 -1.213041,-3.5599156 -0.947464,-0.9570435 -0.837462,-1.6046835 0.502443,-2.9581359 1.617389,-1.63374259 1.813581,-1.63374259 3.43097,0 1.339905,1.3534524 1.449907,2.0010924 0.502443,2.9581359 -0.667173,0.6739193 -1.213042,2.2758812 -1.213042,3.5599156 0,1.2840344 -0.452199,2.334608 -1.004886,2.334608 -0.552688,0 -1.004887,-1.0505736 -1.004887,-2.334608 z"
     id="path3419"
     inkscape:connector-curvature="0" />
</svg>
