<?xml version="1.0" encoding="UTF-8" standalone="no"?>
<!-- Created with Inkscape (http://www.inkscape.org/) -->

<svg
   xmlns:dc="http://purl.org/dc/elements/1.1/"
   xmlns:cc="http://creativecommons.org/ns#"
   xmlns:rdf="http://www.w3.org/1999/02/22-rdf-syntax-ns#"
   xmlns:svg="http://www.w3.org/2000/svg"
   xmlns="http://www.w3.org/2000/svg"
   xmlns:sodipodi="http://sodipodi.sourceforge.net/DTD/sodipodi-0.dtd"
   xmlns:inkscape="http://www.inkscape.org/namespaces/inkscape"
   id="svg22"
   version="1.1"
   inkscape:version="0.91 r13725"
   width="125"
   height="125"
   viewBox="0 0 125 125"
   sodipodi:docname="msg.svg">
  <metadata
     id="metadata28">
    <rdf:RDF>
      <cc:Work
         rdf:about="">
        <dc:format>image/svg+xml</dc:format>
        <dc:type
           rdf:resource="http://purl.org/dc/dcmitype/StillImage" />
        <dc:title></dc:title>
      </cc:Work>
    </rdf:RDF>
  </metadata>
  <defs
     id="defs26" />
  <sodipodi:namedview
     pagecolor="#ffffff"
     bordercolor="#666666"
     borderopacity="1"
     objecttolerance="10"
     gridtolerance="10"
     guidetolerance="10"
     inkscape:pageopacity="0"
     inkscape:pageshadow="2"
     inkscape:window-width="640"
     inkscape:window-height="440"
     id="namedview24"
     showgrid="false"
     inkscape:zoom="1.888"
     inkscape:cx="62.5"
     inkscape:cy="63.301807"
     inkscape:window-x="1708"
     inkscape:window-y="375"
     inkscape:window-maximized="0"
     inkscape:current-layer="svg22" />
  <path
     style="fill:#040404"
     d="M 1.0261358,118.75 C 0.66164281,115.3125 0.51332581,87.884654 0.69654181,57.799241 0.95965081,14.594606 1.3029368,2.8254282 2.3299598,1.7992412 4.2090938,-0.07836476 119.9488,-0.07576076 123.27966,1.8019412 l 2.25,1.268405 0,60.9648168 0,60.964817 -61.920401,0 -61.9204102,0 -0.662713,-6.25 z m 117.7621542,1.72541 c 0.96725,-0.38281 2.09225,-1.88388 2.5,-3.33571 0.96773,-3.44567 0.96773,-103.833731 0,-107.2793988 -0.40775,-1.451834 -1.53275,-2.948332 -2.5,-3.32555 -0.96725,-0.377218 -17.05863,-0.940396 -35.758631,-1.251507 -40.14357,-0.667867 -72.546227,0.298856 -75.2060262,2.243749 -1.687326,1.233803 -1.793972,4.5534518 -1.793972,55.8423958 0,43.310951 0.266555,54.798081 1.295531,55.830611 0.830876,0.83374 5.4934442,1.5285 12.9999992,1.9371 14.889872,0.81049 96.122639,0.26459 98.463099,-0.66169 z M 21.529661,69.393011 c 0,-20.764535 0.248958,-25.511455 1.316493,-25.101803 0.724071,0.277852 5.111571,3.157995 9.75,6.400318 C 49.135409,62.252682 60.705081,69 63.989819,69 c 3.65304,0 7.15376,-2.111423 25.40726,-15.324088 C 96.749159,48.35416 103.16166,44 103.64708,44 c 0.48703,0 0.88258,11.428338 0.88258,25.5 l 0,25.500004 -41.500001,0 -41.499998,0 0,-25.606993 z M 57.403437,58.136299 C 45.602315,51.603366 23.741807,36.561362 22.621155,34.202947 22.020833,32.939568 21.529661,31.027068 21.529661,29.952947 21.529661,28.047057 22.529619,28 63.029659,28 l 41.500001,0 0,3.43305 c 0,2.829825 -0.74677,4.040616 -4.25,6.890798 -4.343311,3.533665 -23.646331,16.229849 -31.755791,20.886751 l -4.50579,2.587474 -6.614642,-3.661774 z"
     id="path3486"
     inkscape:connector-curvature="0" />
</svg>
