<?xml version="1.0" encoding="UTF-8" standalone="no"?>
<!-- Created with Inkscape (http://www.inkscape.org/) -->

<svg
   xmlns:dc="http://purl.org/dc/elements/1.1/"
   xmlns:cc="http://creativecommons.org/ns#"
   xmlns:rdf="http://www.w3.org/1999/02/22-rdf-syntax-ns#"
   xmlns:svg="http://www.w3.org/2000/svg"
   xmlns="http://www.w3.org/2000/svg"
   xmlns:sodipodi="http://sodipodi.sourceforge.net/DTD/sodipodi-0.dtd"
   xmlns:inkscape="http://www.inkscape.org/namespaces/inkscape"
   id="svg2"
   version="1.1"
   inkscape:version="0.91 r13725"
   width="125"
   height="144"
   viewBox="0 0 125 144"
   sodipodi:docname="msgSend.svg">
  <metadata
     id="metadata8">
    <rdf:RDF>
      <cc:Work
         rdf:about="">
        <dc:format>image/svg+xml</dc:format>
        <dc:type
           rdf:resource="http://purl.org/dc/dcmitype/StillImage" />
        <dc:title></dc:title>
      </cc:Work>
    </rdf:RDF>
  </metadata>
  <defs
     id="defs6" />
  <sodipodi:namedview
     pagecolor="#ffffff"
     bordercolor="#666666"
     borderopacity="1"
     objecttolerance="10"
     gridtolerance="10"
     guidetolerance="10"
     inkscape:pageopacity="0"
     inkscape:pageshadow="2"
     inkscape:window-width="1920"
     inkscape:window-height="1054"
     id="namedview4"
     showgrid="false"
     inkscape:zoom="4.6354778"
     inkscape:cx="76.442444"
     inkscape:cy="79.573598"
     inkscape:window-x="0"
     inkscape:window-y="0"
     inkscape:window-maximized="1"
     inkscape:current-layer="svg2" />
  <path
     style="fill:#000000"
     d="M 0.49763864,133.75 C 0.12259387,129.2125 -0.03030223,102.2347 0.15786953,73.79934 0.42748805,33.056242 0.7756948,21.823295 1.8008006,20.79934 3.6310457,18.97115 121.2817,18.880583 123.10641,20.70596 c 1.65633,1.656949 2.36907,46.439636 1.40922,88.54404 l -0.7466,32.75 -61.294744,0 -61.2947478,0 -0.68189956,-8.25 z M 118.7149,136.71408 C 120.38421,135.044 120.5,131.431 120.5,81.013892 120.5,38.109785 120.23452,26.834185 119.2,25.799814 117.29047,23.890557 8.7092635,23.890736 6.8,25.8 4.8623175,27.737682 4.8956433,133.96441 6.834667,136.30079 c 1.8646716,2.24679 6.446218,2.41712 61.880234,2.30058 44.876749,-0.0943 48.338489,-0.22502 49.999999,-1.88729 z M 65,51 c 0,-7.7 0.297964,-14 0.662142,-14 1.249634,0 9.839991,5.366062 14.595454,9.117213 2.616677,2.064058 5.620863,4.026824 6.675967,4.361701 1.32559,0.420726 5.406626,-1.567714 13.207117,-6.435023 C 106.3495,40.169751 111.84951,37 112.36293,37 c 0.55447,0 0.67274,3.349814 0.29128,8.25 -0.35322,4.5375 -0.64492,10.8375 -0.64822,14 L 112,65 88.5,65 65,65 65,51 Z M 78,40.385077 C 66.90612,32.760939 64.507316,30.606196 65.437661,29.100866 65.900811,28.351474 73.442413,28 89.059017,28 110.85621,28 112,28.09386 112,29.882542 c 0,1.226987 -2.35054,3.400304 -6.75,6.241067 -3.7125,2.397189 -8.696968,5.825045 -11.076596,7.617458 -2.379628,1.792413 -4.854628,3.239547 -5.5,3.215853 C 88.028032,46.933225 83.225,43.975896 78,40.385077 Z M 91.762707,15.434683 c -3.197228,-1.7348 -4.408684,-5.359146 -2.797565,-8.3695504 1.449653,-2.7087013 3.228776,-1.6859454 2.45187,1.4094946 -0.406674,1.6203178 0.05884,3.0012278 1.49633,4.4387148 2.694086,2.694086 4.22584,2.631859 6.96413,-0.282917 1.654888,-1.761548 2.056698,-3.0445367 1.565908,-5.0000004 -0.853,-3.398599 1.19082,-3.5273847 2.71991,-0.1713886 1.37771,3.023746 -0.8971,7.109062 -4.780689,8.585599 -3.292949,1.251977 -4.343327,1.167897 -7.619894,-0.609952 z M 95.505946,8.5 C 95.147378,7.4 94.397436,5.6554888 93.839408,4.6233084 93.081536,3.2214771 93.226522,2.344907 94.412406,1.1590227 95.807792,-0.23636369 96.177623,-0.2509481 97.46713,1.0385586 98.737091,2.30852 98.747701,3.0428691 97.546074,6.5028443 96.38935,9.8335251 96.049184,10.166525 95.505946,8.5 Z"
     id="path3338"
     inkscape:connector-curvature="0" />
</svg>
