<?xml version="1.0" encoding="UTF-8" standalone="no"?>
<!-- Created with Inkscape (http://www.inkscape.org/) -->

<svg
   xmlns:dc="http://purl.org/dc/elements/1.1/"
   xmlns:cc="http://creativecommons.org/ns#"
   xmlns:rdf="http://www.w3.org/1999/02/22-rdf-syntax-ns#"
   xmlns:svg="http://www.w3.org/2000/svg"
   xmlns="http://www.w3.org/2000/svg"
   xmlns:sodipodi="http://sodipodi.sourceforge.net/DTD/sodipodi-0.dtd"
   xmlns:inkscape="http://www.inkscape.org/namespaces/inkscape"
   id="svg42"
   version="1.1"
   inkscape:version="0.91 r13725"
   width="125"
   height="124"
   viewBox="0 0 125 124"
   sodipodi:docname="portVar.svg">
  <metadata
     id="metadata48">
    <rdf:RDF>
      <cc:Work
         rdf:about="">
        <dc:format>image/svg+xml</dc:format>
        <dc:type
           rdf:resource="http://purl.org/dc/dcmitype/StillImage" />
        <dc:title></dc:title>
      </cc:Work>
    </rdf:RDF>
  </metadata>
  <defs
     id="defs46" />
  <sodipodi:namedview
     pagecolor="#ffffff"
     bordercolor="#666666"
     borderopacity="1"
     objecttolerance="10"
     gridtolerance="10"
     guidetolerance="10"
     inkscape:pageopacity="0"
     inkscape:pageshadow="2"
     inkscape:window-width="640"
     inkscape:window-height="480"
     id="namedview44"
     showgrid="false"
     inkscape:zoom="10.766271"
     inkscape:cx="103.44307"
     inkscape:cy="10.164765"
     inkscape:window-x="1841"
     inkscape:window-y="186"
     inkscape:window-maximized="0"
     inkscape:current-layer="svg42" />
  <path
     style="fill:#000000"
     d="M 14.881566,123.65036 1.1782118,123.31356 0.49658507,115.04154 C 0.12169033,110.49194 -0.03062302,83.363711 0.15811094,54.756591 0.42847823,13.776007 0.77791257,2.4663879 1.805548,1.4364644 c 1.9195608,-1.92383442 119.847812,-1.92118451 121.762532,0.00272 1.04213,1.0471449 1.28749,13.3070543 1.22304,61.1139633 -0.0443,32.892224 -0.27,59.970906 -0.50149,60.174836 -0.61163,0.53886 -93.239352,1.31974 -109.408064,0.92236 z M 119.55677,118.5402 c 1.914,-1.92111 1.91332,-110.1527831 -7e-4,-112.072871 -1.03777,-1.0410654 -12.4368,-1.3078522 -55.880563,-1.3078522 -51.056382,0 -54.6923836,0.1158828 -56.3680728,1.7965 C 5.632581,8.6357559 5.5162023,12.23706 5.5162023,62.385071 c 0,58.536359 -0.211714,56.460889 5.8418727,57.268629 1.751759,0.23375 26.519917,0.37309 55.04035,0.30967 41.089985,-0.0913 52.125835,-0.38683 53.158345,-1.42317 z M 40.424243,61.749234 c -4.811219,-4.987383 -9.331854,-11.512865 -9.331854,-13.470422 0,-2.609896 2.870424,-1.347843 6.435097,2.829349 1.970346,2.308912 3.829112,3.950604 4.130592,3.648208 0.301479,-0.302398 0.877602,-8.953746 1.280273,-19.225219 0.40267,-10.271472 1.061468,-19.005748 1.463998,-19.409501 1.710255,-1.715462 2.272337,1.693915 2.891966,17.541571 0.360588,9.222434 0.699097,17.880938 0.752241,19.241118 0.09274,2.373453 0.269835,2.302546 4.397288,-1.76057 4.199454,-4.133996 6.732202,-5.32183 6.732202,-3.157339 0,2.317709 -12.157353,18.038475 -13.949708,18.038475 -0.372597,0 -2.533539,-1.924051 -4.802095,-4.27567 z m 39.312519,3.01812 C 79.495273,64.075702 79.17093,55.510615 79.016,45.733828 78.861068,35.95704 78.45996,27.68384 78.124648,27.348938 c -0.335313,-0.334903 -2.581525,1.326234 -4.991582,3.691414 -4.13674,4.059711 -4.401439,4.171564 -4.730713,1.999021 -0.418134,-2.758834 1.659211,-6.153507 8.202393,-13.403859 l 4.891353,-5.419999 5.772585,6.295395 c 6.244575,6.810131 8.951473,11.777683 7.313255,13.420887 -0.653019,0.655007 -2.241623,-0.393941 -4.655631,-3.074091 -2.015405,-2.237602 -4.068845,-4.068366 -4.563199,-4.068366 -0.494355,0 -1.197685,7.583027 -1.562956,16.851172 -0.365271,9.268144 -0.900525,18.096146 -1.189451,19.617782 -0.545513,2.872939 -2.110784,3.694837 -2.87394,1.50906 z"
     id="path3459"
     inkscape:connector-curvature="0" />
</svg>
