<?xml version="1.0" encoding="UTF-8" standalone="no"?>
<!-- Created with Inkscape (http://www.inkscape.org/) -->

<svg
   xmlns:dc="http://purl.org/dc/elements/1.1/"
   xmlns:cc="http://creativecommons.org/ns#"
   xmlns:rdf="http://www.w3.org/1999/02/22-rdf-syntax-ns#"
   xmlns:svg="http://www.w3.org/2000/svg"
   xmlns="http://www.w3.org/2000/svg"
   xmlns:sodipodi="http://sodipodi.sourceforge.net/DTD/sodipodi-0.dtd"
   xmlns:inkscape="http://www.inkscape.org/namespaces/inkscape"
   id="svg32"
   version="1.1"
   inkscape:version="0.91 r13725"
   width="125"
   height="144"
   viewBox="0 0 125 144"
   sodipodi:docname="pult1.svg">
  <metadata
     id="metadata38">
    <rdf:RDF>
      <cc:Work
         rdf:about="">
        <dc:format>image/svg+xml</dc:format>
        <dc:type
           rdf:resource="http://purl.org/dc/dcmitype/StillImage" />
        <dc:title></dc:title>
      </cc:Work>
    </rdf:RDF>
  </metadata>
  <defs
     id="defs36" />
  <sodipodi:namedview
     pagecolor="#ffffff"
     bordercolor="#666666"
     borderopacity="1"
     objecttolerance="10"
     gridtolerance="10"
     guidetolerance="10"
     inkscape:pageopacity="0"
     inkscape:pageshadow="2"
     inkscape:window-width="640"
     inkscape:window-height="480"
     id="namedview34"
     showgrid="false"
     inkscape:zoom="1.6388889"
     inkscape:cx="49.391582"
     inkscape:cy="68.388355"
     inkscape:window-x="1900"
     inkscape:window-y="224"
     inkscape:window-maximized="0"
     inkscape:current-layer="svg32" />
  <path
     style="fill:#000000"
     d="M 14.465495,143.46643 C 5.1705502,143.21422 2.4947435,142.81456 1.4204936,141.51803 -0.53764217,139.15471 -0.58355184,22.418698 1.3728842,20.45993 2.4075061,19.424074 15.305991,19.09506 63.83837,18.866563 l 61.16162,-0.287959 0,62.818562 0,62.818554 -49.420474,-0.216 c -27.181267,-0.1188 -54.682576,-0.35878 -61.114021,-0.53329 z m 104.227645,-6.56947 c 1.67509,-1.67761 1.79128,-5.30689 1.79128,-55.951262 0,-43.097505 -0.2664,-54.423932 -1.3045,-55.462966 C 117.26378,23.564869 8.3067101,23.565049 6.3908379,25.482919 4.4464479,27.429336 4.479889,134.1349 6.4256249,136.48181 c 1.8711258,2.25691 6.4685321,2.42801 62.0944391,2.31095 45.032086,-0.0947 48.505816,-0.22604 50.173076,-1.8958 z M 32.923257,104.47012 C 26.293858,101.16311 22.128941,96.369284 20.181336,89.804153 15.792499,75.009928 20.585696,63.475691 33.634013,57.431945 c 4.236817,-1.962417 6.269313,-2.114081 28.147906,-2.100372 33.044496,0.0207 38.344141,1.512781 44.545831,12.541571 2.81088,4.998724 3.09249,6.289981 2.95747,13.560853 -0.0914,4.920626 -0.81566,9.700024 -1.86824,12.328157 -2.31355,5.776603 -8.451034,10.883856 -14.688529,12.222946 -7.329413,1.57353 -9.799652,1.32204 -15.894608,-1.61818 -7.7206,-3.72441 -15.362878,-3.74974 -24.254224,-0.0804 -8.342787,3.44298 -13.034563,3.4868 -19.656362,0.18358 z M 51.969993,85.165501 c 3.824671,0 6.59671,-0.52727 6.290488,-4.041973 -0.374064,-4.293372 -1.987353,-5.214323 -6.548484,-5.214323 -3.518963,0 -3.978541,-0.275583 -3.978541,-2.385706 0,-1.312138 -0.286946,-3.821931 -0.637658,-5.577318 -0.590812,-2.957139 -0.904119,-3.169304 -4.264711,-2.887959 -3.61838,0.302926 -3.627776,0.316138 -3.928526,5.524348 0.05947,5.251318 -0.07652,5.206191 -5.017308,5.524792 -4.624536,0.03119 -4.715837,-0.07573 -4.715837,4.322128 -0.439649,4.62842 0.513748,4.05103 4.766443,4.324195 5.348472,-0.123791 4.766443,0.662076 4.766443,5.608502 0,6.22168 0.427105,6.835534 4.479512,6.438161 8.986672,0.107275 0.260807,-11.611242 8.788179,-11.634847 z m 32.537652,5.224169 c 0.877879,-1.341208 1.247971,-3.19792 0.873101,-4.380256 -2.47503,-7.80626 -12.159189,-6.028822 -11.377001,2.088141 0.55825,5.793106 7.255742,7.254604 10.5039,2.292115 z M 97.518242,71.741533 c -1.72121,-3.456012 -5.86955,-4.602126 -9.066825,-2.505006 -3.536209,2.319428 -4.090531,9.493907 2.809325,9.859155 6.899856,0.365248 7.865989,-4.124493 6.2575,-7.354149 z M 19.089188,14.177642 c -2.39675,-2.399249 -3.091805,-5.7749159 -1.853952,-9.0040726 1.108429,-2.8915306 2.401295,-1.6499089 2.401295,2.3061166 0,3.883954 0.917962,5.269968 4.287471,6.473578 2.691017,0.961248 5.747145,-2.682848 5.747145,-6.8528349 0,-4.1507041 1.638813,-4.6157771 3.061882,-0.8689202 0.779016,2.0511032 0.621003,3.2380968 -0.702034,5.2736651 -3.745427,5.762556 -8.810163,6.808418 -12.941807,2.672468 z M 21.80287,9.9325331 C 21.152329,8.7688672 21.292723,7.8102775 22.254739,6.847259 23.02234,6.0788579 23.650378,4.0996914 23.650378,2.4491105 c 0,-1.7449122 0.420015,-2.741201 1.003461,-2.38023519 0.551904,0.34145025 1.003462,1.69192549 1.003462,3.00105509 0,1.3091297 0.628037,3.0089275 1.395638,3.7773286 1.781671,1.7835285 0.278959,4.773454 -2.3991,4.773454 -1.048959,0 -2.331895,-0.759681 -2.850969,-1.6881799 z"
     id="path3480"
     inkscape:connector-curvature="0"
     sodipodi:nodetypes="sssscccssssssssscssssssssscccssssscccccccsssssscsssssssssssssssss" />
</svg>
