<?xml version="1.0" encoding="UTF-8" standalone="no"?>
<!-- Created with Inkscape (http://www.inkscape.org/) -->

<svg
   xmlns:dc="http://purl.org/dc/elements/1.1/"
   xmlns:cc="http://creativecommons.org/ns#"
   xmlns:rdf="http://www.w3.org/1999/02/22-rdf-syntax-ns#"
   xmlns:svg="http://www.w3.org/2000/svg"
   xmlns="http://www.w3.org/2000/svg"
   xmlns:sodipodi="http://sodipodi.sourceforge.net/DTD/sodipodi-0.dtd"
   xmlns:inkscape="http://www.inkscape.org/namespaces/inkscape"
   id="svg22"
   version="1.1"
   inkscape:version="0.91 r13725"
   width="125"
   height="144"
   viewBox="0 0 125 144"
   sodipodi:docname="random var.svg">
  <metadata
     id="metadata28">
    <rdf:RDF>
      <cc:Work
         rdf:about="">
        <dc:format>image/svg+xml</dc:format>
        <dc:type
           rdf:resource="http://purl.org/dc/dcmitype/StillImage" />
        <dc:title></dc:title>
      </cc:Work>
    </rdf:RDF>
  </metadata>
  <defs
     id="defs26" />
  <sodipodi:namedview
     pagecolor="#ffffff"
     bordercolor="#666666"
     borderopacity="1"
     objecttolerance="10"
     gridtolerance="10"
     guidetolerance="10"
     inkscape:pageopacity="0"
     inkscape:pageshadow="2"
     inkscape:window-width="640"
     inkscape:window-height="480"
     id="namedview24"
     showgrid="false"
     inkscape:zoom="2.3177389"
     inkscape:cx="157.11676"
     inkscape:cy="49.030376"
     inkscape:window-x="1875"
     inkscape:window-y="262"
     inkscape:window-maximized="0"
     inkscape:current-layer="svg22" />
  <path
     style="fill:#000000"
     d="M 0.50054329,135.78241 C 0.12290681,131.19659 -0.03104587,103.9315 0.15842618,75.193326 0.42990793,34.016346 0.78052094,22.663778 1.8127107,21.628919 3.6556036,19.78126 122.11928,19.689729 123.95659,21.534544 c 1.66778,1.674594 2.38545,46.934178 1.41896,89.486956 l -0.75176,33.09876 -61.718314,0 -61.7183209,0 -0.68661181,-8.33785 z M 121.49658,141.76632 C 124.23314,139.01693 124.1133,28.004959 121.3697,24.238936 120.25194,22.704637 116.16355,22.485657 80.453597,22.047417 58.632755,21.779629 32.726286,21.898261 22.883667,22.311044 6.0241667,23.018106 4.9198013,23.186879 3.8102123,25.225923 2.4669282,27.69442 2.0390088,131.7525 3.345432,138.24755 c 0.6503743,3.23342 1.179907,3.7854 3.98827,4.15729 6.064362,0.80306 113.325138,0.20315 114.162878,-0.63852 z M 82.566122,72.961046 C 71.545703,66.51112 71.053289,65.772398 70.63407,55.06051 c -0.477405,-12.198633 -0.265723,-12.6088 5.115546,-9.912209 2.364576,1.184905 7.131165,3.794576 10.59242,5.799269 l 6.29319,3.644896 0,11.412476 c 0,8.465952 -0.324961,11.40776 -1.258638,11.394217 -0.692251,-0.01011 -4.656961,-2.00719 -8.810466,-4.438113 z M 82.388225,66.636688 C 81.898311,64.101203 79.54539,63.75306 79.54539,66.216057 c 0,1.241418 0.650151,2.105519 1.584197,2.105519 0.937674,0 1.451333,-0.687615 1.258638,-1.684888 z m 2.240609,-5.48135 c 0.834765,-1.565565 0.826312,-2.840778 -0.03263,-4.922144 -1.356734,-3.287608 -5.796377,-5.759231 -7.419195,-4.130388 -0.600393,0.602623 -0.642866,1.068718 -0.09855,1.081506 0.52611,0.01236 2.077674,0.887133 3.44792,1.943941 2.423793,1.869363 2.441598,1.976654 0.656544,3.95644 -1.009146,1.119234 -1.537127,2.51842 -1.173292,3.109304 1.078889,1.752161 3.410697,1.227838 4.619202,-1.038659 z m 11.432048,13.70124 c -0.377469,-1.509546 -0.414263,-6.667307 -0.08176,-11.461695 0.689686,-9.944712 -0.02815,-9.064236 13.152049,-16.131758 l 8.17336,-4.382741 0.28829,10.315364 c 0.21084,7.544142 -0.0903,10.893654 -1.12098,12.467935 -0.7751,1.183913 -4.75627,4.06332 -8.84703,6.398681 -10.471315,5.97793 -10.750925,6.045492 -11.563927,2.794214 z M 107.56031,66.97806 c 0.22655,-1.17248 -0.15438,-1.496753 -1.25864,-1.071434 -1.86143,0.716946 -2.17625,3.792128 -0.32488,3.173409 0.69225,-0.231348 1.40483,-1.177237 1.58352,-2.101975 z m 1.9241,-7.325572 c 2.41011,-4.248019 2.94147,-7.501298 1.2252,-7.501298 -2.21485,0 -6.99837,3.150634 -6.99837,4.609433 0,1.212401 0.41341,1.303509 2.01382,0.443812 2.48901,-1.337027 2.78009,0.618106 0.53548,3.596769 -1.82846,2.426418 -1.94733,3.779882 -0.28375,3.230764 0.69225,-0.2285 2.27068,-2.199266 3.50762,-4.37948 z M 85.562471,47.808505 c -9.824354,-5.667801 -12.058543,-7.128746 -12.058543,-7.885126 0,-0.882566 9.787287,-7.298232 15.685537,-10.282027 5.854165,-2.961495 6.164347,-2.88533 18.359175,4.508041 l 8.57174,5.196808 -2.75587,2.205616 c -3.0761,2.461904 -17.941516,10.599373 -19.362789,10.599373 -0.501492,0 -4.299155,-1.954209 -8.43925,-4.342685 z m 16.386679,-5.258482 c -0.3716,-1.491903 -3.535768,-1.228444 -4.055887,0.337705 -0.306995,0.924406 0.299807,1.242173 1.929912,1.01065 1.307735,-0.185739 2.264425,-0.792498 2.125975,-1.348355 z m -4.476889,-4.929591 c -0.249875,-2.577338 -0.801107,-3.213017 -3.008086,-3.468919 -2.91366,-0.337841 -8.877322,2.266366 -8.877322,3.876542 0,1.292485 2.724717,1.27242 3.524187,-0.02595 1.100102,-1.786613 4.531096,-1.148884 4.531096,0.842207 0,2.404475 0.848599,3.197926 2.669928,2.496423 0.953135,-0.36711 1.359087,-1.668843 1.160197,-3.7203 z M 18.521602,14.237625 c -1.958121,-1.965392 -2.460859,-3.378276 -2.219779,-6.2384333 0.437292,-5.1880289 2.828941,-5.6977457 2.828941,-0.6029139 0,4.6589952 1.401115,6.3502452 5.260856,6.3502452 2.156341,0 3.09172,-0.653256 3.867356,-2.700909 0.562697,-1.4854979 0.819958,-3.2322109 0.571693,-3.8815823 -0.654287,-1.7113736 0.957027,-3.9032604 2.270445,-3.0885094 0.615716,0.3819475 1.119486,2.2189529 1.119486,4.0822362 0,2.5422775 -0.773182,4.0407905 -3.097987,6.0042475 -3.907376,3.300049 -7.363944,3.324706 -10.601011,0.07562 z M 21.454073,9.6103039 C 20.65843,8.8117071 20.740331,7.7626089 21.749943,5.8203696 22.517773,4.3432554 23.148791,2.4904182 23.152202,1.7029537 23.155626,0.91549022 23.468939,0.58288761 23.84848,0.96383765 25.010795,2.1304674 27.107921,9.013174 26.568165,9.8897605 25.838446,11.074855 22.74478,10.905803 21.454073,9.6103039 Z"
     id="path3501"
     inkscape:connector-curvature="0" />
</svg>
