<?xml version="1.0" encoding="UTF-8" standalone="no"?>
<!-- Created with Inkscape (http://www.inkscape.org/) -->

<svg
   xmlns:dc="http://purl.org/dc/elements/1.1/"
   xmlns:cc="http://creativecommons.org/ns#"
   xmlns:rdf="http://www.w3.org/1999/02/22-rdf-syntax-ns#"
   xmlns:svg="http://www.w3.org/2000/svg"
   xmlns="http://www.w3.org/2000/svg"
   xmlns:sodipodi="http://sodipodi.sourceforge.net/DTD/sodipodi-0.dtd"
   xmlns:inkscape="http://www.inkscape.org/namespaces/inkscape"
   id="svg12"
   version="1.1"
   inkscape:version="0.91 r13725"
   width="125"
   height="124"
   viewBox="0 0 125 124"
   sodipodi:docname="robotDiagram.svg">
  <metadata
     id="metadata18">
    <rdf:RDF>
      <cc:Work
         rdf:about="">
        <dc:format>image/svg+xml</dc:format>
        <dc:type
           rdf:resource="http://purl.org/dc/dcmitype/StillImage" />
        <dc:title></dc:title>
      </cc:Work>
    </rdf:RDF>
  </metadata>
  <defs
     id="defs16" />
  <sodipodi:namedview
     pagecolor="#ffffff"
     bordercolor="#666666"
     borderopacity="1"
     objecttolerance="10"
     gridtolerance="10"
     guidetolerance="10"
     inkscape:pageopacity="0"
     inkscape:pageshadow="2"
     inkscape:window-width="640"
     inkscape:window-height="480"
     id="namedview14"
     showgrid="false"
     inkscape:zoom="1.9032258"
     inkscape:cx="118.14743"
     inkscape:cy="85.716716"
     inkscape:window-x="1644"
     inkscape:window-y="240"
     inkscape:window-maximized="0"
     inkscape:current-layer="svg12" />
  <path
     style="fill:#000000"
     d="M 2.0171446,122.94698 C 0.74339885,122.12661 0.45066929,117.36056 0.16918276,92.859519 -0.01477498,76.847545 0.15103638,49.274138 0.53765246,31.585283 l 0.70293824,-32.16155453 61.9370013,0 61.936998,0 0,62.26477053 0,62.264771 -60.791975,-0.0157 C 27.822951,123.92826 2.92585,123.53224 2.0171446,122.94698 Z M 119.78195,118.51316 c 1.68433,-1.71879 1.80116,-5.43718 1.80116,-57.324949 0,-44.15561 -0.26787,-55.7601157 -1.3117,-56.8246591 C 118.34471,2.3986024 8.7867611,2.3987876 6.8603229,4.3637434 4.90521,6.3579481 4.9388356,115.68329 6.8953014,118.08782 c 1.8814452,2.31233 6.5042046,2.48762 62.4368766,2.36768 45.280432,-0.0971 48.773312,-0.23158 50.449772,-1.94234 z M 26.504492,100.47527 c -0.95083,-0.616069 -0.737121,-2.120489 0.911499,-6.416552 1.811788,-4.721255 2.257663,-8.693654 2.809684,-25.032091 0.729544,-21.592676 0.963857,-22.26109 7.803658,-22.26109 l 3.338635,0 0.02603,13.121915 c 0.03303,16.650795 1.44972,31.615642 3.456824,36.515365 0.859166,2.097396 1.562121,4.059883 1.562121,4.361073 0,0.87134 -18.532867,0.60265 -19.908451,-0.28862 z m 57.045322,-5.596046 c 2.576102,-6.160755 2.704022,-7.336622 3.030058,-27.852833 l 0.340408,-21.420521 3.205478,0.701596 c 7.49699,1.6409 7.354569,1.193875 8.287314,26.011985 0.472352,12.568171 1.119804,18.253263 2.567618,22.54556 2.97633,6.957989 -1.304551,6.438869 -9.092262,6.446519 -10.817211,-0.641 -11.321256,1.60902 -8.338614,-6.432306 z m -39.15486,-28.480295 0,-19.633392 9.333208,-0.0054 c 5.133265,-0.0029 19.564982,-0.144383 19.564982,-0.144383 l 9.70635,-0.401744 -0.262712,19.997262 c -0.271871,20.694436 -0.01062,20.796237 -2.476625,23.311548 -2.387096,2.434821 -2.973501,2.526139 -16.221543,2.526139 -22.996197,-0.713489 -19.64366,-3.15124 -19.64366,-25.65003 z m 29.6981,0.885139 c 0.517952,-0.511499 0.593626,-1.285064 0.168166,-1.71903 -0.972279,-0.991719 -19.354852,-1.047387 -20.321375,-0.06153 -0.392278,0.40012 -0.422131,1.501253 -0.06634,2.446964 0.568185,1.510271 1.780256,1.630908 9.962355,0.991538 5.123507,-0.400364 9.739245,-1.146433 10.257194,-1.657942 z m 0.06727,-12.285173 c 0,-1.218086 -1.702137,-1.608129 -8.068579,-1.848907 -9.413342,-0.356013 -12.615828,0.258069 -12.615828,2.419103 0,1.311691 1.647036,1.513443 10.342203,1.266855 8.392608,-0.238007 10.342204,-0.584307 10.342204,-1.837051 z M 44.394957,40.557463 c 0,-10.403403 9.383106,-19.445192 20.234617,-19.498567 9.348785,-0.04598 18.107211,8.883788 18.107211,18.461453 l 0,4.157679 -19.170914,0 -19.170914,0 z m 33.114779,-2.807675 c 0.242273,-1.732081 -0.181877,-2.305118 -1.706194,-2.305118 -2.415042,0 -3.561328,1.556727 -2.744675,3.727441 0.863096,2.294163 4.074577,1.2679 4.450869,-1.422323 z m -9.342971,-3.798482 c 3.346164,-5.209 -1.997432,-10.775024 -7.08205,-7.376843 -3.221178,2.152798 -3.374653,6.115867 -0.321323,8.297264 3.190073,2.279089 5.535372,1.987511 7.403373,-0.920421 z"
     id="path3541"
     inkscape:connector-curvature="0"
     sodipodi:nodetypes="ssscccccssssssssssssscsssscscssccccccccssccsssssssssssssscccsssssssss" />
</svg>
