<?xml version="1.0" encoding="UTF-8" standalone="no"?>
<!-- Created with Inkscape (http://www.inkscape.org/) -->

<svg
   xmlns:dc="http://purl.org/dc/elements/1.1/"
   xmlns:cc="http://creativecommons.org/ns#"
   xmlns:rdf="http://www.w3.org/1999/02/22-rdf-syntax-ns#"
   xmlns:svg="http://www.w3.org/2000/svg"
   xmlns="http://www.w3.org/2000/svg"
   xmlns:sodipodi="http://sodipodi.sourceforge.net/DTD/sodipodi-0.dtd"
   xmlns:inkscape="http://www.inkscape.org/namespaces/inkscape"
   id="svg2"
   version="1.1"
   inkscape:version="0.91 r13725"
   width="125"
   height="144"
   viewBox="0 0 125 144"
   sodipodi:docname="say.svg">
  <metadata
     id="metadata8">
    <rdf:RDF>
      <cc:Work
         rdf:about="">
        <dc:format>image/svg+xml</dc:format>
        <dc:type
           rdf:resource="http://purl.org/dc/dcmitype/StillImage" />
        <dc:title></dc:title>
      </cc:Work>
    </rdf:RDF>
  </metadata>
  <defs
     id="defs6" />
  <sodipodi:namedview
     pagecolor="#ffffff"
     bordercolor="#666666"
     borderopacity="1"
     objecttolerance="10"
     gridtolerance="10"
     guidetolerance="10"
     inkscape:pageopacity="0"
     inkscape:pageshadow="2"
     inkscape:window-width="640"
     inkscape:window-height="480"
     id="namedview4"
     showgrid="false"
     inkscape:zoom="2.3177389"
     inkscape:cx="60.830132"
     inkscape:cy="95.837247"
     inkscape:window-x="1661"
     inkscape:window-y="159"
     inkscape:window-maximized="0"
     inkscape:current-layer="svg2" />
  <path
     style="fill:#000000"
     d="M 0.61073153,135.35013 C 0.2338539,130.76386 0.08021079,103.49606 0.26930227,74.755035 0.54023773,33.573975 0.89014622,22.220282 1.9202613,21.18532 3.7594496,19.337478 121.985,19.245938 123.81863,21.090936 c 1.66442,1.674761 2.38064,46.938832 1.41609,89.495834 l -0.75024,33.10204 -61.594257,0 -61.5942594,0 z M 119.40565,138.34607 c 1.67747,-1.68803 1.79383,-5.33987 1.79383,-56.298932 0,-43.365297 -0.26678,-54.762102 -1.30636,-55.807592 -1.91885,-1.929781 -111.0306381,-1.9296 -112.9492315,1.87e-4 -1.9471504,1.958512 -1.9136615,109.327107 0.034839,111.688597 1.8737835,2.27094 6.4777165,2.44311 62.1826095,2.32532 45.096033,-0.0953 48.574683,-0.22744 50.244313,-1.90758 z M 34.276799,111.41298 c 0,-2.22978 -1.611463,-3.61627 -5.205385,-4.47866 -5.20128,-1.24813 -5.848366,-2.87059 -5.848366,-14.663776 C 23.11176,80.700391 23.099043,79.040989 33.333322,79.00085 c 8.335525,-0.06492 7.545904,-1.693206 8.259217,6.219241 0.341084,3.783482 1.313285,7.247248 2.482328,8.84406 2.270709,3.101585 10.049403,6.055879 16.109296,6.118199 2.961788,0.0304 4.491845,0.54105 4.910623,1.63873 1.143243,2.99664 -2.170537,4.6692 -11.043171,5.57377 -5.277004,0.53799 -10.714569,1.82999 -14.169047,3.36664 -5.186885,2.30726 -5.605769,2.35595 -5.605769,0.65149 z M 80.005526,101.17314 C 75.587553,99.586865 69.595918,98.042713 66.690781,97.741671 63.785655,97.44064 58.844704,96.924521 55.710889,96.594743 51.266166,96.127029 49.387636,95.366096 47.169354,93.134875 41.985507,88.85931 44.325663,81.12238 44.325663,74.957852 42.186695,47.239165 57.11487,53.539279 75.249891,53.732116 c 15.125822,0 26.265619,0.426411 28.119219,1.076352 1.79069,0.627877 3.53124,2.207152 4.1774,3.79031 0.60921,1.492677 1.21717,9.229085 1.351,17.192016 -0.41963,7.810724 2.90246,12.081511 -2.92019,17.329189 -1.89335,1.706383 -4.91937,3.142578 -7.53666,3.577028 -5.345765,0.887337 -6.885331,2.04324 -6.885331,5.169459 0,3.06329 -1.305297,2.98493 -11.549803,-0.69333 z m 12.31623,-85.410144 c -3.212843,-1.753447 -4.430223,-5.416753 -2.81123,-8.4595162 1.456734,-2.7378178 3.244547,-1.7040688 2.46385,1.4246451 -0.408666,1.6377351 0.05909,3.0334881 1.503642,4.4864281 2.707245,2.723045 4.246489,2.66015 6.998162,-0.285958 1.66298,-1.780483 2.06675,-3.077263 1.57356,-5.0537467 -0.85717,-3.4351316 1.19664,-3.565302 2.73319,-0.1732313 1.38445,3.05625 -0.90148,7.185479 -4.804044,8.677888 -3.309037,1.265435 -4.36455,1.180452 -7.65713,-0.616509 z M 96.083287,8.7537707 C 95.722965,7.6419464 94.96936,5.878683 94.408604,4.8354078 93.64703,3.418507 93.792728,2.5325148 94.984403,1.333883 c 1.402209,-1.4103858 1.773846,-1.42512697 3.069657,-0.1217589 1.276164,1.2836126 1.286831,2.0258551 0.07929,5.5230235 -1.162372,3.3664824 -1.504205,3.7030624 -2.0501,2.0186231 z"
     id="path3562"
     inkscape:connector-curvature="0"
     sodipodi:nodetypes="ssssscccsssssssssscccscssssssscccscccsssssscssssscsssccc" />
</svg>
