<?xml version="1.0" encoding="UTF-8" standalone="no"?>
<!-- Created with Inkscape (http://www.inkscape.org/) -->

<svg
   xmlns:dc="http://purl.org/dc/elements/1.1/"
   xmlns:cc="http://creativecommons.org/ns#"
   xmlns:rdf="http://www.w3.org/1999/02/22-rdf-syntax-ns#"
   xmlns:svg="http://www.w3.org/2000/svg"
   xmlns="http://www.w3.org/2000/svg"
   xmlns:sodipodi="http://sodipodi.sourceforge.net/DTD/sodipodi-0.dtd"
   xmlns:inkscape="http://www.inkscape.org/namespaces/inkscape"
   id="svg12"
   version="1.1"
   inkscape:version="0.91 r13725"
   width="125"
   height="144"
   viewBox="0 0 125 144"
   sodipodi:docname="servo.svg">
  <metadata
     id="metadata18">
    <rdf:RDF>
      <cc:Work
         rdf:about="">
        <dc:format>image/svg+xml</dc:format>
        <dc:type
           rdf:resource="http://purl.org/dc/dcmitype/StillImage" />
        <dc:title></dc:title>
      </cc:Work>
    </rdf:RDF>
  </metadata>
  <defs
     id="defs16" />
  <sodipodi:namedview
     pagecolor="#ffffff"
     bordercolor="#666666"
     borderopacity="1"
     objecttolerance="10"
     gridtolerance="10"
     guidetolerance="10"
     inkscape:pageopacity="0"
     inkscape:pageshadow="2"
     inkscape:window-width="640"
     inkscape:window-height="480"
     id="namedview14"
     showgrid="false"
     inkscape:zoom="9.2709556"
     inkscape:cx="101.74616"
     inkscape:cy="130.88883"
     inkscape:window-x="1773"
     inkscape:window-y="224"
     inkscape:window-maximized="0"
     inkscape:current-layer="svg12" />
  <path
     style="fill:#080808"
     d="M 0.47005606,115.25 C -0.45829942,82.430013 0.54687053,22.052778 2.0465659,20.554269 3.3296541,19.272195 122.38959,19.055353 123.66714,20.332763 c 0.45807,0.458019 0.95882,28.020519 1.11277,61.25 L 125.05982,142 63.143266,142 1.2267142,142 0.47005606,115.25 Z M 109.66772,138.15606 c 5.04225,-0.36083 9.54225,-1.03078 10,-1.48878 2.64777,-2.64916 2.44269,-106.767305 -0.21745,-110.403592 C 118.24496,24.616097 114.56955,24.5 63.615257,24.5 c -49.172993,0 -54.7058965,0.161168 -56.1807915,1.63649 -1.4301975,1.430611 -1.7037948,6.02249 -2.1747747,36.5 -0.5567393,36.027076 0.3028199,71.0344 1.8039799,73.47081 0.5681901,0.92218 3.6585693,1.58893 9.1472133,1.97351 11.598345,0.81268 82.355895,0.86965 93.456836,0.0752 z M 40.266268,127.91021 c -0.55278,-2.11383 -1.288048,-2.15559 -6.940503,-0.39413 -1.843183,0.57439 -2.223837,0.2441 -2.5,-2.16926 C 30.537157,122.82471 30.100792,122.49868 27,122.48846 22.059268,122.47218 20.757023,121.38275 21.520909,117.9048 22.090064,115.31346 21.893775,115 19.7019,115 16.037898,115 14.281745,112.45114 16.361988,110.1525 18.499856,107.79018 18.429623,107 16.081787,107 12.889917,107 11,105.8843 11,104 c 0,-0.98231 0.675,-2.04504 1.5,-2.36163 2.106183,-0.80821 1.865529,-2.928999 -0.5,-4.406297 C 8.5265768,95.062884 10.066709,90 14.2,90 c 2.436275,0 2.268454,-1.800083 -0.366759,-3.93395 -2.770258,-2.243219 -1.858188,-4.817819 1.857699,-5.243929 2.194349,-0.251631 2.72649,-0.759784 2.431739,-2.322121 -0.90503,-4.797131 -0.762049,-5.008387 3.227279,-4.768323 3.302127,0.198711 3.748779,-0.01473 3.138913,-1.5 -1.885199,-4.591212 -0.558952,-5.524613 5.261129,-3.702738 1.920192,0.601083 2.25,0.338723 2.25,-1.789863 0,-1.371803 0.658281,-3.040511 1.462847,-3.708242 1.188226,-0.986139 1.913744,-0.72753 3.864671,1.377555 C 40.339503,67.658375 41.79028,67.681806 43,64.5 44.174562,61.410668 47.94675,61.080368 48.710251,64 49.802777,68.177824 52.166833,65.734743 55,57.5 c 1.094173,-3.18027 2.49689,-6.393789 3.117148,-7.141154 5.879174,-7.083972 30.449148,14.58144 35.475087,31.281368 C 95.573343,88.222936 95.378349,92.621651 93,95 c -1.672291,1.672291 -3.351801,2.003643 -10.25,2.022236 -8.213875,0.02214 -8.239518,0.03029 -5.85618,1.862785 C 79.813104,101.12959 78.925466,103 74.940983,103 c -3.467699,0 -3.779006,1.29962 -0.809523,3.37952 2.726618,1.9098 1.787908,4.62048 -1.600075,4.62048 -2.657593,0 -3.331846,1.79954 -1.398602,3.73278 2.260335,2.26034 0.232019,4.20068 -3.720629,3.55925 l -3.692359,-0.59919 0.670787,3.5756 c 0.823149,4.38776 -0.560928,5.50519 -4.015346,3.24177 C 57.19092,122.42376 55,123.19795 55,126.4096 c 0,3.48039 -1.763211,4.16148 -4.388479,1.69517 C 47.804835,125.46802 46.313321,125.43745 45.5,128 c -0.850399,2.67937 -4.526071,2.61631 -5.233732,-0.0898 z m 12.0437,-22.72419 c 0.827276,-0.92731 1.658465,-2.81102 1.847085,-4.18602 0.323409,-2.357572 0.04849,-2.517059 -4.825637,-2.799436 -6.821981,-0.395224 -7.980007,-1.812374 -6.321491,-7.736013 0.69633,-2.487047 0.973309,-4.814651 0.615508,-5.172452 -1.11419,-1.11419 -7.439989,2.495244 -9.271224,5.290063 -2.036383,3.107912 -2.119763,8.0382 -0.204115,12.069348 0.98327,2.06913 2.70207,3.29587 6.282025,4.48363 5.352749,1.77594 9.103763,1.16041 11.877849,-1.94912 z M 53.029806,90.055694 C 51.415409,87.039165 49.822133,86.522763 48.348296,88.538354 46.285645,91.359198 46.690471,92 50.535184,92 c 3.191552,0 3.434037,-0.188993 2.494622,-1.944306 z m 34.43863,-3.599083 C 87.417053,78.246619 83.359858,71.30451 74.169302,63.700978 61.74028,53.418198 60.226489,53.174305 57.859892,61.073302 56.272134,66.372766 58.45361,69.87144 63.208795,69.65193 66.178116,69.514859 66.5,69.772082 66.5,72.281989 c 0,3.096533 1.806621,4.679664 5.366577,4.702698 2.464734,0.01595 2.514563,0.580122 0.597525,6.765313 -0.59536,1.920888 -0.330274,2.25 1.812278,2.25 3.178639,0 4.561237,2.968198 1.727746,3.709172 -4.391125,1.148305 -1.622577,2.365494 4.745874,2.086518 L 87.5,91.5 87.468436,86.456611 Z M 107.72459,105.24817 C 101.66792,98.555626 104.29248,89 112.18732,89 115.55014,89 117,91.405221 117,96.983918 c 0,8.257262 -5.13845,12.835542 -9.27541,8.264252 z M 112.5,97.430362 c 0,-2.924626 -0.43943,-3.987597 -1.75302,-4.240574 -2.42134,-0.466306 -3.22048,2.252872 -1.72393,5.865862 1.67373,4.04074 3.47695,3.19783 3.47695,-1.625288 z M 57,42 C 54.593076,39.593076 54.499331,38.159818 56.556704,35.222506 57.647158,33.665665 59.13338,33 61.518865,33 c 3.005829,0 3.615257,-0.46801 5.193296,-3.98819 1.363353,-3.041276 2.128818,-3.771598 3.223963,-3.075952 1.230417,0.781571 1.176327,1.488366 -0.377625,4.934414 C 67.648789,35.105252 67.974868,38 70.361626,38 c 1.496436,0 3.087998,2.883709 2.123747,3.84796 -0.308937,0.308937 -1.853969,0.07393 -3.433406,-0.522243 -2.3572,-0.889743 -3.380548,-0.748459 -5.711834,0.788579 C 59.787397,44.456647 59.450575,44.450575 57,42 Z m 4,-4.2 c 0,-1.615417 -0.295711,-1.904289 -1.112868,-1.087132 -0.612077,0.612077 -0.810519,1.602077 -0.440983,2.2 C 60.480541,40.586548 61,40.214511 61,37.8 Z M 90.923077,14.076923 C 87.466285,10.620131 87.379625,9.9662405 89.966731,6.860784 L 91.933461,4.5 91.966731,8.0950124 C 91.998578,11.536351 94.349999,15 96.654427,15 c 0.54832,0 2.030423,-1.100087 3.293562,-2.444637 1.691941,-1.800986 2.127751,-3.1174418 1.655261,-5.0000001 C 100.91706,4.8213574 101.84737,4.2473694 103.8,6.2 c 2.09882,2.0988218 1.31579,5.524785 -1.87673,8.211106 -4.031893,3.392619 -7.374953,3.291058 -11.000193,-0.334183 z m 4.452268,-6.7860248 c -0.375809,-1.534994 -1.074637,-3.0490289 -1.552951,-3.364522 -0.478315,-0.315493 -0.01251,-1.3493346 1.035117,-2.2974258 1.803656,-1.63228583 1.997835,-1.63074724 3.657563,0.028981 1.124616,1.124616 1.346403,1.8882431 0.618855,2.1307592 C 98.510268,3.9965774 98,5.227609 98,6.5243163 98,9.9917035 96.167605,10.52689 95.375345,7.2908982 Z"
     id="path3507"
     inkscape:connector-curvature="0" />
</svg>
