<?xml version="1.0" encoding="UTF-8" standalone="no"?>
<!-- Created with Inkscape (http://www.inkscape.org/) -->

<svg
   xmlns:dc="http://purl.org/dc/elements/1.1/"
   xmlns:cc="http://creativecommons.org/ns#"
   xmlns:rdf="http://www.w3.org/1999/02/22-rdf-syntax-ns#"
   xmlns:svg="http://www.w3.org/2000/svg"
   xmlns="http://www.w3.org/2000/svg"
   xmlns:sodipodi="http://sodipodi.sourceforge.net/DTD/sodipodi-0.dtd"
   xmlns:inkscape="http://www.inkscape.org/namespaces/inkscape"
   id="svg62"
   version="1.1"
   inkscape:version="0.91 r13725"
   width="125"
   height="144"
   viewBox="0 0 125 144"
   sodipodi:docname="smile.svg">
  <metadata
     id="metadata68">
    <rdf:RDF>
      <cc:Work
         rdf:about="">
        <dc:format>image/svg+xml</dc:format>
        <dc:type
           rdf:resource="http://purl.org/dc/dcmitype/StillImage" />
        <dc:title></dc:title>
      </cc:Work>
    </rdf:RDF>
  </metadata>
  <defs
     id="defs66" />
  <sodipodi:namedview
     pagecolor="#ffffff"
     bordercolor="#666666"
     borderopacity="1"
     objecttolerance="10"
     gridtolerance="10"
     guidetolerance="10"
     inkscape:pageopacity="0"
     inkscape:pageshadow="2"
     inkscape:window-width="640"
     inkscape:window-height="480"
     id="namedview64"
     showgrid="false"
     inkscape:zoom="1.6388889"
     inkscape:cx="47.702758"
     inkscape:cy="74.921964"
     inkscape:window-x="1839"
     inkscape:window-y="303"
     inkscape:window-maximized="0"
     inkscape:current-layer="svg62" />
  <path
     style="fill:#000000"
     d="m 0.49763863,133.75 c -0.3750448,-4.5375 -0.5279409,-31.5153 -0.3397691,-59.950659 0.2696185,-40.743098 0.6178253,-51.976045 1.64293107,-53 1.8302451,-1.82819 119.4808994,-1.918757 121.3056094,-0.09338 1.65633,1.656949 2.36907,46.439636 1.40922,88.544039 l -0.7466,32.75 -61.294744,0 -61.2947478,0 z M 118.7149,136.71408 C 120.38421,135.044 120.5,131.431 120.5,81.013887 120.5,38.109786 120.23452,26.834186 119.2,25.799815 117.29047,23.890558 8.709263,23.890737 6.8,25.800001 4.8623175,27.737683 4.8956433,133.96441 6.834667,136.30079 c 1.864672,2.24679 6.446218,2.41712 61.880234,2.30058 44.876749,-0.0943 48.338489,-0.22502 49.999999,-1.88729 z M 77.368203,73.967441 C 73.199996,72.685271 67.366786,66.075858 66.033526,61.124509 64.755857,56.379608 65.933133,49.916346 68.773944,46.079567 c 3.571695,-4.823905 8.043812,-7.079566 14.036082,-7.079566 11.447666,0 19.054444,8.335108 17.891354,19.604399 -0.65973,6.392178 -3.718681,11.836071 -7.851687,13.973331 -3.765135,1.947016 -11.432298,2.635276 -15.48149,1.38971 z m 8.869844,-9.332272 c 8.201642,0.143265 9.090797,-0.764168 3.171994,-3.237202 -4.286908,-1.791185 -8.573608,-1.77429 -12.94216,0.05101 -4.307875,1.799945 -4.907695,4.991783 -0.717881,3.820079 1.5125,-0.422979 6.232121,-0.708227 10.488047,-0.633887 z M 78.865518,54.275824 c 1.144175,-2.044528 -0.26066,-5.275823 -2.293713,-5.275823 -1.722831,0 -2.795405,2.720138 -2.027092,5.140877 0.740821,2.334122 3.049729,2.406233 4.320805,0.134946 z m 12.932739,-2.688318 c -0.188017,-1.315936 -1.032421,-2.087505 -2.284562,-2.087505 -2.347046,0 -3.204083,2.963207 -1.463592,5.06037 1.623835,1.956602 4.16454,-0.05857 3.748154,-2.972865 z M 31.290337,72.035491 C 21.99067,66.36519 21.595972,49.182571 30.602648,42.097918 c 7.024922,-5.525804 17.87744,-4.593322 24.099624,2.070716 2.800055,2.998895 4.611287,9.016945 4.611287,12.679175 0,3.997006 -3.953381,12.759534 -7.303977,15.145372 -3.964604,2.823036 -16.117953,2.847856 -20.719245,0.0423 z m 15.63757,-5.651975 c 2.655186,-1.568457 5.596919,-5.192022 4.834234,-5.954708 -0.20704,-0.207039 -2.467606,0.736782 -5.023482,2.097379 -5.785804,3.080021 -6.537772,3.074831 -10.794379,-0.07451 -3.074456,-2.274699 -3.483228,-2.360098 -3.807017,-0.795347 -0.2048,0.989723 0.799137,2.752373 2.305764,4.04832 3.182442,2.737421 8.509652,3.027087 12.48488,0.678866 z M 37.260801,53.110699 c 0.671902,-2.569356 -0.709327,-4.536296 -2.659876,-3.7878 -2.34822,0.901096 -2.110607,5.677102 0.282444,5.677102 1.035852,0 2.105697,-0.850186 2.377432,-1.889302 z m 12.365948,-0.593734 c 0.303208,-2.122458 -1.488293,-4.138579 -3.786607,-2.757106 -0.849155,0.510411 -1.232266,2.807077 -0.170163,4.108802 2.010641,2.464262 3.794974,-0.219126 3.95677,-1.351696 z M 19.454545,14.545456 C 17.066063,12.156973 16.373406,8.7964536 17.606989,5.5817876 18.711594,2.7032336 20,3.9392836 20,7.8775556 20,11.744081 20.914795,13.123876 24.272681,14.322085 26.954414,15.279019 30,11.651276 30,7.5000006 c 0,-4.132078 1.633159,-4.595063 3.051319,-0.865021 0.776329,2.0419 0.618861,3.223567 -0.699612,5.2500004 -3.732506,5.736697 -8.779771,6.777866 -12.897162,2.660476 z m 72.308162,0.889228 c -3.197228,-1.7348 -4.408684,-5.359146 -2.797565,-8.3695514 1.449653,-2.708701 3.228776,-1.685945 2.45187,1.409495 -0.406674,1.6203184 0.05884,3.0012284 1.49633,4.4387154 2.694086,2.694086 4.22584,2.631859 6.96413,-0.282917 1.654888,-1.761548 2.056698,-3.0445374 1.565908,-5.0000014 -0.853,-3.398599 1.19082,-3.527384 2.71991,-0.171388 1.37771,3.0237464 -0.8971,7.1090624 -4.780688,8.5855994 -3.29295,1.251977 -4.343328,1.167897 -7.619895,-0.609952 z M 22.158866,10.319396 C 21.510569,9.1609516 21.650479,8.2066646 22.609176,7.2479666 23.374129,6.4830136 24,4.5127286 24,2.8695546 c 0,-1.737081 0.418567,-2.728899 1,-2.369554 0.55,0.339919 1,1.684333 1,2.987588 0,1.303255 0.625871,2.995425 1.390824,3.760378 C 29.166349,9.0234926 27.66882,12.000001 25,12.000001 c -1.045341,0 -2.323851,-0.756272 -2.841134,-1.680605 z m 73.34708,-1.8193954 c -0.358568,-1.1 -1.10851,-2.844511 -1.666538,-3.876692 -0.757872,-1.401831 -0.612886,-2.278401 0.572998,-3.464285 1.395386,-1.395387 1.765217,-1.409971 3.054724,-0.120465 1.269962,1.269962 1.280572,2.004311 0.07894,5.464286 -1.156724,3.330681 -1.49689,3.6636814 -2.040124,1.997156 z"
     id="path3400"
     inkscape:connector-curvature="0"
     sodipodi:nodetypes="ssssscccsssssssssssssssssssssssssssscssssccssssssssssssssssssssssssssssssssssssssssssssss" />
</svg>
