<?xml version="1.0" encoding="UTF-8" standalone="no"?>
<!-- Created with Inkscape (http://www.inkscape.org/) -->

<svg
   xmlns:dc="http://purl.org/dc/elements/1.1/"
   xmlns:cc="http://creativecommons.org/ns#"
   xmlns:rdf="http://www.w3.org/1999/02/22-rdf-syntax-ns#"
   xmlns:svg="http://www.w3.org/2000/svg"
   xmlns="http://www.w3.org/2000/svg"
   xmlns:sodipodi="http://sodipodi.sourceforge.net/DTD/sodipodi-0.dtd"
   xmlns:inkscape="http://www.inkscape.org/namespaces/inkscape"
   id="svg2"
   version="1.1"
   inkscape:version="0.91 r13725"
   width="125"
   height="144"
   viewBox="0 0 125 144"
   sodipodi:docname="streaming.svg">
  <metadata
     id="metadata8">
    <rdf:RDF>
      <cc:Work
         rdf:about="">
        <dc:format>image/svg+xml</dc:format>
        <dc:type
           rdf:resource="http://purl.org/dc/dcmitype/StillImage" />
        <dc:title />
      </cc:Work>
    </rdf:RDF>
  </metadata>
  <defs
     id="defs6" />
  <sodipodi:namedview
     pagecolor="#ffffff"
     bordercolor="#666666"
     borderopacity="1"
     objecttolerance="10"
     gridtolerance="10"
     guidetolerance="10"
     inkscape:pageopacity="0"
     inkscape:pageshadow="2"
     inkscape:window-width="1920"
     inkscape:window-height="1055"
     id="namedview4"
     showgrid="false"
     inkscape:zoom="4.6354778"
     inkscape:cx="82.253902"
     inkscape:cy="85.591948"
     inkscape:window-x="1366"
     inkscape:window-y="0"
     inkscape:window-maximized="1"
     inkscape:current-layer="svg2" />
  <path
     style="fill:#090909"
     d="M 0.47158741,124.25 C -0.63428361,97.845162 0.41579111,22.184129 1.9088423,20.691474 3.7216189,18.879178 121.38417,18.983897 123.20021,20.799422 c 1.03109,1.030796 1.3577,13.692827 1.57992,61.25 L 125.06027,142 63.137625,142 1.2149819,142 Z M 119.20089,137.2 C 121.10931,135.29027 121.10844,27.708445 119.2,25.8 118.16519,24.765188 106.8,24.5 63.485714,24.5 12.581333,24.5 8.956244,24.615185 7.2857143,26.285714 5.6160905,27.955338 5.5,31.537186 5.5,81.38202 c 0,42.81039 0.2611947,53.62531 1.3261118,54.90846 0.7293615,0.87882 2.9793615,1.78519 5.0000002,2.01414 2.020638,0.22896 26.71429,0.36658 54.874781,0.30583 40.561747,-0.0875 51.470837,-0.38058 52.499997,-1.41045 z M 37.196594,103.95724 c -6.6,-0.39607 -12.1125,-0.78114 -12.25,-0.85571 -0.1375,-0.0746 -0.25,-9.34476 -0.25,-20.600409 0,-19.209508 0.118647,-20.528314 1.934259,-21.5 1.203286,-0.643979 12.683216,-1.035184 30.377555,-1.035184 29.845151,0 29.995861,0.02198 30.858041,4.5 0.29944,1.555243 0.435931,3.762836 2.747439,3.5262 1.634896,-0.16737 6.170206,-2.375347 9.332706,-2.669329 l 5.749996,-0.534513 0,17.588821 0,17.588821 -4.75,-0.0062 c -2.612496,-0.0034 -6.048136,-0.683162 -7.634751,-1.510608 -3.06435,-1.59811 -5.615245,-0.642291 -5.615245,2.104032 0,0.7383 -0.7875,1.75007 -1.75,2.24837 -2.446788,1.26674 -34.311511,2.02212 -48.75,1.15567 z m 23.667734,-7.021169 c 4.56694,-1.268467 9.513306,-6.753008 10.412329,-11.545214 0.730594,-3.894403 -0.621559,-9.748182 -2.989937,-12.94412 -1.385316,-1.869373 -1.565469,-1.88465 -3.202523,-0.271571 -1.533359,1.510904 -1.584682,2.163586 -0.442312,5.625 1.020456,3.092012 1.040859,4.677708 0.09699,7.53767 -1.5058,4.562608 -4.416925,6.628101 -9.34171,6.628101 -7.291276,0 -12.201604,-7.379623 -8.704157,-13.914662 1.196512,-2.235704 0.321856,-6.085338 -1.58035,-6.085338 -2.112964,0 -4.619929,4.570614 -5.081504,9.264428 -0.581067,5.908934 2.76513,11.524629 8.631446,14.485572 4.974169,2.510643 6.872117,2.700432 12.201728,1.220134 z M 58.696594,74.465937 c 0,-8.29866 -0.05668,-8.5 -2.393011,-8.5 -2.926094,0 -3.606989,1.604553 -3.606989,8.5 0,6.895447 0.680895,8.5 3.606989,8.5 2.336328,0 2.393011,-0.20134 2.393011,-8.5 z M 22.356999,16.999099 C 17.929641,15.231694 15.573416,8.7198053 18.015313,5 c 0.875277,-1.3333333 1.096904,-1.3333333 1.994639,0 0.555473,0.825 0.77362,2.5056467 0.48477,3.7347704 C 19.923084,11.167226 22.941382,15 25.428571,15 27.889855,15 30,11.993909 30,8.4875884 30,4.4712377 31.485928,3.1709302 32.949827,5.9062504 34.591349,8.9734629 34.216611,10.737062 31.25,13.906009 c -3.163343,3.379096 -5.842385,4.310899 -8.893001,3.09309 z M 91.694561,15.888876 C 89.127206,14.395328 87.762224,10.312806 89.035041,7.9345251 90.646044,4.9243379 92,5.6490059 92,9.5214388 c 0,2.7894822 0.521699,3.7591412 2.509891,4.6650222 2.161059,0.984644 2.860718,0.813998 5.034128,-1.227815 1.965931,-1.846899 2.388521,-2.9892816 1.910651,-5.1650213 -0.72782,-3.3137427 0.9537,-3.7676141 2.59518,-0.7004839 3.23979,6.0536082 -5.892921,12.5551912 -12.355289,8.7957352 z M 23.45909,11.574037 C 21.790425,10.337093 21.685306,9.8183014 22.75,8.0744728 23.4375,6.9484385 24,4.9225894 24,3.5725858 c 0,-3.99198892 1.722678,-3.86437571 2.482134,0.1838725 0.385788,2.056427 1.22263,4.0626752 1.859649,4.4583292 0.810335,0.5033009 0.54521,1.3339229 -0.882693,2.7654245 -1.82475,1.829348 -2.248405,1.892242 -4,0.593825 z M 95.419939,8.3133821 C 95.108675,7.3160219 94.462245,5.759265 93.983429,4.8539222 93.38073,3.7143435 93.660948,2.7118256 94.894113,1.5958267 96.53845,0.10772195 96.808159,0.13053648 98.402829,1.8926271 99.533003,3.1414552 99.762003,4.029056 99.065143,4.4597396 98.479314,4.8218015 98,5.9649187 98,7 c 0,2.5828413 -1.884491,3.542143 -2.580061,1.3133821 z"
     id="path3528"
     inkscape:connector-curvature="0"
     sodipodi:nodetypes="sssscccsssssssssssssssssscccsssssssssssssssssssssssssssssssssssssssssssssssssssss" />
</svg>
