<?xml version="1.0" encoding="UTF-8" standalone="no"?>
<!-- Created with Inkscape (http://www.inkscape.org/) -->

<svg
   xmlns:dc="http://purl.org/dc/elements/1.1/"
   xmlns:cc="http://creativecommons.org/ns#"
   xmlns:rdf="http://www.w3.org/1999/02/22-rdf-syntax-ns#"
   xmlns:svg="http://www.w3.org/2000/svg"
   xmlns="http://www.w3.org/2000/svg"
   xmlns:sodipodi="http://sodipodi.sourceforge.net/DTD/sodipodi-0.dtd"
   xmlns:inkscape="http://www.inkscape.org/namespaces/inkscape"
   id="svg2"
   version="1.1"
   inkscape:version="0.91 r13725"
   width="125"
   height="144"
   viewBox="0 0 125 144"
   sodipodi:docname="streaming.svg">
  <metadata
     id="metadata8">
    <rdf:RDF>
      <cc:Work
         rdf:about="">
        <dc:format>image/svg+xml</dc:format>
        <dc:type
           rdf:resource="http://purl.org/dc/dcmitype/StillImage" />
        <dc:title></dc:title>
      </cc:Work>
    </rdf:RDF>
  </metadata>
  <defs
     id="defs6" />
  <sodipodi:namedview
     pagecolor="#ffffff"
     bordercolor="#666666"
     borderopacity="1"
     objecttolerance="10"
     gridtolerance="10"
     guidetolerance="10"
     inkscape:pageopacity="0"
     inkscape:pageshadow="2"
     inkscape:window-width="640"
     inkscape:window-height="480"
     id="namedview4"
     showgrid="false"
     inkscape:zoom="2.3177389"
     inkscape:cx="67.066375"
     inkscape:cy="94.565447"
     inkscape:window-x="1845"
     inkscape:window-y="247"
     inkscape:window-maximized="0"
     inkscape:current-layer="svg2" />
  <path
     style="fill:#090909"
     d="M 0.47158741,124.25 C -0.63428361,97.845162 0.41579111,22.184129 1.9088423,20.691474 3.7216189,18.879178 121.38417,18.983897 123.20021,20.799422 c 1.03109,1.030796 1.3577,13.692827 1.57992,61.25 L 125.06027,142 63.137625,142 1.2149819,142 Z M 119.20089,137.2 C 121.10931,135.29027 121.10844,27.708445 119.2,25.8 118.16519,24.765188 106.8,24.5 63.485714,24.5 12.581333,24.5 8.956244,24.615185 7.2857143,26.285714 5.6160905,27.955338 5.5,31.537186 5.5,81.38202 c 0,42.81039 0.2611947,53.62531 1.3261118,54.90846 0.7293615,0.87882 2.9793615,1.78519 5.0000002,2.01414 2.020638,0.22896 26.71429,0.36658 54.874781,0.30583 40.561747,-0.0875 51.470837,-0.38058 52.499997,-1.41045 z M 34.5,76.991301 C 27.9,76.595233 22.3875,76.210163 22.25,76.135589 22.1125,76.061015 22,66.790833 22,55.535184 22,36.325676 22.118647,35.00687 23.934259,34.035184 25.137545,33.391205 36.617475,33 54.311814,33 c 29.845151,0 29.995861,0.02198 30.858041,4.5 0.29944,1.555243 0.435931,3.762836 2.747439,3.5262 C 89.55219,40.85883 94.0875,38.650853 97.25,38.356871 L 103,37.822358 103,55.411179 103,73 98.25,72.993839 C 95.6375,72.990451 92.20186,72.310677 90.615245,71.483231 87.550895,69.885121 85,70.84094 85,73.587261 c 0,0.738304 -0.7875,1.750072 -1.75,2.248373 -2.446788,1.266739 -34.311511,2.022124 -48.75,1.155667 z m 23.667734,-7.021167 c 4.56694,-1.268467 9.513306,-6.753008 10.412329,-11.545214 0.730594,-3.894403 -0.621559,-9.748182 -2.989937,-12.94412 -1.385316,-1.869373 -1.565469,-1.88465 -3.202523,-0.271571 -1.533359,1.510904 -1.584682,2.163586 -0.442312,5.625 1.020456,3.092012 1.040859,4.677708 0.09699,7.53767 C 60.536481,62.934507 57.625356,65 52.700571,65 45.409295,65 40.498967,56.54174 43.996414,50.006701 45.192926,47.770997 44.31827,45 42.416064,45 40.3031,45 37.796135,49.570614 37.33456,54.264428 36.753493,60.173362 40.09969,65.789057 45.966006,68.75 c 4.974169,2.510643 6.872117,2.700432 12.201728,1.220134 z M 56,47.5 C 56,39.20134 55.943317,39 53.606989,39 50.680895,39 50,40.604553 50,47.5 50,54.395447 50.680895,56 53.606989,56 55.943317,56 56,55.79866 56,47.5 Z M 22.356999,16.999099 C 17.929641,15.231694 15.573416,8.7198053 18.015313,5 c 0.875277,-1.3333333 1.096904,-1.3333333 1.994639,0 0.555473,0.825 0.77362,2.5056467 0.48477,3.7347704 C 19.923084,11.167226 22.941382,15 25.428571,15 27.889855,15 30,11.993909 30,8.4875884 30,4.4712377 31.485928,3.1709302 32.949827,5.9062504 34.591349,8.9734629 34.216611,10.737062 31.25,13.906009 c -3.163343,3.379096 -5.842385,4.310899 -8.893001,3.09309 z M 91.694561,15.888876 C 89.127206,14.395328 87.762224,10.312806 89.035041,7.9345251 90.646044,4.9243379 92,5.6490059 92,9.5214388 c 0,2.7894822 0.521699,3.7591412 2.509891,4.6650222 2.161059,0.984644 2.860718,0.813998 5.034128,-1.227815 1.965931,-1.846899 2.388521,-2.9892816 1.910651,-5.1650213 -0.72782,-3.3137427 0.9537,-3.7676141 2.59518,-0.7004839 3.23979,6.0536082 -5.892921,12.5551912 -12.355289,8.7957352 z M 23.45909,11.574037 C 21.790425,10.337093 21.685306,9.8183014 22.75,8.0744728 23.4375,6.9484385 24,4.9225894 24,3.5725858 c 0,-3.99198892 1.722678,-3.86437571 2.482134,0.1838725 0.385788,2.056427 1.22263,4.0626752 1.859649,4.4583292 0.810335,0.5033009 0.54521,1.3339229 -0.882693,2.7654245 -1.82475,1.829348 -2.248405,1.892242 -4,0.593825 z M 95.419939,8.3133821 C 95.108675,7.3160219 94.462245,5.759265 93.983429,4.8539222 93.38073,3.7143435 93.660948,2.7118256 94.894113,1.5958267 96.53845,0.10772195 96.808159,0.13053648 98.402829,1.8926271 99.533003,3.1414552 99.762003,4.029056 99.065143,4.4597396 98.479314,4.8218015 98,5.9649187 98,7 c 0,2.5828413 -1.884491,3.542143 -2.580061,1.3133821 z"
     id="path3528"
     inkscape:connector-curvature="0"
     sodipodi:nodetypes="sssscccsssssssssssssssssscccsssssssssssssssssssssssssssssssssssssssssssssssssssss" />
</svg>
