<?xml version="1.0" encoding="UTF-8" standalone="no"?>
<!-- Created with Inkscape (http://www.inkscape.org/) -->

<svg
   xmlns:dc="http://purl.org/dc/elements/1.1/"
   xmlns:cc="http://creativecommons.org/ns#"
   xmlns:rdf="http://www.w3.org/1999/02/22-rdf-syntax-ns#"
   xmlns:svg="http://www.w3.org/2000/svg"
   xmlns="http://www.w3.org/2000/svg"
   xmlns:sodipodi="http://sodipodi.sourceforge.net/DTD/sodipodi-0.dtd"
   xmlns:inkscape="http://www.inkscape.org/namespaces/inkscape"
   id="svg42"
   version="1.1"
   inkscape:version="0.91 r13725"
   width="125"
   height="144"
   viewBox="0 0 125 144"
   sodipodi:docname="subprogramCall.svg">
  <metadata
     id="metadata48">
    <rdf:RDF>
      <cc:Work
         rdf:about="">
        <dc:format>image/svg+xml</dc:format>
        <dc:type
           rdf:resource="http://purl.org/dc/dcmitype/StillImage" />
        <dc:title></dc:title>
      </cc:Work>
    </rdf:RDF>
  </metadata>
  <defs
     id="defs46" />
  <sodipodi:namedview
     pagecolor="#ffffff"
     bordercolor="#666666"
     borderopacity="1"
     objecttolerance="10"
     gridtolerance="10"
     guidetolerance="10"
     inkscape:pageopacity="0"
     inkscape:pageshadow="2"
     inkscape:window-width="640"
     inkscape:window-height="480"
     id="namedview44"
     showgrid="false"
     inkscape:zoom="2.3177389"
     inkscape:cx="84.17448"
     inkscape:cy="62.142747"
     inkscape:window-x="1548"
     inkscape:window-y="272"
     inkscape:window-maximized="0"
     inkscape:current-layer="svg42" />
  <path
     style="fill:#0c0c0c"
     d="M 0.49488844,139.24297 C -0.4475049,131.56843 0.33798557,21.716479 1.3425085,20.702132 1.8042604,20.235863 29.308052,19.854371 62.462044,19.854371 c 48.105296,0 60.544296,0.26724 61.588636,1.323174 1.58745,1.605075 2.45423,69.905079 1.30451,102.791835 l -0.72086,20.61935 -61.741502,0 -61.7415092,0 z M 119.55562,139.18442 c 1.65292,-1.67152 1.77608,-5.60305 1.77608,-56.693733 0,-43.669493 -0.26756,-55.168402 -1.3082,-56.221376 -1.03012,-1.042359 -12.05314,-1.3908 -51.85567,-1.639206 -27.801106,-0.173505 -52.925817,-0.02604 -55.832692,0.327698 -4.6320153,0.563673 -5.3786874,0.9802 -6.0414368,3.370183 -0.4159161,1.499862 -0.7562111,26.645612 -0.7562111,55.879447 0,42.165127 0.2697174,53.425987 1.3047923,54.475827 2.1102015,2.14028 15.0058846,2.63306 64.3818366,2.46021 43.008821,-0.15058 46.690721,-0.29983 48.331501,-1.95908 z m -88.009175,-19.9133 c -7.847011,-0.35613 -14.643627,-1.02923 -15.103593,-1.49579 -0.459965,-0.46655 -0.8363,-16.13711 -0.8363,-34.823479 0,-26.519274 0.287258,-34.265759 1.308978,-35.299225 1.765047,-1.785336 89.09127,-1.955114 90.84996,-0.176629 1.49657,1.51341 2.51456,39.399454 1.52238,56.657363 -0.61225,10.64956 -1.05489,13.16856 -2.44628,13.92159 -2.18451,1.18227 -56.655681,2.06209 -75.295145,1.21617 z m 62.347062,-2.84525 12.838053,-0.66212 0,-27.84446 0,-27.844452 -43.642291,0 C 37.626268,61.686544 19.22633,58.845734 18.785397,77.038417 c -0.363869,9.329968 -0.66158,21.906738 -0.66158,27.948373 0.639458,9.10484 0.583356,10.50511 5.286258,11.35878 9.801717,0.69342 57.54103,0.74782 70.483432,0.0803 z m -42.541786,-1.22227 -6.54489,-0.65294 -0.27063,-23.164957 -0.270631,-23.164948 30.22609,0 30.22609,0 0,23.419508 0,23.419517 -15.35532,0.006 c -8.445426,0.003 -18.980182,0.18263 -23.410569,0.39838 -4.430387,0.21575 -11.00045,0.0985 -14.60014,-0.26066 z M 102.70394,96.814743 c 0,-9.47473 0.27502,-17.95158 0.61118,-18.837433 0.54869,-1.445957 -2.38544,-1.610638 -28.696829,-1.610638 l -29.308007,0 0,16.225543 c 0,8.924055 0.441893,17.400905 0.981984,18.837435 l 0.981985,2.61189 27.714842,0 27.714845,0 z m -2.25928,-24.775589 c -0.641645,-1.976069 -5.795973,-2.262593 -5.795973,-0.322194 0,1.102968 0.957719,1.594993 3.104627,1.594993 2.032855,0 2.961956,-0.439395 2.691346,-1.272799 z m 1.75582,-18.582874 c 0,-3.022939 -0.0575,-3.054719 -5.524191,-3.054719 -4.528568,0 -5.587396,0.331876 -5.874868,1.841398 -0.748854,3.932251 0.54103,4.899674 6.101546,4.576207 5.147133,-0.29942 5.297513,-0.39488 5.297513,-3.362886 z M 95.226113,14.930545 c -2.932711,-2.965721 -3.268397,-5.4913391 -1.112902,-8.3732343 1.3859,-1.8529477 1.480339,-1.739248 1.51036,1.8183897 0.05627,6.6685086 6.820679,8.7875346 9.957479,3.1192926 0.5763,-1.041383 0.59192,-2.6670781 0.0397,-4.1357951 -0.75912,-2.0191316 -0.6174,-2.3639076 0.85567,-2.0815976 1.21274,0.2324204 1.85959,1.4677681 2.06605,3.9457673 0.36442,4.3737554 -1.95883,6.8889964 -7.15006,7.7408964 -2.944154,0.483149 -4.032376,0.124242 -6.166317,-2.033719 z M 18.884775,14.276966 c -2.830966,-2.251902 -3.845041,-5.7226012 -2.636968,-9.0250925 1.276101,-3.4884555 2.882917,-2.5571918 2.882917,1.6708529 0,4.3802166 1.411183,6.3130866 4.609168,6.3130866 2.882543,0 4.21407,-1.761046 4.622444,-6.1135269 0.464534,-4.9510224 3.247426,-4.8573229 3.659238,0.123207 0.253923,3.0709779 -0.219025,4.1284539 -2.846246,6.3639989 -3.75824,3.197944 -6.856731,3.398921 -10.290553,0.667474 z M 22.436141,9.6571988 C 20.438396,8.2421746 20.381326,7.9035865 21.70731,5.333128 c 0.791247,-1.5338569 1.441423,-3.43796 1.444835,-4.2313377 0.0095,-2.2009362 1.239992,-0.47733647 2.67699,3.7496615 1.032216,3.0363143 1.038735,4.0512335 0.03255,5.068738 -1.006179,1.0175042 -1.692082,0.9648442 -3.425544,-0.262991 z M 99.683213,7.8391421 c 0,-1.2880732 -0.546961,-2.8950733 -1.215475,-3.5711111 C 97.51837,3.3079756 97.628593,2.6583 98.971191,1.3005894 c 1.620639,-1.63888118 1.817229,-1.63888118 3.437859,0 1.3426,1.3577106 1.45283,2.0073862 0.50346,2.9674416 -0.66852,0.6760378 -1.21548,2.2830379 -1.21548,3.5711111 0,1.2880732 -0.45311,2.3419509 -1.00691,2.3419509 -0.5538,0 -1.006907,-1.0538777 -1.006907,-2.3419509 z"
     id="path3409"
     inkscape:connector-curvature="0"
     sodipodi:nodetypes="ssssscccscscssssssccssssssssscccccccscccccccccsccssscsscccsssssssssscssscsssccsssssssssscsssssssssss" />
</svg>
