<?xml version="1.0" encoding="UTF-8" standalone="no"?>
<!-- Created with Inkscape (http://www.inkscape.org/) -->

<svg
   xmlns:dc="http://purl.org/dc/elements/1.1/"
   xmlns:cc="http://creativecommons.org/ns#"
   xmlns:rdf="http://www.w3.org/1999/02/22-rdf-syntax-ns#"
   xmlns:svg="http://www.w3.org/2000/svg"
   xmlns="http://www.w3.org/2000/svg"
   xmlns:sodipodi="http://sodipodi.sourceforge.net/DTD/sodipodi-0.dtd"
   xmlns:inkscape="http://www.inkscape.org/namespaces/inkscape"
   id="svg52"
   version="1.1"
   inkscape:version="0.91 r13725"
   width="125"
   height="125"
   viewBox="0 0 125 125"
   sodipodi:docname="supressing.svg">
  <metadata
     id="metadata58">
    <rdf:RDF>
      <cc:Work
         rdf:about="">
        <dc:format>image/svg+xml</dc:format>
        <dc:type
           rdf:resource="http://purl.org/dc/dcmitype/StillImage" />
        <dc:title></dc:title>
      </cc:Work>
    </rdf:RDF>
  </metadata>
  <defs
     id="defs56" />
  <sodipodi:namedview
     pagecolor="#ffffff"
     bordercolor="#666666"
     borderopacity="1"
     objecttolerance="10"
     gridtolerance="10"
     guidetolerance="10"
     inkscape:pageopacity="0"
     inkscape:pageshadow="2"
     inkscape:window-width="640"
     inkscape:window-height="480"
     id="namedview54"
     showgrid="false"
     inkscape:zoom="1.888"
     inkscape:cx="-2.1693602"
     inkscape:cy="104.90677"
     inkscape:window-x="1888"
     inkscape:window-y="174"
     inkscape:window-maximized="0"
     inkscape:current-layer="svg52" />
  <path
     style="fill:#0b0b0b"
     d="M 1.6666667,123.33333 C 0.59861934,122.26529 0.90341372,4.7012813 1.9786408,3 4.2646353,-0.61702195 121.75581,-0.58069193 124.04449,3.0377446 124.58392,3.8905855 124.97576,29.40161 124.98469,64.25 L 125,124 63.666667,124 C 29.933333,124 2.0333333,123.7 1.6666667,123.33333 Z M 116.74194,119.41006 c 2.46819,-0.37889 3.42287,-1.14355 4,-3.20386 0.9777,-3.49028 0.99545,-102.861268 0.019,-106.3367081 -0.42671,-1.5187682 -1.69461,-2.8865551 -3,-3.2363454 C 116.51742,6.2999361 91.7625,6.0211648 62.75,6.0136547 11.323888,6.0003427 9.9498052,6.0501948 8,8 6.0504966,9.9495034 6,11.333333 6,62.80887 c 0,43.99388 0.2365968,53.13289 1.4174055,54.75 1.2992516,1.77932 3.1539945,1.98907 22.2499995,2.51627 22.272093,0.61487 81.693115,0.16102 87.074535,-0.66508 z M 42,69.752757 c 0,-9.805428 -0.792702,-12.182669 0.507895,-12.681755 0.86197,-0.330769 2.07697,2.026995 4.156568,1.723122 2.336716,-0.341443 6.297819,0.467743 6.988203,-1.331369 0.324443,-0.845485 -0.209425,-2.420485 -1.186372,-3.5 C 50.573381,51.87111 47,51.287212 47,53.069551 c 0,0.588253 -1.0125,0.925753 -2.25,0.75 C 42.588686,53.512595 42.488855,53.056572 42.217249,42.25 L 41.934498,31 l 2.473734,0 c 1.360554,0 2.751849,0.45 3.091768,1 0.875323,1.416302 5.054485,1.241739 6.303555,-0.263298 0.576644,-0.694814 1.581508,-3.380284 2.233029,-5.967711 0.754599,-2.996784 1.851845,-4.916192 3.022848,-5.287854 2.372815,-0.753102 3.448278,-4.164457 1.900742,-6.029125 C 60.242538,13.587314 57.984465,13 55.377555,13 50.148242,13 49.257016,10.598597 54.125,9.625 58.967268,8.6565464 71.573814,8.8874659 74.495075,9.9981274 78.041786,11.346585 76.740279,13 72.132113,13 c -5.094129,0 -7.75024,1.976503 -6.299332,4.687548 0.597302,1.11607 2.229278,2.77832 3.626612,3.693888 C 71.23846,22.547126 72,23.938438 72,26.023053 72,27.666667 72.895772,29.895772 74,31 c 2.109994,2.109994 6.455866,2.689444 7.5,1 0.964697,-1.560913 4.219276,-1.173938 4.893011,0.581787 0.788703,2.055327 0.788703,17.781099 0,19.836426 -0.701956,1.829269 -4.041554,2.136159 -4.612325,0.423846 -0.564487,-1.693463 -4.594514,0.340443 -6.241334,1.899309 -1.301595,1.232079 -1.579761,2.773936 -1.500917,9.017217 0.05073,4.017275 -1.581843,8.421814 -2.513392,9.843539 -2.589555,3.95216 -9.320136,9.147632 -19.949348,7.195328 C 45.087348,79.605715 48.355932,83.157266 42,81.568283 Z"
     id="path3388"
     inkscape:connector-curvature="0"
     sodipodi:nodetypes="sssscsssssssssssssssssssscsssssssssssssssssssssscs" />
</svg>
