<?xml version="1.0" encoding="UTF-8" standalone="no"?>
<!-- Created with Inkscape (http://www.inkscape.org/) -->

<svg
   xmlns:dc="http://purl.org/dc/elements/1.1/"
   xmlns:cc="http://creativecommons.org/ns#"
   xmlns:rdf="http://www.w3.org/1999/02/22-rdf-syntax-ns#"
   xmlns:svg="http://www.w3.org/2000/svg"
   xmlns="http://www.w3.org/2000/svg"
   xmlns:sodipodi="http://sodipodi.sourceforge.net/DTD/sodipodi-0.dtd"
   xmlns:inkscape="http://www.inkscape.org/namespaces/inkscape"
   id="svg42"
   version="1.1"
   inkscape:version="0.91 r13725"
   width="125"
   height="144"
   viewBox="0 0 125 144"
   sodipodi:docname="text.svg">
  <metadata
     id="metadata48">
    <rdf:RDF>
      <cc:Work
         rdf:about="">
        <dc:format>image/svg+xml</dc:format>
        <dc:type
           rdf:resource="http://purl.org/dc/dcmitype/StillImage" />
        <dc:title></dc:title>
      </cc:Work>
    </rdf:RDF>
  </metadata>
  <defs
     id="defs46" />
  <sodipodi:namedview
     pagecolor="#ffffff"
     bordercolor="#666666"
     borderopacity="1"
     objecttolerance="10"
     gridtolerance="10"
     guidetolerance="10"
     inkscape:pageopacity="0"
     inkscape:pageshadow="2"
     inkscape:window-width="640"
     inkscape:window-height="480"
     id="namedview44"
     showgrid="false"
     inkscape:zoom="13.111111"
     inkscape:cx="100.03118"
     inkscape:cy="129.64766"
     inkscape:window-x="1758"
     inkscape:window-y="208"
     inkscape:window-maximized="0"
     inkscape:current-layer="svg42" />
  <path
     style="fill:#0d0d0d"
     d="M 0.66666667,142.33333 C -0.40188013,141.26479 -0.09654893,23.701105 0.97919109,22 1.8051767,20.69384 9.6907694,20.5 62.00061,20.5 c 52.31011,0 60.19535,0.193833 61.02081,1.5 0.56951,0.901163 0.95407,25.353665 0.96327,61.25 L 124,143 62.666667,143 C 28.933333,143 1.0333333,142.7 0.66666667,142.33333 Z M 117.17268,138.52736 c 0.91998,-0.3751 1.99565,-1.4347 2.3904,-2.35468 1.0456,-2.43684 1.81045,-76.537447 0.96463,-93.457052 C 120.13154,34.790551 119.4172,27.674957 118.9403,26.903198 118.2131,25.726394 109.18053,25.5 62.956142,25.5 9.2247244,25.5 7.8027743,25.549654 6.3946895,27.475119 5.1696338,29.150303 4.9920311,37.603734 5.2251464,83.142351 c 0.1511695,29.530659 0.6477539,54.066859 1.103521,54.524879 0.455767,0.45802 5.6307666,1.11966 11.4999996,1.47029 13.579356,0.81126 97.116203,0.29818 99.344013,-0.61016 z M 53.168792,65.125481 c -0.907166,-0.57508 -0.105026,-1.039968 2.518182,-1.459435 4.833745,-0.772947 12.029008,0.26446 10.140099,1.461991 -1.722364,1.091944 -10.934685,1.090084 -12.658281,-0.0026 z M 70,55.559017 c 0,-3.181193 1.958099,-4.336805 3.58302,-2.114593 C 75.210876,55.670649 74.346743,58 71.893011,58 70.552671,58 70,57.287347 70,55.559017 Z m 11.17593,-0.22976 C 81.411265,53.27469 82.047628,52.5 83.5,52.5 c 3.07766,0 2.780334,4.889448 -0.32407,5.329257 -2.020921,0.28631 -2.281799,-0.03979 -2,-2.5 z M 92.361626,56.5 c -0.88459,-2.305205 0.431373,-4.685923 2.38535,-4.315356 1.058612,0.200763 1.878366,1.418407 2.069446,3.073907 C 97.072421,57.476495 96.732249,58 95.035038,58 93.881244,58 92.678209,57.325 92.361626,56.5 Z M 31,56.299822 c 0,-1.023934 2.058602,-2.201604 8.5,-4.862619 l 4,-1.652445 -6.25,-2.846188 C 31.295497,44.226948 29.184929,42 32.569518,42 35.704426,42 49,48.189055 49,49.648347 49,50.465981 46.466364,52.231853 43.25,53.655934 36.818594,56.50351 31,57.759323 31,56.299822 Z M 93,17.290565 C 88.30988,15.566038 86.299761,9.6559627 89.5,7 90.786083,5.9326462 91,6.2684255 91,9.3545023 c 0,2.7499367 0.598776,3.9917247 2.537189,5.2618217 2.428065,1.59093 2.646376,1.559853 5.07588,-0.722547 1.932731,-1.815706 2.407201,-3.042424 1.987811,-5.1393767 -0.710815,-3.5540766 2.08321,-3.8612617 2.97036,-0.326572 0.90132,3.5911537 -0.34984,6.4063217 -3.592449,8.0831387 C 96.984059,18.059604 95.532516,18.221755 93,17.290565 Z M 94.177553,7.2268622 C 93.248755,4.2005613 93.311195,3.2602339 94.521298,2.0501307 95.826234,0.74519454 96.200611,0.77203919 97.707143,2.2785714 99.040533,3.6119611 99.15,4.25 98.207143,5.1928571 97.543214,5.8567857 97,7.1834424 97,8.140983 c 0,3.315729 -1.692504,2.767569 -2.822447,-0.9141208 z"
     id="path3409"
     inkscape:connector-curvature="0" />
</svg>
