<?xml version="1.0" encoding="UTF-8" standalone="no"?>
<!-- Created with Inkscape (http://www.inkscape.org/) -->

<svg
   xmlns:dc="http://purl.org/dc/elements/1.1/"
   xmlns:cc="http://creativecommons.org/ns#"
   xmlns:rdf="http://www.w3.org/1999/02/22-rdf-syntax-ns#"
   xmlns:svg="http://www.w3.org/2000/svg"
   xmlns="http://www.w3.org/2000/svg"
   xmlns:sodipodi="http://sodipodi.sourceforge.net/DTD/sodipodi-0.dtd"
   xmlns:inkscape="http://www.inkscape.org/namespaces/inkscape"
   id="svg32"
   version="1.1"
   inkscape:version="0.91 r13725"
   width="125"
   height="144"
   viewBox="0 0 125 144"
   sodipodi:docname="wait.svg">
  <metadata
     id="metadata38">
    <rdf:RDF>
      <cc:Work
         rdf:about="">
        <dc:format>image/svg+xml</dc:format>
        <dc:type
           rdf:resource="http://purl.org/dc/dcmitype/StillImage" />
        <dc:title></dc:title>
      </cc:Work>
    </rdf:RDF>
  </metadata>
  <defs
     id="defs36" />
  <sodipodi:namedview
     pagecolor="#ffffff"
     bordercolor="#666666"
     borderopacity="1"
     objecttolerance="10"
     gridtolerance="10"
     guidetolerance="10"
     inkscape:pageopacity="0"
     inkscape:pageshadow="2"
     inkscape:window-width="640"
     inkscape:window-height="480"
     id="namedview34"
     showgrid="false"
     inkscape:zoom="6.5555555"
     inkscape:cx="87.150556"
     inkscape:cy="65.136099"
     inkscape:window-x="1894"
     inkscape:window-y="254"
     inkscape:window-maximized="0"
     inkscape:current-layer="svg32" />
  <path
     style="fill:#0b0b0b"
     d="M 0.46802944,140.72864 C -0.43206184,137.14239 0.40014472,22.264902 1.3329701,21.332549 3.8026965,18.864072 121.23032,18.898451 123.70241,21.368375 124.14108,21.806667 124.5,49.240584 124.5,82.332635 l 0,60.167365 -61.729035,0.25762 -61.7290359,0.25762 -0.57389966,-2.2866 z M 118.1776,137.88105 c 2.68955,-1.40109 2.98088,-8.08392 2.64097,-60.581979 -0.25046,-38.682277 -0.59631,-49.478657 -1.61771,-50.5 C 118.17849,25.776758 107.20679,25.4331 67.700858,25.185978 40.090386,25.013267 15.137961,25.158089 12.251024,25.507807 7.6524216,26.064872 6.908993,26.475495 6.2510243,28.821828 5.8379609,30.294823 5.5,54.99016 5.5,83.700356 c 0,41.439304 0.2674224,52.468274 1.2972291,53.500004 0.9328588,0.93459 6.8314129,1.465 20.9999999,1.88836 25.500151,0.76196 88.207901,-0.076 90.380371,-1.20767 z M 76.253624,89.602272 C 70.000832,87.556777 62.581436,82.45566 59.697684,78.219433 52.418071,67.525695 53.611541,49.388459 62.157143,40.842857 71.774081,31.225919 86.282455,28.675221 98.761798,34.407442 110.45528,39.778691 115.33572,47.603159 115.34864,61 c 0.007,7.195104 -0.38867,9.267586 -2.57698,13.5 -1.42184,2.75 -3.86463,6.212059 -5.42841,7.693464 -7.13572,6.759808 -22.141993,10.335875 -31.089626,7.408808 z M 93.789838,79.097318 C 98.594711,76.633236 101.39167,73.568025 103.91597,68 106.59338,62.094251 106.51604,58.951865 103.54916,53.097017 100.49473,47.069384 96.519855,43.665548 90.010772,41.503578 85.424884,39.98039 84.548863,39.965714 80.502974,41.344286 67.865937,45.650158 61.833735,57.486299 66.538138,68.74552 c 2.149377,5.144182 4.201572,7.180842 9.961862,9.886446 6.077534,2.854613 12.304077,3.022199 17.289838,0.465352 z M 82,59.162526 C 82,50.390913 82.875679,46 84.625,46 85.669444,46 86,47.80303 86,53.5 l 0,7.5 7.569551,0 c 7.277919,0 7.557239,0.08669 7.249999,2.25 -0.30159,2.123549 -0.839405,2.266159 -9.56955,2.537526 L 82,66.075052 82,59.162526 Z M 19.107149,15.614055 C 17.427322,13.825961 16.945143,12.279256 17.182835,9.4413547 17.599681,4.4644726 20,3.5305443 20,8.3452381 20,12.452444 22.142313,15 25.596179,15 28.231727,15 30,11.962373 30,7.4349003 30,3.9742778 32.701003,4.3621908 33.48584,7.9355301 35.186886,15.680342 24.520572,21.37638 19.107149,15.614055 Z m 73.134725,1.351777 C 88.995891,15.66148 87.377895,11.660787 88.818046,8.5 c 1.622051,-3.5600129 3.010681,-3.092121 3.371589,1.1360394 0.205716,2.4100376 1.053516,4.1267716 2.51438,5.0914396 2.018694,1.333025 2.420138,1.239277 4.774349,-1.114934 1.941316,-1.941312 2.415486,-3.187309 1.937576,-5.0914396 -0.76923,-3.0648737 1.0427,-3.401155 2.60428,-0.4833327 1.42431,2.6613503 0.47947,5.4240123 -2.71419,7.9361423 -2.749297,2.162599 -5.422751,2.455163 -9.064156,0.991917 z M 22.126189,11.235786 C 21.474925,10.018889 21.619127,8.8737793 22.591005,7.5446562 23.365952,6.4848527 24,4.5787491 24,3.3088704 24,2.0389917 24.45,1 25,1 c 0.55,0 1,1.0389917 1,2.3088704 0,1.2698787 0.634048,3.1759823 1.408995,4.2357858 0.971878,1.3291231 1.11608,2.4742328 0.464816,3.6911298 -1.216239,2.272563 -4.531383,2.272563 -5.747622,0 z M 95.494252,9.5 C 95.142116,8.4 94.397436,6.6554888 93.839408,5.6233084 92.551054,3.2402494 94.847074,0.62035042 97.374066,1.590048 98.722778,2.1075977 98.956603,2.9407316 98.43684,5.3767923 98.070334,7.0945565 97.402373,9.175 96.952482,10 c -0.679346,1.245772 -0.926495,1.161029 -1.45823,-0.5 z"
     id="path3430"
     inkscape:connector-curvature="0" />
</svg>
