<?xml version="1.0" encoding="UTF-8" standalone="no"?>
<!-- Created with Inkscape (http://www.inkscape.org/) -->

<svg
   xmlns:dc="http://purl.org/dc/elements/1.1/"
   xmlns:cc="http://creativecommons.org/ns#"
   xmlns:rdf="http://www.w3.org/1999/02/22-rdf-syntax-ns#"
   xmlns:svg="http://www.w3.org/2000/svg"
   xmlns="http://www.w3.org/2000/svg"
   xmlns:sodipodi="http://sodipodi.sourceforge.net/DTD/sodipodi-0.dtd"
   xmlns:inkscape="http://www.inkscape.org/namespaces/inkscape"
   id="svg42"
   version="1.1"
   inkscape:version="0.91 r13725"
   width="125"
   height="144"
   viewBox="0 0 125 144"
   sodipodi:docname="write to file2.svg">
  <metadata
     id="metadata48">
    <rdf:RDF>
      <cc:Work
         rdf:about="">
        <dc:format>image/svg+xml</dc:format>
        <dc:type
           rdf:resource="http://purl.org/dc/dcmitype/StillImage" />
        <dc:title></dc:title>
      </cc:Work>
    </rdf:RDF>
  </metadata>
  <defs
     id="defs46" />
  <sodipodi:namedview
     pagecolor="#ffffff"
     bordercolor="#666666"
     borderopacity="1"
     objecttolerance="10"
     gridtolerance="10"
     guidetolerance="10"
     inkscape:pageopacity="0"
     inkscape:pageshadow="2"
     inkscape:window-width="640"
     inkscape:window-height="480"
     id="namedview44"
     showgrid="false"
     inkscape:zoom="1.6388889"
     inkscape:cx="-3.6594221"
     inkscape:cy="72.45808"
     inkscape:window-x="1876"
     inkscape:window-y="248"
     inkscape:window-maximized="0"
     inkscape:current-layer="svg42" />
  <path
     style="fill:#000000"
     d="M 0.80272338,133.75 C 0.42767861,129.2125 0.27478251,102.2347 0.46295427,73.799338 0.73257279,33.056242 1.0807795,21.823295 2.1058854,20.79934 3.9361305,18.97115 121.58679,18.880583 123.4115,20.70596 c 1.65633,1.656949 2.36907,46.439636 1.40922,88.54404 l -0.7466,32.75 -61.29475,0 -61.2947471,0 z M 119.01999,136.71408 c 1.66931,-1.67008 1.7851,-5.28308 1.7851,-55.700192 0,-42.904103 -0.26548,-54.179703 -1.3,-55.214074 C 117.59556,23.890557 9.0143483,23.890736 7.1050848,25.8 c -1.9376825,1.937682 -1.9043567,108.16441 0.034667,110.50079 1.8646716,2.24679 6.4462172,2.41712 61.8802332,2.30058 44.876755,-0.0943 48.338495,-0.22502 50.000005,-1.88729 z M 94.881583,69.75 c 2.534913,-3.680675 3.673615,-8.186117 6.204617,-10.485642 1.28486,-1.06634 -0.35782,0.909862 2.09144,3.2564 1.61056,1.543012 4.62156,0.942061 4.3181,1.433057 C 106.13099,66.162035 97.927997,72 96.147899,72 94.552983,72 94.307944,71.564612 94.881583,69.75 Z m 4.927866,-0.757063 c 0.342321,-0.553884 -0.10053,-1.284477 -0.984111,-1.623538 -1.914649,-0.73472 -2.981717,0.07492 -2.061373,1.56407 0.830379,1.343581 2.234909,1.371006 3.045484,0.05947 z M 71.74391,68.935447 C 70.110465,67.133076 69.751397,64.9701 69.464234,55.202975 c -0.430291,-14.635271 0.431297,-21.793424 2.92308,-24.285207 1.50091,-1.50091 3.344946,-1.91777 8.483511,-1.91777 7.596415,0 9.390312,0.747247 15.184259,6.325 4.243836,4.085486 4.249836,4.101622 4.133996,11.133208 -0.11693,7.098122 -0.247538,7.12609 -1.362719,0.291792 -0.530868,-3.253382 -0.970089,-3.751808 -3.31659,-3.763655 -6.01383,-0.03036 -7.082876,-0.873535 -7.404119,-5.839753 l -0.300568,-4.646592 -7.5,0 -7.5,0 -0.277457,14.25 -0.277456,14.25 6.902456,0 c 3.796352,0 8.421207,0.31043 10.277457,0.689845 3.258153,0.665962 3.288447,0.714443 0.875,1.40032 -1.375,0.390761 -5.7625,0.755331 -9.75,0.810155 -5.421313,0.07454 -7.25,0.445026 -7.25,1.468838 0,1.547031 4.9715,2.603073 12.333333,2.619836 3.417118,0.0078 4.712079,0.377269 4.419511,1.261006 -0.273784,0.826995 -3.114519,1.347254 -8.394507,1.537391 -7.088584,0.255266 -8.197411,0.04825 -9.919511,-1.851942 z m 7.142324,-14.401722 c -2.755776,-3.363061 -3.529725,-4.985152 -2.750404,-5.764473 0.779321,-0.779321 1.474051,-0.761185 2.468882,0.06445 1.788624,1.484428 2.700372,0.512732 2.700372,-2.877926 0,-2.748338 2.137019,-5.485425 3.342009,-4.280435 0.361895,0.361895 0.657991,2.188315 0.657991,4.058711 0,2.945646 0.267634,3.315777 2,2.765946 3.22821,-1.024594 2.501269,2.982391 -1.291978,7.12154 l -3.291978,3.59217 z m 26.059356,6.07073 c -1.67356,-1.673564 0.0975,-6.078772 1.41972,-7.249273 12.05206,-10.668986 20.09462,-10.614815 5.83191,6.520622 -0.91765,1.10248 -5.76468,2.215601 -7.25163,0.728651 z m -85.185961,-46.059 C 17.371147,12.156972 16.67849,8.7964531 17.912073,5.5817871 c 1.104605,-2.878554 2.393011,-1.642504 2.393011,2.295768 0,3.8665249 0.914795,5.2463199 4.272681,6.4445289 2.681733,0.956934 5.727319,-2.670809 5.727319,-6.8220839 0,-4.132078 1.633159,-4.595063 3.051319,-0.865021 0.776329,2.0419 0.618861,3.223567 -0.699612,5.2499999 -3.732506,5.736697 -8.779771,6.777866 -12.897162,2.660476 z m 72.308162,0.889228 c -3.197228,-1.7348 -4.408684,-5.359146 -2.797565,-8.3695509 1.449653,-2.708701 3.228776,-1.685945 2.45187,1.409495 -0.406674,1.6203179 0.05884,3.0012279 1.49633,4.4387149 2.694086,2.694086 4.22584,2.631859 6.964134,-0.282917 1.65489,-1.761548 2.0567,-3.0445369 1.56591,-5.0000009 -0.853,-3.398599 1.19082,-3.527384 2.71991,-0.171388 1.37771,3.0237459 -0.8971,7.1090619 -4.780695,8.5855989 -3.292949,1.251977 -4.343327,1.167897 -7.619894,-0.609952 z M 22.46395,10.319395 c -0.648297,-1.1584439 -0.508387,-2.1127309 0.45031,-3.0714289 0.764953,-0.764953 1.390824,-2.735238 1.390824,-4.378412 0,-1.737081 0.418567,-2.72889898 1,-2.36955398 0.55,0.339919 1,1.68433298 1,2.98758798 0,1.303255 0.625871,2.995425 1.390824,3.760378 C 29.471433,9.0234921 27.973904,12 25.305084,12 24.259743,12 22.981233,11.243728 22.46395,10.319395 Z M 95.81103,8.5000001 c -0.358568,-1.1 -1.10851,-2.844511 -1.666538,-3.876692 -0.757872,-1.401831 -0.612886,-2.278401 0.572998,-3.464285 1.395386,-1.39538698 1.765217,-1.40997098 3.054724,-0.120465 1.269961,1.269962 1.280571,2.004311 0.07894,5.464286 -1.156724,3.330681 -1.49689,3.6636809 -2.040124,1.997156 z"
     id="path3442"
     inkscape:connector-curvature="0"
     sodipodi:nodetypes="ssssscccssssssssccscscssssssssssssscccccssssssssssssssssscssssssssssssssssssssssssssssssssssss" />
</svg>
