<?xml version="1.0" encoding="UTF-8" standalone="no"?>
<!-- Created with Inkscape (http://www.inkscape.org/) -->

<svg
   xmlns:dc="http://purl.org/dc/elements/1.1/"
   xmlns:cc="http://creativecommons.org/ns#"
   xmlns:rdf="http://www.w3.org/1999/02/22-rdf-syntax-ns#"
   xmlns:svg="http://www.w3.org/2000/svg"
   xmlns="http://www.w3.org/2000/svg"
   xmlns:sodipodi="http://sodipodi.sourceforge.net/DTD/sodipodi-0.dtd"
   xmlns:inkscape="http://www.inkscape.org/namespaces/inkscape"
   id="svg22"
   version="1.1"
   inkscape:version="0.91 r13725"
   width="125"
   height="144"
   viewBox="0 0 125 144"
   sodipodi:docname="write to file.svg">
  <metadata
     id="metadata28">
    <rdf:RDF>
      <cc:Work
         rdf:about="">
        <dc:format>image/svg+xml</dc:format>
        <dc:type
           rdf:resource="http://purl.org/dc/dcmitype/StillImage" />
        <dc:title></dc:title>
      </cc:Work>
    </rdf:RDF>
  </metadata>
  <defs
     id="defs26" />
  <sodipodi:namedview
     pagecolor="#ffffff"
     bordercolor="#666666"
     borderopacity="1"
     objecttolerance="10"
     gridtolerance="10"
     guidetolerance="10"
     inkscape:pageopacity="0"
     inkscape:pageshadow="2"
     inkscape:window-width="640"
     inkscape:window-height="480"
     id="namedview24"
     showgrid="false"
     inkscape:zoom="3.2777778"
     inkscape:cx="70.42059"
     inkscape:cy="48.731474"
     inkscape:window-x="1819"
     inkscape:window-y="242"
     inkscape:window-maximized="0"
     inkscape:current-layer="svg22" />
  <path
     style="fill:#090909"
     d="M 0.42348087,140.66119 C -0.42546017,138.44889 0.43448949,21.230649 1.3060489,20.359883 3.7640354,17.904137 121.2709,17.939123 123.73038,20.396334 c 0.42329,0.422902 0.90182,27.956733 1.0634,61.18629 L 125.08756,142 63.012396,142 C 12.078621,142 0.84502149,141.75971 0.42348087,140.66119 Z M 118.1427,136.92363 c 2.68739,-1.43825 3.03616,-9.44818 2.68329,-61.624585 -0.25611,-37.868067 -0.60464,-48.479433 -1.62584,-49.5 C 118.16596,24.765493 106.77938,24.5 63.486037,24.5 12.767141,24.5 8.9515845,24.620174 7.3020352,26.269564 5.6795653,27.891878 5.500538,31.456078 5.1506074,69.1017 c -0.3826001,41.16022 0.2758452,64.34911 1.9020914,66.98717 0.6691964,1.08555 4.8587482,1.55357 18.1586002,2.02849 23.037239,0.82263 90.789971,-0.0477 92.931401,-1.19373 z M 84,104.45034 c 0,-1.40231 0.736448,-3.98981 1.63655,-5.75 1.924248,-3.762944 10.038467,-14.148679 13.784408,-17.643251 l 2.618632,-2.44291 4.98727,4.91228 4.98727,4.912279 -7.25706,7.390794 C 97.321225,103.40239 91.608517,106.93924 86.75,106.97804 84.463308,106.9963 84,106.57044 84,104.45034 Z m 7.418213,-2.05733 c 2.077748,-0.79731 2.034714,-4.281975 -0.06282,-5.086875 -1.006905,-0.386385 -2.170166,0.08765 -3,1.222515 -2.645995,3.61861 -1.165279,5.48684 3.062821,3.86436 z M 43.827739,101.69964 39.5,98.399283 39.243638,68.449641 C 39.01347,41.560216 39.166738,38.142374 40.743638,35 43.518594,29.470191 48.007531,27.874747 62.559435,27.246296 L 75.011668,26.708523 86.5886,38.104261 98.165532,49.5 97.832766,61.677492 C 97.548096,72.094932 97.202139,74.253818 95.439154,76.614441 91.558153,81.81107 91,80.942736 91,69.708333 91,63.95625 90.728113,57.890567 90.395808,56.229038 89.798024,53.240119 89.713511,53.204133 82.428,52.836231 78.309648,52.628264 74.507151,51.907151 73.8,51.2 73.089485,50.489485 72.370421,46.664302 72.158507,42.467807 L 71.7814,35 60.6407,35.015313 c -6.127385,0.0084 -11.799614,0.432067 -12.604953,0.941433 -1.16916,0.739477 -1.65026,5.537682 -2.387217,23.808657 -1.000627,24.808001 -0.490678,32.97302 2.272458,36.385349 1.650096,2.037782 2.842175,2.236379 15.931282,2.654108 C 76.227523,99.199806 78,99.465824 78,100.92819 78,104.47869 75.935883,105 61.877739,105 l -13.72226,0 -4.32774,-3.30036 z m 3.645188,-11.743445 c -0.354809,-0.574093 -0.101266,-1.699093 0.563428,-2.5 C 48.991318,86.305535 52.244388,86 63.540657,86 79.241389,86 81,86.312955 81,89.106989 81,90.887577 80.023597,91 64.559017,91 54.21707,91 47.878722,90.612784 47.472927,89.956195 Z m 62.230023,-9.748358 c -4.38012,-4.485652 -4.54634,-5.609123 -1.15827,-7.829069 2.46351,-1.614157 2.64169,-1.575023 5.58606,1.226947 4.63401,4.409896 5.33722,6.219709 3.29398,8.477472 -2.43921,2.695297 -3.5134,2.434415 -7.72177,-1.87535 z M 57.70247,75.828632 c -5.942579,-7.343967 -6.748921,-10.155121 -3.497413,-12.19304 1.341431,-0.840757 2.247799,-0.558784 4.25,1.322186 L 61,67.348628 l 0,-8.734679 0,-8.73468 3.75,0.310366 3.75,0.310365 0.299403,8.5 0.299404,8.5 1.85785,-2.452773 c 1.648633,-2.176561 2.149825,-2.319741 4.450596,-1.271439 3.190981,1.453908 3.255129,2.937845 0.300139,6.943108 -3.255275,4.412277 -10.612099,12.281727 -11.477987,12.277777 -0.401173,-0.0018 -3.338294,-3.227448 -6.526935,-7.168041 z M 23,17.293772 c -3.609568,-1.319498 -6,-4.669715 -6,-8.409069 0,-3.8688058 1.649993,-6.0690605 2.960774,-3.9481725 0.405441,0.6560186 0.541248,2.2176453 0.301791,3.4702814 -0.991738,5.1879401 6.919855,7.8737851 8.780195,2.9807201 0.546293,-1.4368579 0.931838,-3.1243579 0.856767,-3.7500003 -0.54057,-4.5051349 2.616449,-5.1177644 3.587591,-0.6961834 0.81371,3.7047977 -0.724287,6.6227127 -4.80094,9.1084247 C 25.280511,18.126356 25.278681,18.126756 23,17.293772 Z m 67.454545,-2.748317 c -2.664516,-2.664517 -3.026861,-4.6075566 -1.419361,-7.6111965 1.589533,-2.9700705 2.811963,-2.3105874 3.154451,1.7017809 0.205716,2.4100376 1.053516,4.1267716 2.51438,5.0914396 2.017324,1.33212 2.419215,1.2402 4.744589,-1.085174 2.153026,-2.153023 2.388336,-2.9409774 1.542606,-5.1654128 -0.853,-2.2435818 -0.74628,-2.5763717 0.73475,-2.2911508 0.95299,0.1835291 2.18238,1.6123305 2.73199,3.1751142 0.89328,2.5400274 0.65513,3.1489144 -2.24512,5.7402844 -4.099726,3.663109 -8.377832,3.824767 -11.758285,0.444315 z M 22.636207,11.150507 C 21.120646,9.4758308 21.105414,9.026853 22.475059,6.4005068 23.307,4.8052281 23.990451,2.7125 23.993839,1.75 23.997228,0.7875 24.45,0 25,0 c 0.55,0 1.002772,0.7875 1.006161,1.75 0.0034,0.9625 0.686839,3.0552281 1.51878,4.6505068 1.369645,2.6263462 1.354413,3.075324 -0.161148,4.7500002 C 26.443221,12.167728 25.379514,13 25,13 24.620486,13 23.556779,12.167728 22.636207,11.150507 Z M 95,7.7833333 C 95,6.4725 94.479072,4.8790717 93.842382,4.2423816 c -0.876825,-0.8768244 -0.847124,-1.531741 0.122444,-2.7 1.627005,-1.96042063 2.493944,-1.94075423 4.537634,0.1029357 0.958989,0.9589886 1.239409,1.897555 0.672244,2.25 -0.535191,0.3325755 -1.13094,1.6944351 -1.323889,3.0263548 C 97.379974,10.171882 95,10.891231 95,7.7833333 Z"
     id="path3451"
     inkscape:connector-curvature="0" />
</svg>
