<?xml version="1.0" encoding="UTF-8" standalone="no"?>
<!-- Created with Inkscape (http://www.inkscape.org/) -->

<svg
   xmlns:dc="http://purl.org/dc/elements/1.1/"
   xmlns:cc="http://creativecommons.org/ns#"
   xmlns:rdf="http://www.w3.org/1999/02/22-rdf-syntax-ns#"
   xmlns:svg="http://www.w3.org/2000/svg"
   xmlns="http://www.w3.org/2000/svg"
   xmlns:sodipodi="http://sodipodi.sourceforge.net/DTD/sodipodi-0.dtd"
   xmlns:inkscape="http://www.inkscape.org/namespaces/inkscape"
   id="svg2"
   version="1.1"
   inkscape:version="0.91 r13725"
   width="125"
   height="143.75"
   viewBox="0 0 125 143.75"
   sodipodi:docname="write to file2.svg">
  <metadata
     id="metadata8">
    <rdf:RDF>
      <cc:Work
         rdf:about="">
        <dc:format>image/svg+xml</dc:format>
        <dc:type
           rdf:resource="http://purl.org/dc/dcmitype/StillImage" />
        <dc:title></dc:title>
      </cc:Work>
    </rdf:RDF>
  </metadata>
  <defs
     id="defs6" />
  <sodipodi:namedview
     pagecolor="#ffffff"
     bordercolor="#666666"
     borderopacity="1"
     objecttolerance="10"
     gridtolerance="10"
     guidetolerance="10"
     inkscape:pageopacity="0"
     inkscape:pageshadow="2"
     inkscape:window-width="1920"
     inkscape:window-height="1054"
     id="namedview4"
     showgrid="false"
     inkscape:zoom="4.6435395"
     inkscape:cx="56.670698"
     inkscape:cy="64.087927"
     inkscape:window-x="0"
     inkscape:window-y="0"
     inkscape:window-maximized="1"
     inkscape:current-layer="svg2" />
  <path
     style="fill:#000000"
     d="M 0.86876656,142.81884 C 0.40459254,142.35211 0.0248138,115.06177 0.0248138,82.173632 c 0,-44.834666 0.37486265,-60.173533 1.4981694,-61.303027 2.3375544,-2.350433 120.0141668,-2.151485 121.9601368,0.206188 1.01921,1.234833 1.32308,18.482931 1.08923,61.826093 l -0.32433,60.113474 -61.267649,0.32555 C 29.283162,143.52096 1.3329406,143.28555 0.86876656,142.81884 Z M 119.16494,137.90528 c 1.72251,-1.73198 1.96189,-8.53747 1.96189,-55.773491 0,-47.236022 -0.23938,-54.041515 -1.96189,-55.773502 -1.72319,-1.732697 -8.54745,-1.972696 -56.092166,-1.972696 -47.544719,0 -54.3689721,0.239999 -56.0921735,1.972696 -1.7224988,1.731987 -1.9618888,8.53748 -1.9618888,55.773502 0,47.236021 0.23939,54.041511 1.9618888,55.773491 1.7232014,1.73271 8.5474545,1.9727 56.0921735,1.9727 47.544716,0 54.368976,-0.23999 56.092166,-1.9727 z M 96.687904,64.969029 c 0,0 3.484056,0.461633 3.995526,-2.068764 0.30694,-1.518577 0.24301,-3.885478 2.36962,-5.796736 0,0 0.84249,0.686891 3.02884,2.991902 l 2.84237,2.996643 c -3.12262,3.311052 -7.27242,1.411792 -7.16474,6.98405 -10.573901,6.251314 -11.572978,5.342771 -5.071616,-5.107095 z m 2.928756,4.37386 c -0.771647,-2.327703 -3.459313,-2.71377 -3.459313,-0.49691 0,1.093201 0.889533,1.98764 1.976755,1.98764 1.087211,0 1.75437,-0.670829 1.482558,-1.49073 z M 70.491881,69.01668 C 68.851088,66.498719 68.564319,62.969203 68.902506,49.454866 69.388202,30.04597 69.78787,29.406999 81.442169,29.406999 c 6.795642,0 7.652141,0.344805 12.870361,5.18129 l 5.590242,5.18129 -0.203503,8.941421 -0.203491,8.941422 -0.732865,-6.904437 -0.732854,-6.904436 -5.306017,-0.38602 c -5.280222,-0.38414 -5.306016,-0.410077 -5.306016,-5.335245 l 0,-4.949228 -7.490847,0 -7.490847,0 0,14.436549 0,14.436549 9.987796,0 c 5.826215,0 9.987796,0.523065 9.987796,1.255353 0,0.732288 -4.161581,1.255352 -9.987796,1.255352 -8.045724,0 -9.987796,0.366144 -9.987796,1.883027 0,1.50572 1.868358,1.883029 9.324376,1.883029 7.775407,0 9.204997,0.312809 8.605748,1.883028 -0.542282,1.420952 -2.823329,1.883028 -9.295594,1.883028 -7.721894,0 -8.776556,-0.306289 -10.578981,-3.072291 z M 106.6193,53.618819 c 9.66639,-6.503529 11.17181,-4.998971 5.14398,4.065806 -1.94572,2.926017 -2.48272,3.782199 -5.22728,0.912207 -2.74457,-2.869993 -0.49529,-4.588737 0.0833,-4.978013 z m -27.734838,2.164334 c -2.173149,-2.185121 -3.951181,-4.461061 -3.951181,-5.057647 0,-1.740354 2.251339,-2.648067 3.108601,-1.253351 1.618522,2.633253 3.133772,1.125676 3.133772,-3.117903 0,-3.068638 0.564785,-4.393732 1.872711,-4.393732 1.319983,0 1.872712,1.342174 1.872712,4.547444 0,3.883766 0.271158,4.321163 1.857939,2.996997 1.501963,-1.253385 2.002042,-1.172847 2.61006,0.420351 0.459266,1.203422 -0.670173,3.501035 -2.900655,5.900794 L 82.835643,59.7561 Z M 20.952071,16.76154 c -3.222116,-1.887569 -4.859555,-5.72453 -3.967724,-9.2974447 1.212865,-4.8590554 3.854844,-3.9539501 3.265868,1.1188412 -0.391342,3.3705955 0.06101,4.5834045 2.123407,5.6932525 4.376922,2.355363 7.976201,-0.427022 7.364768,-5.6932525 -0.517836,-4.4600696 1.787678,-6.0960659 3.237424,-2.29728 1.354718,3.549786 0.812207,5.6058375 -2.306627,8.7418545 -3.259044,3.276997 -6.190321,3.800087 -9.717116,1.734029 z m 71.853587,0.07148 C 88.911567,15.272113 86.993436,11.209385 88.6665,8.0660125 c 1.906265,-3.58151 3.511795,-3.1031294 2.765207,0.8239148 -0.440396,2.3164737 0.06652,3.8496397 1.660223,5.0214097 3.050096,2.242567 3.861804,2.14137 6.839452,-0.852687 2.005948,-2.017 2.253778,-3.05011 1.204548,-5.0214081 -1.04591,-1.9650685 -0.92683,-2.4819336 0.57183,-2.4819336 1.04108,0 2.2582,1.4636663 2.70474,3.2525922 1.36567,5.4712655 -5.733184,10.3795065 -11.606842,8.0251195 z M 22.338104,11.000245 c -1.335829,-1.6271769 -1.36952,-2.2035723 -0.152869,-2.6153157 0.858326,-0.2904785 1.560593,-2.1757919 1.560593,-4.1895858 0,-2.0137941 0.561813,-3.66144372 1.248474,-3.66144372 0.686661,0 1.248475,1.64764962 1.248475,3.66144372 0,2.0137939 0.702267,3.8991073 1.560593,4.1895858 1.21665,0.4117434 1.182959,0.9881388 -0.152869,2.6153157 -0.942404,1.147948 -2.137693,2.087177 -2.656199,2.087177 -0.518505,0 -1.713794,-0.939229 -2.656198,-2.087177 z M 94.908873,7.4383365 c 0,-1.7261092 -0.682203,-3.1383803 -1.516006,-3.1383803 -0.946264,0 -0.711664,-0.8087702 0.624237,-2.1520322 2.021339,-2.03247496 2.259148,-2.03247496 4.280488,0 1.335898,1.343262 1.5705,2.1520322 0.624237,2.1520322 -0.833801,0 -1.516007,1.4122711 -1.516007,3.1383803 0,1.7261091 -0.561814,3.1383805 -1.248475,3.1383805 -0.686661,0 -1.248474,-1.4122714 -1.248474,-3.1383805 z"
     id="path3338"
     inkscape:connector-curvature="0"
     sodipodi:nodetypes="csssscscssssssssscscsccccsscsssscccccsscccccsssssssssscsssssssssscsssssssssssssssssssssssssssssssssss" />
</svg>
